<?xml version="1.0" standalone="no"?>
<!DOCTYPE svg PUBLIC "-//W3C//DTD SVG 1.1//EN" "http://www.w3.org/Graphics/SVG/1.1/DTD/svg11.dtd" >
<svg>
<metadata>
Created by FontForge 20090622 at Thu Nov 29 19:24:44 2018
 By deploy user
Copyright (c) 2012 by Fontfabric LLC. All rights reserved.
</metadata>
<defs>
<font id="Intro-Bold" horiz-adv-x="551" >
  <font-face 
    font-family="Intro Bold"
    font-weight="700"
    font-stretch="normal"
    units-per-em="1000"
    panose-1="2 0 0 0 0 0 0 0 0 0"
    ascent="750"
    descent="-250"
    x-height="482"
    cap-height="700"
    bbox="-58 -277 1306 989"
    underline-thickness="50"
    underline-position="-50"
    unicode-range="U+0020-U+2212"
  />
<missing-glyph horiz-adv-x="219" 
 />
    <glyph glyph-name=".notdef" horiz-adv-x="219" 
 />
    <glyph glyph-name=".null" horiz-adv-x="0" 
 />
    <glyph glyph-name="nonmarkingreturn" horiz-adv-x="333" 
 />
    <glyph glyph-name="space" unicode=" " horiz-adv-x="245" 
 />
    <glyph glyph-name="space" unicode="&#xa0;" horiz-adv-x="245" 
 />
    <glyph glyph-name="exclam" unicode="!" horiz-adv-x="299" 
d="M150 -14q-34 0 -58 21.5t-24 54.5q0 34 23.5 55t58.5 21q36 0 59 -20.5t23 -55.5q0 -33 -23 -54.5t-59 -21.5zM79 187l-12 514h163l-9 -514h-142z" />
    <glyph glyph-name="quotedbl" unicode="&#x22;" horiz-adv-x="420" 
d="M68 700h121l-18 -220h-103v220zM242 700h120l-17 -220h-103v220z" />
    <glyph glyph-name="numbersign" unicode="#" horiz-adv-x="711" 
d="M41 179v98h113l19 123h-101v99h116l30 200h124l-29 -200h144l30 200h124l-29 -200h84v-99h-98l-18 -123h84v-98h-99l-25 -179h-129l27 179h-141l-25 -179h-130l27 179h-98zM295 404l-19 -130h150l20 130h-151z" />
    <glyph glyph-name="dollar" unicode="$" horiz-adv-x="644" 
d="M40 207h144q2 -38 31.5 -60t71.5 -26v177q-237 25 -237 196q0 98 68 154t169 65v68h74v-70q95 -11 158.5 -63.5t63.5 -143.5h-140q-2 33 -26 53t-56 22v-167q55 -7 95.5 -18.5t76.5 -34t55 -61.5t19 -94q0 -93 -72.5 -150.5t-173.5 -66.5v-69h-74v68q-104 11 -175.5 67.5
t-71.5 153.5zM361 290v-169q43 3 69.5 25.5t26.5 57.5q0 39 -25 57.5t-71 28.5zM287 421v158q-38 -3 -63.5 -24t-25.5 -58q0 -34 23 -50t66 -26z" />
    <glyph glyph-name="percent" unicode="%" horiz-adv-x="921" 
d="M221 0l343 699h136l-344 -699h-135zM887 161q0 -57 -26.5 -99t-66.5 -61t-86.5 -19t-86.5 19t-66.5 61t-26.5 99t26.5 98.5t66.5 60.5t86.5 19t86.5 -19t66.5 -60.5t26.5 -98.5zM639 161q0 -39 21.5 -61t46.5 -22t46.5 22t21.5 61q0 38 -21.5 59.5t-46.5 21.5
t-46.5 -21.5t-21.5 -59.5zM394 536q0 -49 -20 -87.5t-51.5 -58.5t-70 -29.5t-76.5 0t-69.5 29.5t-51.5 58.5t-20 87.5t20 87.5t51.5 58.5t69.5 29.5t76.5 0t70 -29.5t51.5 -58.5t20 -87.5zM147 536q0 -38 21.5 -59.5t46.5 -21.5t46.5 21.5t21.5 59.5q0 39 -21.5 61t-46.5 22
t-46.5 -22t-21.5 -61z" />
    <glyph glyph-name="ampersand" unicode="&#x26;" horiz-adv-x="650" 
d="M530 530h-123q0 27 -25 43t-64 16q-37 0 -63 -18t-26 -52q0 -76 112 -76v-114h-33q-51 -2 -82.5 -32.5t-31.5 -76.5q0 -45 32 -76t85 -31q52 0 83 30t33 83v222h189v-113h-68v-108q0 -111 -63 -174.5t-174 -63.5q-127 0 -196 66.5t-67 159.5q0 61 29.5 108.5t82.5 73.5
q-64 40 -69 122q-4 60 28.5 104.5t83.5 66t111 21.5q94 0 155 -47t61 -134z" />
    <glyph glyph-name="quotesingle" unicode="'" horiz-adv-x="247" 
d="M67 700h123l-17 -218h-106v218z" />
    <glyph glyph-name="parenleft" unicode="(" horiz-adv-x="354" 
d="M290 790l44 -84q-75 -43 -115.5 -166t-40 -258t41.5 -258t114 -166l-44 -84q-81 36 -139.5 116.5t-86 180t-27.5 211.5t26.5 211.5t85.5 180t141 116.5z" />
    <glyph glyph-name="parenright" unicode=")" horiz-adv-x="354" 
d="M20 706l44 84q81 -36 139.5 -116.5t85.5 -179.5t27.5 -211.5t-26.5 -211.5t-85.5 -180t-140.5 -117l-44 84q73 42 114 165.5t41.5 258.5t-40 258.5t-115.5 165.5z" />
    <glyph glyph-name="asterisk" unicode="*" horiz-adv-x="438" 
d="M391 564l-100 -27l73 -82l-86 -63l-59 87l-58 -87l-85 64l73 80l-103 26l30 96l99 -37l-9 99h106l-9 -99l96 38z" />
    <glyph glyph-name="plus" unicode="+" horiz-adv-x="483" 
d="M53 309v115h130v128h116v-128h131v-115h-131v-129h-116v129h-130z" />
    <glyph glyph-name="comma" unicode="," horiz-adv-x="276" 
d="M220 59q0 -18 -7 -32l-41 -127h-82l24 86q-58 19 -58 74q0 35 23 56t59 21q28 0 49 -14t29 -38q4 -9 4 -26z" />
    <glyph glyph-name="hyphen" unicode="-" horiz-adv-x="471" 
d="M61 273v120h349v-120h-349z" />
    <glyph glyph-name="period" unicode="." horiz-adv-x="278" 
d="M139 -15q-36 0 -59.5 21.5t-23.5 54.5q0 35 23.5 56.5t59.5 21.5t59.5 -21.5t23.5 -56.5q0 -33 -23.5 -54.5t-59.5 -21.5z" />
    <glyph glyph-name="slash" unicode="/" horiz-adv-x="538" 
d="M28 1l338 699h144l-338 -699h-144z" />
    <glyph glyph-name="zero" unicode="0" horiz-adv-x="652" 
d="M327 712q111 0 185.5 -65.5t74.5 -175.5v-244q0 -111 -74.5 -176t-185.5 -65q-112 0 -187 65t-75 176v244q0 110 75 175.5t187 65.5zM327 117q47 0 79.5 24.5t37.5 69.5q3 25 3 56v163q0 30 -3 57q-5 46 -37 70t-80 24q-50 0 -81.5 -24t-36.5 -70q-3 -27 -3 -57v-163
q0 -31 3 -56q5 -45 37 -69.5t81 -24.5z" />
    <glyph glyph-name="one" unicode="1" horiz-adv-x="457" 
d="M166 583h-104v117h247v-585h121v-115h-382v115h118v468z" />
    <glyph glyph-name="two" unicode="2" horiz-adv-x="544" 
d="M344 496q2 41 -21 64t-56 23q-36 0 -61.5 -21t-25.5 -68h-128q0 103 58 160t161 57q97 0 153 -57t52.5 -147.5t-71.5 -180.5q-5 -6 -24 -34.5l-48.5 -69.5l-68.5 -92h228v-130h-449v32l248 348q50 69 53 116z" />
    <glyph glyph-name="three" unicode="3" horiz-adv-x="578" 
d="M43 205h131q3 -43 30.5 -66t73.5 -23q48 0 77 30t30 79q-1 53 -32 82.5t-74.5 32.5t-90.5 -3v21l129 222h-247v119h445v-21l-152 -244q80 -14 121.5 -72t41.5 -136q0 -98 -66.5 -168.5t-179.5 -70.5q-100 0 -166.5 59.5t-70.5 158.5z" />
    <glyph glyph-name="four" unicode="4" horiz-adv-x="601" 
d="M486 139v-139h-135v139h-327v65l307 496h155v-440h65v-121h-65zM367 533h-1l-173 -278h167v133z" />
    <glyph glyph-name="five" unicode="5" horiz-adv-x="582" 
d="M195 576v-120q36 6 76 6q265 -5 265 -236q0 -98 -66 -168.5t-179 -70.5q-100 0 -166 59t-72 157h131q4 -42 31.5 -63.5t72.5 -21.5q52 0 78 30t26 77q0 27 -6.5 48.5t-22 35t-29.5 23t-40.5 13.5l-42.5 6.5t-48 0.5t-45.5 -3t-46.5 -5t-39 -5v361h429v-124h-306z" />
    <glyph glyph-name="six" unicode="6" horiz-adv-x="607" 
d="M293 705h164l-160 -263q17 9 36 9q107 4 173.5 -57.5t66.5 -168.5q0 -115 -73.5 -175.5t-191.5 -60.5q-117 0 -190 60.5t-73 175.5q0 78 45 150zM308 116q55 0 85.5 28t30.5 81q0 54 -31 83t-85 29q-55 0 -86 -29.5t-31 -82.5t31 -81t86 -28z" />
    <glyph glyph-name="seven" unicode="7" horiz-adv-x="536" 
d="M530 700v-21l-298 -679h-151l248 570h-295v130h496z" />
    <glyph glyph-name="eight" unicode="8" horiz-adv-x="622" 
d="M468 396q105 -63 107 -179q2 -95 -69.5 -161.5t-193.5 -66.5t-193.5 66t-71.5 160q0 57 28.5 104.5t79.5 77.5q-62 52 -63 124q-2 79 57.5 134.5t162.5 55.5q102 0 161 -54.5t59 -132.5q0 -75 -64 -128zM312 440q39 0 64 22.5t25 55.5q0 32 -25 54t-64 22q-40 0 -65 -22
t-25 -55t25.5 -55t64.5 -22zM312 113q52 0 85 31t33 78q0 48 -32.5 79t-85.5 31t-85.5 -32.5t-32.5 -80.5q0 -46 32.5 -76t85.5 -30z" />
    <glyph glyph-name="nine" unicode="9" horiz-adv-x="606" 
d="M312 0h-163l167 264q-20 -9 -39 -9q-110 -4 -177 56.5t-67 169.5q0 115 73.5 175.5t191.5 60.5q117 0 190.5 -60.5t73.5 -175.5q-1 -80 -48 -154zM298 590q-55 0 -86 -28t-31 -81t31 -82.5t86 -29.5q54 0 85 29t31 83q0 53 -30.5 81t-85.5 28z" />
    <glyph glyph-name="colon" unicode=":" horiz-adv-x="288" 
d="M144 -15q-36 0 -59.5 21.5t-23.5 54.5q0 35 23.5 56.5t59.5 21.5t59.5 -21.5t23.5 -56.5q0 -33 -23.5 -54.5t-59.5 -21.5zM144 296q-36 0 -59.5 21.5t-23.5 54.5q0 35 23.5 56.5t59.5 21.5t59.5 -21.5t23.5 -56.5q0 -33 -23.5 -54.5t-59.5 -21.5z" />
    <glyph glyph-name="semicolon" unicode=";" horiz-adv-x="289" 
d="M144 297q-35 0 -59 21t-24 54q0 34 24 55.5t59 21.5q36 0 59 -21t23 -56q0 -33 -23 -54t-59 -21zM226 59q0 -13 -7 -32q-17 -47 -40 -125h-83l24 84q-58 19 -58 74q0 35 23 56t59 21q28 0 49 -14t29 -38q4 -9 4 -26z" />
    <glyph glyph-name="less" unicode="&#x3c;" 
d="M43 293v103l429 182v-123l-268 -111l268 -112v-123z" />
    <glyph glyph-name="equal" unicode="=" horiz-adv-x="549" 
d="M68 379v116h413v-116h-413zM68 189v116h413v-116h-413z" />
    <glyph glyph-name="greater" unicode="&#x3e;" 
d="M508 396v-103l-429 -184v123l268 112l-268 111v123z" />
    <glyph glyph-name="question" unicode="?" horiz-adv-x="517" 
d="M319 187h-132q0 54 16 96.5t36 65l45.5 53.5t37.5 58q21 40 1.5 79.5t-72.5 39.5q-36 0 -63 -20.5t-31 -57.5h-123q0 101 61.5 155.5t156.5 56.5t159.5 -52t64.5 -154q0 -35 -16 -67.5t-39 -59.5l-46.5 -54.5t-39.5 -63.5t-16 -75zM255 -14q-36 0 -59.5 21.5t-23.5 54.5
q0 35 23.5 56t59.5 21t58.5 -21t22.5 -56q0 -34 -23 -55t-58 -21z" />
    <glyph glyph-name="at" unicode="@" horiz-adv-x="931" 
d="M572 71l1 11q-23 -43 -64 -67.5t-90 -26.5q-105 0 -157.5 73.5t-42.5 180.5q12 123 95.5 190t204.5 65q47 0 105 -22t94 -52l-26 -282q-6 -61 22 -61q35 0 61 49.5t32 115.5q26 150 -57.5 241.5t-245.5 91.5q-151 0 -254.5 -93t-117.5 -243q-9 -96 21 -170.5t88 -112.5
t138 -44.5t171 32.5l-8 -81q-86 -27 -163.5 -28.5t-141.5 28.5t-109.5 80t-67 127t-12.5 169q16 185 147 303t317 118q195 0 296 -113t83 -305q-12 -120 -79 -193t-152 -73q-44 0 -67.5 25t-20.5 67zM565 246l10 112q-37 22 -83 24q-53 -2 -90 -39.5t-43 -100.5
q-4 -56 18.5 -93t75.5 -35q96 0 112 132z" />
    <glyph glyph-name="A" unicode="A" horiz-adv-x="700" 
d="M495 116h-291l-54 -116h-156v20l322 686h69l320 -686v-20h-155zM350 473l-97 -231h194z" />
    <glyph glyph-name="B" unicode="B" horiz-adv-x="672" 
d="M599 492q0 -39 -18.5 -74t-51.5 -55q100 -42 100 -156q0 -94 -59 -150.5t-163 -56.5h-325v699h297q98 0 159 -55.5t61 -151.5zM368 571h-137v-159h137q38 0 60.5 20t23.5 55q1 38 -22 61t-62 23zM390 290h-159v-160h166q38 0 60 20.5t24 56.5q2 46 -31 69q-20 14 -60 14z
" />
    <glyph glyph-name="C" unicode="C" horiz-adv-x="761" 
d="M42 349q0 167 106 263.5t252 94.5q116 0 208 -63.5t115 -185.5h-145q-45 114 -178 114q-93 0 -150 -61.5t-57 -161.5q0 -92 57 -156t149 -64q67 0 116 32t66 94h144q-21 -130 -113 -196t-212 -66q-70 0 -134 23.5t-114 67t-80 112.5t-30 153z" />
    <glyph glyph-name="D" unicode="D" horiz-adv-x="728" 
d="M82 699h260q159 0 251 -102.5t92 -244.5q2 -143 -90 -247.5t-253 -104.5h-260v699zM231 135h109q92 0 144 63t52 153q0 89 -52.5 151t-143.5 62h-109v-429z" />
    <glyph glyph-name="E" unicode="E" horiz-adv-x="572" 
d="M510 700v-131h-278v-142h260v-131h-260v-160h286v-136h-437v700h429z" />
    <glyph glyph-name="F" unicode="F" horiz-adv-x="545" 
d="M481 380v-131h-251v-249h-149v700h429v-131h-280v-189h251z" />
    <glyph glyph-name="G" unicode="G" horiz-adv-x="770" 
d="M42 350q0 111 51.5 194.5t131.5 124t174 40.5q113 0 201.5 -57.5t116.5 -172.5h-147q-49 95 -171 95q-95 0 -150 -63.5t-55 -160.5q0 -100 56 -161.5t149 -61.5q78 0 126.5 29.5t69.5 104.5h-191v126h328q7 -118 -21 -196q-38 -101 -121.5 -150.5t-190.5 -49.5
q-147 0 -252 96.5t-105 262.5z" />
    <glyph glyph-name="H" unicode="H" horiz-adv-x="729" 
d="M648 0h-150v296h-268v-296h-149v700h149v-267h268v267h150v-700z" />
    <glyph glyph-name="I" unicode="I" horiz-adv-x="438" 
d="M294 119h99v-119h-348v119h99v465h-91v116h332v-116h-91v-465z" />
    <glyph glyph-name="J" unicode="J" horiz-adv-x="630" 
d="M555 700v-468q0 -110 -77.5 -176t-190.5 -66q-112 0 -186.5 65.5t-74.5 176.5v85h139v-82q0 -55 33.5 -83.5t88.5 -28.5q54 0 86 29t32 83v336h-125v129h275z" />
    <glyph glyph-name="K" unicode="K" horiz-adv-x="703" 
d="M230 700v-289q95 0 121 13q25 14 39 47.5t31 104.5q45 163 239 123v-102q-43 4 -66.5 -11t-34.5 -54q-35 -133 -88 -186l214 -324v-22h-169l-176 288q-27 -7 -110 -7v-281h-149v700h149z" />
    <glyph glyph-name="L" unicode="L" horiz-adv-x="539" 
d="M231 700v-566h292v-134h-442v700h150z" />
    <glyph glyph-name="M" unicode="M" horiz-adv-x="833" 
d="M417 369l281 333h54v-702h-150v379l-176 -220h-19l-176 220v-379h-150v702h55z" />
    <glyph glyph-name="N" unicode="N" horiz-adv-x="752" 
d="M626 -2l-396 402v-400h-149v703h47l393 -400v397h150v-702h-45z" />
    <glyph glyph-name="O" unicode="O" horiz-adv-x="799" 
d="M757 350q0 -160 -100 -261t-259 -101q-149 0 -252.5 96.5t-103.5 265.5q0 113 51.5 197t132 124t175.5 40q70 0 133 -24t113.5 -68t80 -114t29.5 -155zM193 350q0 -109 59 -167t148 -58q88 0 148 58t60 167q0 106 -60 164.5t-147 58.5q-88 0 -148 -58.5t-60 -164.5z" />
    <glyph glyph-name="P" unicode="P" horiz-adv-x="655" 
d="M232 1h-150v700h299q116 0 182.5 -75t66.5 -180q0 -103 -67 -175t-182 -72h-149v-198zM229 327h152q47 0 76.5 35.5t29.5 87.5q0 51 -29 85.5t-77 34.5h-152v-243z" />
    <glyph glyph-name="Q" unicode="Q" horiz-adv-x="800" 
d="M766 15v-22h-136l-33 54q-92 -57 -203 -57q-147 2 -249.5 100.5t-102.5 259.5q0 162 99.5 263t258.5 101q94 0 174 -41t131.5 -125.5t51.5 -197.5q0 -128 -63 -216zM193 350q0 -101 60.5 -160.5t146.5 -59.5t146.5 59.5t60.5 160.5q0 102 -60.5 161.5t-147.5 59.5
q-85 0 -145.5 -60t-60.5 -161z" />
    <glyph glyph-name="R" unicode="R" horiz-adv-x="691" 
d="M503 255l158 -233v-21h-160l-144 231h-125v-231h-150v700h299q115 0 181 -70.5t66 -169.5q0 -67 -33 -122t-92 -84zM230 355h150q46 0 75 31.5t28 77.5q0 45 -28 75.5t-75 30.5h-150v-215z" />
    <glyph glyph-name="S" unicode="S" horiz-adv-x="648" 
d="M42 207h143q2 -45 43.5 -68t97.5 -23q134 0 134 88q0 23 -10.5 40t-23.5 25.5t-37 14.5t-39.5 8t-42.5 4q-255 22 -255 199q0 109 76 164.5t190 55.5q52 0 97.5 -11.5t84.5 -35.5t62 -66.5t23 -98.5h-140q-6 40 -42 60.5t-85 20.5q-48 0 -83.5 -23.5t-35.5 -62.5
q0 -42 34.5 -59.5t99.5 -24.5q63 -6 106.5 -16t85 -32t62.5 -62.5t21 -99.5t-24 -103t-65.5 -68t-89 -35.5t-102.5 -12.5q-116 0 -200.5 57.5t-84.5 164.5z" />
    <glyph glyph-name="T" unicode="T" horiz-adv-x="554" 
d="M205 570h-187v130h518v-130h-186v-570h-145v570z" />
    <glyph glyph-name="U" unicode="U" horiz-adv-x="707" 
d="M355 -9q-117 0 -198.5 64.5t-81.5 177.5v467h150v-464q0 -54 37.5 -83.5t92.5 -29.5t92 29.5t37 83.5v464h148v-467q0 -113 -80 -177.5t-197 -64.5z" />
    <glyph glyph-name="V" unicode="V" horiz-adv-x="672" 
d="M336 250h3l74 224l94 226h159v-22l-298 -684h-62l-301 684v22h159l94 -225z" />
    <glyph glyph-name="W" unicode="W" horiz-adv-x="970" 
d="M454 688h61l151 -434h3l59 233l70 213h157v-22l-241 -684h-89l-139 378h-3l-135 -378h-92l-242 684v22h157l71 -214l63 -232h3z" />
    <glyph glyph-name="X" unicode="X" horiz-adv-x="671" 
d="M334 459h4l68 132l69 109h162v-22l-211 -308l235 -349v-21h-157l-91 135l-75 131h-5l-77 -135l-87 -131h-159v21l236 349l-212 308v22h163l73 -115z" />
    <glyph glyph-name="Y" unicode="Y" horiz-adv-x="635" 
d="M316 417h5l69 139l84 144h159v-22l-240 -398v-280h-150v280l-241 398v22h161l87 -149z" />
    <glyph glyph-name="Z" unicode="Z" horiz-adv-x="605" 
d="M566 700v-22l-317 -544h320v-134h-547v21l321 548h-293v131h516z" />
    <glyph glyph-name="bracketleft" unicode="[" horiz-adv-x="334" 
d="M294 770v-113h-92v-723h92v-125h-222v961h222z" />
    <glyph glyph-name="backslash" unicode="\" horiz-adv-x="538" 
d="M172 700l338 -699h-144l-338 699h144z" />
    <glyph glyph-name="bracketright" unicode="]" horiz-adv-x="334" 
d="M40 657v113h222v-961h-222v125h92v723h-92z" />
    <glyph glyph-name="asciicircum" unicode="^" horiz-adv-x="561" 
d="M230 707h100l185 -305h-122l-114 186l-110 -186h-122z" />
    <glyph glyph-name="underscore" unicode="_" horiz-adv-x="616" 
d="M60 -132v120h496v-120h-496z" />
    <glyph glyph-name="grave" unicode="`" horiz-adv-x="336" 
d="M268 566v-13h-114l-89 110v12l128 47z" />
    <glyph glyph-name="a" unicode="a" horiz-adv-x="554" 
d="M374 74q-20 -42 -67.5 -62.5t-99.5 -20.5q-70 0 -121.5 41.5t-53.5 109.5q-4 85 49 129.5t138 44.5q79 0 128 -31v33q0 69 -120 69q-87 0 -139 -29l-18 100q76 36 181 36q230 0 230 -180v-174q0 -20 0.5 -28t4.5 -18.5t13.5 -13.5t26.5 -2l1 -78q-38 -7 -72 -7
t-57.5 20.5t-23.5 60.5zM344 173v25q-41 28 -100 28q-35 -2 -57 -21.5t-18 -53.5q2 -25 21 -38.5t45 -13.5q39 0 72.5 19.5t36.5 54.5z" />
    <glyph glyph-name="b" unicode="b" horiz-adv-x="583" 
d="M63 22v708h139v-266q56 23 112 23q101 1 166 -69.5t65 -183.5q0 -68 -22.5 -118t-62 -78t-87.5 -41t-106 -13q-102 1 -204 38zM199 349v-240q50 -13 84 -12q122 2 122 137q0 63 -32.5 100.5t-82.5 39.5q-44 2 -91 -25z" />
    <glyph glyph-name="c" unicode="c" horiz-adv-x="564" 
d="M531 308h-133q-12 33 -39.5 50t-61.5 16q-49 -1 -85.5 -35.5t-36.5 -95.5q0 -62 36.5 -97.5t85.5 -35.5q35 0 63 19t40 56h133q-14 -92 -82.5 -143t-157.5 -52q-104 -1 -180.5 66t-76.5 187q0 119 77 186.5t181 67.5q87 0 154 -49.5t83 -139.5z" />
    <glyph glyph-name="d" unicode="d" horiz-adv-x="604" 
d="M405 68v13q-20 -44 -58.5 -68t-86.5 -25q-105 -2 -164 71.5t-59 181.5q0 70 29.5 127t78 87t109.5 36t124 -27v267h140v-571v-16.5v-15t1 -11.5t2.5 -11l5 -7t8 -6t12 -2.5t16.5 -0.5l1 -91q-37 -7 -71.5 -8t-60.5 18.5t-27 58.5zM382 222v124q-75 45 -140.5 14.5
t-65.5 -119.5q0 -56 26.5 -92.5t79.5 -36.5q44 0 72 32t28 78z" />
    <glyph glyph-name="e" unicode="e" horiz-adv-x="550" 
d="M289 494q129 0 185.5 -78t28.5 -204h-327q7 -100 128 -109q42 -2 64 1q68 8 115 29l16 -102q-91 -43 -187 -43q-123 -2 -199.5 68t-76.5 191q2 119 75.5 183t177.5 64zM289 387q-42 0 -73 -22.5t-39 -62.5h212q2 44 -27 64.5t-73 20.5z" />
    <glyph glyph-name="f" unicode="f" horiz-adv-x="411" 
d="M110 0v382h-89v99h91l1 61q0 71 26 116.5t70.5 62t98 15t115.5 -20.5l-14 -104q-29 11 -56 14.5t-52 -1.5t-40 -26.5t-15 -58.5v-58h152v-99h-152v-382h-136z" />
    <glyph glyph-name="g" unicode="g" horiz-adv-x="580" 
d="M382 -29v40q-139 -66 -241.5 1t-102.5 222q0 130 77 192t197 60q101 0 205 -44v-466q0 -94 -42 -154.5t-107.5 -79.5t-143.5 -8.5t-152 50.5l18 108q36 -19 73.5 -32.5t77.5 -17.5t70.5 5.5t50.5 41t20 82.5zM380 126v235q-39 10 -82 10q-117 0 -121 -136q-1 -62 29 -98
t75.5 -36.5t98.5 25.5z" />
    <glyph glyph-name="h" unicode="h" horiz-adv-x="598" 
d="M539 0h-141v279q2 49 -23 76t-66 27q-43 1 -73 -28t-30 -78v-276h-141v730h141v-300q45 63 143 63q99 0 144.5 -57.5t45.5 -156.5v-279z" />
    <glyph glyph-name="i" unicode="i" horiz-adv-x="272" 
d="M54 621q0 39 25 60t59 20q32 -1 56 -22t24 -58q0 -38 -23.5 -59t-55.5 -22q-34 -1 -59.5 20.5t-25.5 60.5zM206 476v-476h-140v476h140z" />
    <glyph glyph-name="j" unicode="j" horiz-adv-x="270" 
d="M66 480h138l-1 -537q0 -127 -61 -171.5t-178 -23.5l4 104q58 -8 78 13t20 80v535zM52 621q0 38 25 59.5t58 20.5t57 -22t24 -58t-22.5 -58t-54.5 -23q-35 -2 -61 19.5t-26 61.5z" />
    <glyph glyph-name="k" unicode="k" horiz-adv-x="560" 
d="M204 305h34q77 0 108 47.5t31 130.5h132q2 -84 -23 -143.5t-92 -94.5l138 -230v-14h-141l-115 200q-18 -6 -40 -6h-32v-194h-139v730h139v-426z" />
    <glyph glyph-name="l" unicode="l" horiz-adv-x="309" 
d="M61 732h138v-549q0 -54 22 -70.5t74 -7.5l5 -105q-119 -21 -179 19t-60 164v549z" />
    <glyph glyph-name="m" unicode="m" horiz-adv-x="904" 
d="M844 0h-141v279q2 47 -19.5 75t-58.5 27q-38 -1 -63 -28.5t-26 -74.5v-278h-138v278q1 48 -21.5 76t-61.5 27q-40 -1 -67.5 -30t-27.5 -76v-275h-139v335q0 38 -7.5 50.5t-38.5 12.5v85q27 8 54 10.5t56 -1t46.5 -23t17.5 -53.5q18 39 61.5 58t93.5 19q61 0 95 -21
t52 -67q21 42 67.5 65t99.5 23q95 0 132 -57.5t34 -156.5v-279z" />
    <glyph glyph-name="n" unicode="n" horiz-adv-x="614" 
d="M555 0h-141v279q2 47 -24.5 75t-66.5 28q-42 0 -72 -28.5t-30 -77.5v-276h-140v333q0 22 -0.5 31t-5 18t-14 11.5t-26.5 2.5v87q176 30 176 -65q19 39 62.5 57t91.5 18q97 0 143.5 -59t46.5 -155v-279z" />
    <glyph glyph-name="o" unicode="o" horiz-adv-x="583" 
d="M547 243q0 -120 -75.5 -186.5t-178.5 -66.5q-104 0 -180.5 66.5t-76.5 186.5q0 118 75 185t178 68q105 1 181.5 -66t76.5 -187zM175 243q0 -62 34 -96.5t81 -34.5q48 -1 83 34t35 97q0 61 -34 95.5t-81 34.5q-48 0 -83 -34t-35 -96z" />
    <glyph glyph-name="p" unicode="p" horiz-adv-x="601" 
d="M195 408q19 43 61 65.5t91 22.5q101 0 159 -73.5t58 -177.5q0 -70 -30 -127.5t-78 -88t-109.5 -36.5t-124.5 28v-268h-140v566v14.5v14t-0.5 11.5t-1.5 10.5t-3 8t-5.5 7.5l-8 4.5t-11.5 2.5h-15l-1 93q28 6 53 6.5t50.5 -5t40.5 -25.5t15 -53zM218 263v-126
q52 -27 97.5 -25.5t76.5 38t31 95.5q0 52 -27.5 90t-77.5 38q-45 -1 -72 -33t-28 -77z" />
    <glyph glyph-name="q" unicode="q" horiz-adv-x="582" 
d="M519 457v-709h-140v268q-56 -26 -113 -26q-98 0 -163.5 71.5t-65.5 182.5q0 132 77 194t197 61q89 0 208 -42zM382 133v240q-27 9 -69 11q-61 2 -98 -33t-37 -107q0 -62 34 -98t85 -37q41 0 85 24z" />
    <glyph glyph-name="r" unicode="r" horiz-adv-x="463" 
d="M216 415q14 40 51.5 61t83.5 21q60 2 103 -31l-31 -117q-42 28 -90 26q-48 0 -80.5 -30.5t-32.5 -83.5v-261h-137v340q0 35 -9 49.5t-39 9.5v86q38 6 76.5 8t69.5 -18t35 -60z" />
    <glyph glyph-name="s" unicode="s" horiz-adv-x="511" 
d="M35 147h140q1 -28 24 -43t55 -14q82 0 83 55q0 14 -5 23t-17.5 14t-20.5 6.5t-26 4.5q-112 15 -153 35q-70 34 -70 108q0 78 57 118.5t150 40.5q92 0 152.5 -40.5t56.5 -113.5h-132q-1 25 -22 37t-53 12q-31 0 -52.5 -13.5t-21.5 -36.5q0 -17 12 -27t24.5 -12.5
t32.5 -4.5q111 -13 150 -29q80 -34 78 -122q-1 -55 -33.5 -91.5t-79 -51.5t-104.5 -15q-219 0 -225 160z" />
    <glyph glyph-name="t" unicode="t" horiz-adv-x="450" 
d="M249 631v-150h157v-105h-157v-187q0 -47 24.5 -70.5t60.5 -21t78 15.5l13 -106q-65 -18 -119.5 -19t-99 16.5t-69.5 63.5t-25 118v190l-91 9v96h101l15 150h112z" />
    <glyph glyph-name="u" unicode="u" horiz-adv-x="605" 
d="M383 482h140v-337q0 -37 7.5 -48.5t37.5 -9.5l1 -87q-29 -7 -56.5 -9t-56 2.5t-46 24t-17.5 52.5q-19 -39 -61.5 -58t-92.5 -19q-179 0 -179 213v276h141v-276q-2 -49 21.5 -76t61.5 -27q43 -1 71 28.5t28 77.5v273z" />
    <glyph glyph-name="v" unicode="v" horiz-adv-x="548" 
d="M303 -7h-58l-237 473v16h150l57 -131l58 -154h2l59 154l57 131h149v-16z" />
    <glyph glyph-name="w" unicode="w" horiz-adv-x="769" 
d="M272 -7h-62l-198 473v16h149l51 -141l37 -110h2l108 240h53l109 -240h3l36 110l47 141h151v-16l-200 -473h-53l-60 118l-60 127l-58 -131z" />
    <glyph glyph-name="x" unicode="x" horiz-adv-x="526" 
d="M266 170h-3l-57 -96l-52 -74h-140v16l167 240l-143 211v15h134l43 -63l46 -81h3l45 82l42 62h143v-16l-148 -215l163 -235v-16h-135l-54 78z" />
    <glyph glyph-name="y" unicode="y" horiz-adv-x="559" 
d="M540 466l-204 -513q-20 -51 -38 -85t-43 -62.5t-54.5 -40t-70.5 -9.5t-93 21l15 97q60 -24 93 -5.5t55 80.5l18 50l-211 467v16h147l65 -163l63 -178h3l55 177l58 164h142v-16z" />
    <glyph glyph-name="z" unicode="z" horiz-adv-x="479" 
d="M441 482v-16l-210 -345h210v-121h-412v16l213 350h-198v116h397z" />
    <glyph glyph-name="braceleft" unicode="{" horiz-adv-x="330" 
d="M288 781v-100q-34 1 -51.5 -10.5t-17.5 -43.5v-195q0 -44 -19.5 -77t-56.5 -47q76 -26 76 -128v-209q0 -33 18 -43t51 -6v-112q-37 0 -57 1t-47 5.5t-41 14t-28 26.5t-20 44t-6 64l-1 203q0 34 -12.5 61.5t-42.5 27.5v103q55 3 55 84l1 188q0 43 11 71.5t26 44t45 23
t52.5 9t64.5 1.5z" />
    <glyph glyph-name="bar" unicode="|" horiz-adv-x="277" 
d="M75 709h127v-796h-127v796z" />
    <glyph glyph-name="braceright" unicode="}" horiz-adv-x="330" 
d="M42 681v100q42 0 64.5 -1.5t52.5 -9t45 -23t26 -44t11 -71.5l1 -188q0 -81 55 -84v-103q-30 0 -42.5 -27.5t-12.5 -61.5l-1 -203q0 -37 -6 -64t-20 -44t-28 -26.5t-41 -14t-47 -5.5t-57 -1v112q33 -4 51 6t18 43v209q0 104 72 128q-72 27 -72 124v195q0 32 -17.5 43.5
t-51.5 10.5z" />
    <glyph glyph-name="asciitilde" unicode="~" horiz-adv-x="622" 
d="M129 264l-84 45q27 93 107 122t164 -19q69 -36 96 -38q51 -6 76 52l92 -44q-71 -189 -262 -104q-5 2 -29 12.5t-32 13.5t-28 9t-30 4t-24.5 -6t-25.5 -16t-20 -31z" />
    <glyph glyph-name="exclamdown" unicode="&#xa1;" horiz-adv-x="281" 
d="M140 489q34 0 58 -21.5t24 -54.5q0 -34 -23.5 -55t-58.5 -21q-36 0 -59 20.5t-23 55.5q0 33 23 54.5t59 21.5zM211 280l12 -506h-163l9 506h142z" />
    <glyph glyph-name="cent" unicode="&#xa2;" horiz-adv-x="598" 
d="M549 306l-130 -1q-13 31 -40 47l-83 -240q40 -6 75.5 13.5t49.5 61.5l132 -1q-11 -74 -58.5 -123t-110 -65t-128.5 -4l-25 -74h-63l31 91q-65 28 -104.5 87t-39.5 144q0 92 48.5 155t119 85.5t143.5 8.5l26 74h59l-31 -91q108 -48 129 -168zM244 136l80 236
q-51 2 -91 -32.5t-40 -97.5q0 -66 51 -106z" />
    <glyph glyph-name="sterling" unicode="&#xa3;" horiz-adv-x="671" 
d="M48 304v94h70q-13 80 3 141t56 96t91.5 53t113.5 19q105 1 210 -47l-45 -107q-86 39 -160 35q-70 -4 -106 -50t-19 -140h217v-94h-204q8 -66 -2 -111q-13 -46 -34 -73q22 12 52 13.5t55 -3.5l56.5 -11t49.5 -6q33 0 47.5 19t11.5 72h116q14 -98 -20.5 -155t-125.5 -57
q-23 0 -68 8.5l-81 15.5t-75 4.5t-59 -21.5h-144v13q47 43 66.5 87t20.5 100q1 45 -10 105h-83z" />
    <glyph glyph-name="currency" unicode="&#xa4;" horiz-adv-x="568" 
d="M141 546l48 -47q43 23 95 23q51 0 95 -23l47 47l71 -69l-49 -48q23 -38 23 -92q0 -52 -23 -93l49 -48l-71 -68l-47 47q-43 -23 -95 -23t-95 23l-48 -47l-70 68l48 49q-21 38 -21 92q0 53 21 92l-48 48zM207 337q0 -40 22.5 -61t54.5 -21t54.5 21t22.5 61t-22.5 61.5
t-54.5 21.5t-54.5 -21.5t-22.5 -61.5z" />
    <glyph glyph-name="yen" unicode="&#xa5;" horiz-adv-x="623" 
d="M384 0h-146v119h-133v82h133v50h-133v82h105l-176 346v21h160l119 -278l117 278h159v-21l-177 -346h106v-82h-134v-50h134v-82h-134v-119z" />
    <glyph glyph-name="brokenbar" unicode="&#xa6;" horiz-adv-x="279" 
d="M76 709h127v-322h-127v322zM76 305h127v-326h-127v326z" />
    <glyph glyph-name="section" unicode="&#xa7;" horiz-adv-x="647" 
d="M407 204q57 27 57 78q0 72 -159 83q-27 1 -51 6q-61 -27 -60 -76q2 -37 32.5 -56t90.5 -25q81 -8 90 -10zM140 408q-78 41 -78 123q0 89 74.5 138t178.5 49q102 0 179 -48t77 -136h-135q-2 37 -36 54t-82 17q-45 0 -80 -17t-35 -55q0 -18 8.5 -30t27.5 -19t38 -10t52 -7
q49 -4 82.5 -10t71 -18.5t60 -30.5t37.5 -49t15 -72q-1 -76 -69 -125q69 -42 69 -128q0 -59 -41 -102t-100 -62t-128 -21q-71 0 -131.5 19t-102 63t-41.5 106q24 0 69 0.5t68 0.5q2 -38 43.5 -58.5t92.5 -18.5q49 0 88.5 19t39.5 54q0 12 -3 22t-10.5 17.5t-14 13t-20 9.5
t-20.5 6.5t-24 5t-23 3l-24.5 2t-20.5 1.5q-227 16 -231 167q0 80 79 127z" />
    <glyph glyph-name="dieresis" unicode="&#xa8;" horiz-adv-x="596" 
d="M419 568q-34 0 -56.5 20t-22.5 52t22.5 52t56.5 20t56.5 -20t22.5 -52t-22.5 -52t-56.5 -20zM153 568q-33 0 -56 20t-23 52t23 52t56 20q34 0 57 -20t23 -52t-23 -52t-57 -20z" />
    <glyph glyph-name="copyright" unicode="&#xa9;" horiz-adv-x="787" 
d="M737 347q0 -83 -29.5 -150.5t-78 -109t-110 -64t-126 -23t-126 22t-110 64t-78 109t-29.5 151.5q0 83 29.5 150.5t78 109t110 64t126 22.5t126 -22.5t110 -64t78 -109t29.5 -150.5zM547 387l-81 -1q-12 35 -46.5 43.5t-64.5 -14.5t-30 -69q0 -42 27.5 -66.5t62 -17
t52.5 48.5l82 -1q-7 -43 -33 -74t-60.5 -43.5t-73 -9.5t-71 21.5t-53.5 55.5t-21 86t21 86t53 55.5t70.5 22.5t72.5 -8t60 -42t33 -73zM151 347q0 -82 36 -142.5t90 -87.5t116.5 -27t116.5 27t90 87.5t36 142.5t-36 142.5t-90 87.5t-116.5 27t-116.5 -27t-90 -87.5
t-36 -142.5z" />
    <glyph glyph-name="ordfeminine" unicode="&#xaa;" horiz-adv-x="501" 
d="M312 391v10q-30 -56 -120 -56q-54 0 -89.5 26t-41.5 81q-6 60 37 94.5t105 34.5q54 -2 89 -23v15q0 30 -25.5 42.5t-59.5 12.5q-58 0 -97 -20l-14 71q57 27 128 27q76 0 125.5 -32t49.5 -104v-127q0 -14 1.5 -21t8.5 -11.5t22 -4.5v-57q-19 -4 -37 -5.5t-37.5 1
t-31.5 14.5t-13 32zM87 193v88h333v-88h-333zM292 474v19q-31 19 -72 19q-26 -2 -41 -16t-13 -34q1 -40 48 -40q28 0 51.5 13.5t26.5 38.5z" />
    <glyph glyph-name="guillemotleft" unicode="&#xab;" horiz-adv-x="527" 
d="M274 558l-98 -212l98 -209l-79 -33l-151 242l151 244zM472 558l-98 -212l98 -209l-79 -33l-151 242l151 244z" />
    <glyph glyph-name="logicalnot" unicode="&#xac;" horiz-adv-x="576" 
d="M64 276v120h439v-273h-112v153h-327z" />
    <glyph glyph-name="registered" unicode="&#xae;" horiz-adv-x="787" 
d="M737 350q0 -83 -29.5 -150.5t-78 -109t-110 -64t-126 -23t-126 22t-110 64t-78 109t-29.5 151.5q0 83 29.5 150.5t78 109t110 64t126 22.5t126 -22.5t110 -64t78 -109t29.5 -150.5zM479 307l69 -103v-15h-85l-65 106h-41v-106h-83v325h144q54 0 88 -30t34 -83
q0 -32 -16 -58.5t-45 -35.5zM357 442v-80h53q21 0 34 11.5t13 28.5q0 18 -12 29t-35 11h-53zM152 350q0 -62 21 -112.5t55 -81.5t77.5 -47.5t88.5 -16.5t88.5 16.5t77.5 47.5t55 81.5t21 112.5t-21 112.5t-55 81.5t-77.5 47.5t-88.5 16.5t-88.5 -16.5t-77.5 -47.5t-55 -81.5
t-21 -112.5z" />
    <glyph glyph-name="macron" unicode="&#xaf;" horiz-adv-x="499" 
d="M87 591v107h320v-107h-320z" />
    <glyph glyph-name="degree" unicode="&#xb0;" horiz-adv-x="447" 
d="M403 544q0 -46 -20 -82t-51.5 -55t-69.5 -27.5t-76.5 0t-70 27.5t-51.5 55t-20 82t20 82t51.5 55t70 27.5t76.5 0t69.5 -27.5t51.5 -55t20 -82zM146 544q0 -36 24 -57t52.5 -21t52.5 21t24 57t-24 57t-52.5 21t-52.5 -21t-24 -57z" />
    <glyph glyph-name="plusminus" unicode="&#xb1;" horiz-adv-x="514" 
d="M69 308v114h132v130h111v-130h134v-114h-134v-128h-111v128h-132zM68 16v113h378v-113h-378z" />
    <glyph glyph-name="twosuperior" unicode="&#xb2;" horiz-adv-x="417" 
d="M353 413v-93h-294v23l165 217q32 39 23.5 71t-48.5 32q-21 0 -33.5 -12.5t-13.5 -33.5h-88q-1 65 35 101.5t103 36.5q52 0 87.5 -22t49 -55.5t8 -72.5t-30.5 -72l-96 -120h133z" />
    <glyph glyph-name="threesuperior" unicode="&#xb3;" horiz-adv-x="401" 
d="M45 450h94q1 -21 17.5 -33.5t41.5 -12.5t41 16t16 39q0 31 -17 46t-41.5 14.5t-52.5 -1.5v14l73 130h-154v86h286v-15l-84 -145q93 -21 93 -128q0 -59 -42.5 -103.5t-116.5 -44.5q-65 0 -108.5 37.5t-45.5 100.5z" />
    <glyph glyph-name="acute" unicode="&#xb4;" horiz-adv-x="303" 
d="M164 553h-114v13l75 156l128 -47v-12z" />
    <glyph glyph-name="mu" unicode="&#xb5;" horiz-adv-x="585" 
d="M532 0h-134v68q-9 -34 -35 -53.5t-63 -19.5q-66 0 -96 53v-298h-133v733h133v-284q1 -47 26 -72.5t66 -26.5q42 0 72 29t30 77v277h134v-483z" />
    <glyph glyph-name="mu" unicode="&#x3bc;" horiz-adv-x="585" 
d="M532 0h-134v68q-9 -34 -35 -53.5t-63 -19.5q-66 0 -96 53v-298h-133v733h133v-284q1 -47 26 -72.5t66 -26.5q42 0 72 29t30 77v277h134v-483z" />
    <glyph glyph-name="paragraph" unicode="&#xb6;" horiz-adv-x="775" 
d="M688 -216h-139v788h-145v-788h-135v394q-56 1 -101.5 24.5t-74.5 60.5t-44.5 83.5t-16 95t15 95t45 82.5t79 58t110.5 22h406v-915z" />
    <glyph glyph-name="periodcentered" unicode="&#xb7;" horiz-adv-x="278" 
d="M139 282q-36 0 -59.5 21t-23.5 56t23.5 56t59.5 21t59.5 -21t23.5 -56t-23.5 -56t-59.5 -21z" />
    <glyph glyph-name="cedilla" unicode="&#xb8;" horiz-adv-x="392" 
d="M133 -78l25 92h103l-15 -61q47 -6 65 -42.5t5 -76.5q-15 -42 -58.5 -59.5t-92 -11.5t-85.5 30l8 77q24 -19 65.5 -21t52.5 22q7 24 -19 37.5t-54 13.5z" />
    <glyph glyph-name="onesuperior" unicode="&#xb9;" horiz-adv-x="358" 
d="M58 320v85h73v259h-64v84h169v-343h74v-85h-252z" />
    <glyph glyph-name="ordmasculine" unicode="&#xba;" horiz-adv-x="540" 
d="M478 533q0 -62 -31 -108t-78 -66.5t-101 -20.5t-101 20.5t-78 66.5t-31 108t31 107.5t78 66t101 20.5t101 -20.5t78 -66t31 -107.5zM175 534q0 -46 29 -72t64.5 -26t64.5 26t29 72q0 45 -29 71t-64.5 26t-64.5 -26t-29 -71zM64 160v110h415v-110h-415z" />
    <glyph glyph-name="guillemotright" unicode="&#xbb;" horiz-adv-x="527" 
d="M351 346l-98 212l79 32l151 -244l-151 -242l-79 33zM153 346l-98 212l79 32l151 -244l-151 -242l-79 33z" />
    <glyph glyph-name="onequarter" unicode="&#xbc;" horiz-adv-x="960" 
d="M791 164v70q2 12 3.5 44t2.5 44h-1l-95 -158h90zM883 80v-80h-99v80h-203v47l188 301h114v-260h40v-88h-40zM251 1l338 699h124l-338 -699h-124zM46 283v83h73v258h-63v83h167v-341h73v-83h-250z" />
    <glyph glyph-name="onehalf" unicode="&#xbd;" horiz-adv-x="974" 
d="M253 1l338 699h124l-338 -699h-124zM46 279v84h73v260h-63v84h168v-344h74v-84h-252zM932 93v-93h-294v23l165 217q32 39 23.5 71t-48.5 32q-21 0 -33.5 -12.5t-13.5 -33.5h-88q-1 65 35 101.5t103 36.5q52 0 87.5 -22t49 -55.5t8 -72.5t-30.5 -72l-96 -120h133z" />
    <glyph glyph-name="threequarters" unicode="&#xbe;" horiz-adv-x="981" 
d="M812 164v70q2 12 3 37t3 37h-1l-95 -144h90zM904 80v-80h-99v80h-203v47l188 301h114v-260h40v-88h-40zM272 1l338 699h124l-338 -699h-124zM37 407h94q1 -21 17.5 -33.5t41.5 -12.5t41 16t16 39q0 31 -17 46t-41.5 14.5t-52.5 -1.5v14l73 130h-154v86h286v-15l-84 -145
q93 -21 93 -128q0 -59 -42.5 -103.5t-116.5 -44.5q-65 0 -108.5 37.5t-45.5 100.5z" />
    <glyph glyph-name="questiondown" unicode="&#xbf;" horiz-adv-x="507" 
d="M192 296h132q0 -54 -16 -96.5t-36 -65l-45.5 -53.5t-37.5 -58q-21 -40 -1.5 -79.5t72.5 -39.5q36 0 63 20.5t31 57.5h123q0 -101 -61.5 -155.5t-156.5 -56.5t-159.5 52t-64.5 154q0 35 16 67.5t39.5 59.5l46.5 54.5t39 63.5t16 75zM256 497q36 0 59.5 -21.5t23.5 -54.5
q0 -35 -23.5 -56t-59.5 -21t-58.5 21t-22.5 56q0 34 23 55t58 21z" />
    <glyph glyph-name="Agrave" unicode="&#xc0;" horiz-adv-x="700" 
d="M495 116h-291l-54 -116h-156v20l322 686h69l320 -686v-20h-155zM350 473l-97 -231h194zM403 775v-13h-114l-89 110v12l128 47z" />
    <glyph glyph-name="Aacute" unicode="&#xc1;" horiz-adv-x="700" 
d="M495 116h-291l-54 -116h-156v20l322 686h69l320 -686v-20h-155zM350 473l-97 -231h194zM405 764h-114v13l75 156l128 -47v-12z" />
    <glyph glyph-name="Acircumflex" unicode="&#xc2;" horiz-adv-x="700" 
d="M495 116h-291l-54 -116h-156v20l322 686h69l320 -686v-20h-155zM350 473l-97 -231h194zM564 743h-133l-79 78l-78 -78h-135v14l143 148h140l142 -149v-13z" />
    <glyph glyph-name="Atilde" unicode="&#xc3;" horiz-adv-x="700" 
d="M495 116h-291l-54 -116h-156v20l322 686h69l320 -686v-20h-155zM350 473l-97 -231h194zM238 753l-75 36q62 155 198 86q81 -45 104 13l73 -34q-21 -69 -73 -95.5t-115 4.5q-27 14 -42.5 20t-36.5 1t-33 -31z" />
    <glyph glyph-name="Adieresis" unicode="&#xc4;" horiz-adv-x="700" 
d="M495 116h-291l-54 -116h-156v20l322 686h69l320 -686v-20h-155zM350 473l-97 -231h194zM483 741q-34 0 -56.5 20t-22.5 52t22.5 52t56.5 20t56.5 -20t22.5 -52t-22.5 -52t-56.5 -20zM217 741q-33 0 -56 20t-23 52t23 52t56 20q34 0 57 -20t23 -52t-23 -52t-57 -20z" />
    <glyph glyph-name="Aring" unicode="&#xc5;" horiz-adv-x="703" 
d="M296 808q0 -31 26.5 -43.5t53 0t26.5 43.5q0 30 -26.5 42.5t-53 0t-26.5 -42.5zM352 461l-97 -219h194zM497 116h-291l-54 -116h-156v20l314 669q-42 11 -68.5 41t-26.5 78q0 34 15 60.5t38.5 40.5t52 20.5t57 0t52 -20.5t38.5 -40.5t15 -60.5q0 -46 -24.5 -75.5
t-64.5 -41.5l313 -671v-20h-155z" />
    <glyph glyph-name="AE" unicode="&#xc6;" horiz-adv-x="824" 
d="M215 169l-76 -169h-144v22l326 676h440v-128h-243v-145h227v-124h-227v-173h254v-128h-382v169h-175zM394 570l-133 -279h129l6 279h-2z" />
    <glyph glyph-name="Ccedilla" unicode="&#xc7;" horiz-adv-x="762" 
d="M43 349q0 167 106 263.5t252 94.5q116 0 208 -63.5t115 -185.5h-145q-45 114 -178 114q-93 0 -150 -61.5t-57 -161.5q0 -92 57 -156t149 -64q67 0 116 32t66 94h144q-19 -112 -91.5 -177t-172.5 -80l-13 -53q48 -6 66 -38t5 -76q-10 -32 -38.5 -50.5t-63 -21t-70.5 5.5
t-64 25l8 77q22 -18 62 -18.5t50 23.5q7 25 -16 36t-51 11l20 77q-133 13 -223.5 107t-90.5 246z" />
    <glyph glyph-name="Egrave" unicode="&#xc8;" horiz-adv-x="572" 
d="M510 700v-131h-278v-142h260v-131h-260v-160h286v-136h-437v700h429zM369 775v-13h-114l-89 110v12l128 47z" />
    <glyph glyph-name="Eacute" unicode="&#xc9;" horiz-adv-x="572" 
d="M510 700v-131h-278v-142h260v-131h-260v-160h286v-136h-437v700h429zM347 768h-114v13l75 156l128 -47v-12z" />
    <glyph glyph-name="Ecircumflex" unicode="&#xca;" horiz-adv-x="572" 
d="M510 700v-131h-278v-142h260v-131h-260v-160h286v-136h-437v700h429zM505 763h-127l-76 76l-74 -76h-129v13l136 146h134l136 -147v-12z" />
    <glyph glyph-name="Edieresis" unicode="&#xcb;" horiz-adv-x="572" 
d="M510 700v-131h-278v-142h260v-131h-260v-160h286v-136h-437v700h429zM429 761q-34 0 -56.5 20t-22.5 52t22.5 52t56.5 20t56.5 -20t22.5 -52t-22.5 -52t-56.5 -20zM163 761q-33 0 -56 20t-23 52t23 52t56 20q34 0 57 -20t23 -52t-23 -52t-57 -20z" />
    <glyph glyph-name="Igrave" unicode="&#xcc;" horiz-adv-x="438" 
d="M294 119h99v-119h-348v119h99v465h-91v116h332v-116h-91v-465zM276 780v-13h-114l-89 110v12l128 47z" />
    <glyph glyph-name="Iacute" unicode="&#xcd;" horiz-adv-x="438" 
d="M294 119h99v-119h-348v119h99v465h-91v116h332v-116h-91v-465zM264 765h-114v13l75 156l128 -47v-12z" />
    <glyph glyph-name="Icircumflex" unicode="&#xce;" horiz-adv-x="438" 
d="M294 119h99v-119h-348v119h99v465h-91v116h332v-116h-91v-465zM427 768h-128l-75 76l-75 -76h-129v14l137 144h134l136 -145v-13z" />
    <glyph glyph-name="Idieresis" unicode="&#xcf;" horiz-adv-x="438" 
d="M294 119h99v-119h-348v119h99v465h-91v116h332v-116h-91v-465zM357 764q-34 0 -56.5 20t-22.5 52t22.5 52t56.5 20t56.5 -20t22.5 -52t-22.5 -52t-56.5 -20zM91 764q-33 0 -56 20t-23 52t23 52t56 20q34 0 57 -20t23 -52t-23 -52t-57 -20z" />
    <glyph glyph-name="Eth" unicode="&#xd0;" horiz-adv-x="737" 
d="M15 286v117h76v296h260q159 0 251 -102.5t92 -244.5q2 -143 -90 -247.5t-253 -104.5h-260v286h-76zM240 135h109q92 0 144 63t52 153q0 89 -52.5 151t-143.5 62h-109v-161h112v-117h-112v-151z" />
    <glyph glyph-name="Ntilde" unicode="&#xd1;" horiz-adv-x="752" 
d="M626 -2l-396 402v-400h-149v703h47l393 -400v397h150v-702h-45zM234 750l-75 36q62 155 198 86q81 -45 104 13l73 -34q-21 -69 -73 -95.5t-115 4.5q-27 14 -42.5 20t-36.5 1t-33 -31z" />
    <glyph glyph-name="Ograve" unicode="&#xd2;" horiz-adv-x="799" 
d="M757 350q0 -160 -100 -261t-259 -101q-149 0 -252.5 96.5t-103.5 265.5q0 113 51.5 197t132 124t175.5 40q70 0 133 -24t113.5 -68t80 -114t29.5 -155zM193 350q0 -109 59 -167t148 -58q88 0 148 58t60 167q0 106 -60 164.5t-147 58.5q-88 0 -148 -58.5t-60 -164.5z
M473 787v-12h-124l-97 106v12l139 46z" />
    <glyph glyph-name="Oacute" unicode="&#xd3;" horiz-adv-x="799" 
d="M757 350q0 -160 -100 -261t-259 -101q-149 0 -252.5 96.5t-103.5 265.5q0 113 51.5 197t132 124t175.5 40q70 0 133 -24t113.5 -68t80 -114t29.5 -155zM193 350q0 -109 59 -167t148 -58q88 0 148 58t60 167q0 106 -60 164.5t-147 58.5q-88 0 -148 -58.5t-60 -164.5z
M450 783h-125v13l82 154l139 -46v-12z" />
    <glyph glyph-name="Ocircumflex" unicode="&#xd4;" horiz-adv-x="799" 
d="M757 350q0 -160 -100 -261t-259 -101q-149 0 -252.5 96.5t-103.5 265.5q0 113 51.5 197t132 124t175.5 40q70 0 133 -24t113.5 -68t80 -114t29.5 -155zM193 350q0 -109 59 -167t148 -58q88 0 148 58t60 167q0 106 -60 164.5t-147 58.5q-88 0 -148 -58.5t-60 -164.5z
M606 763h-133l-79 78l-78 -78h-135v14l143 148h140l142 -149v-13z" />
    <glyph glyph-name="Otilde" unicode="&#xd5;" horiz-adv-x="799" 
d="M757 350q0 -160 -100 -261t-259 -101q-149 0 -252.5 96.5t-103.5 265.5q0 113 51.5 197t132 124t175.5 40q70 0 133 -24t113.5 -68t80 -114t29.5 -155zM193 350q0 -109 59 -167t148 -58q88 0 148 58t60 167q0 106 -60 164.5t-147 58.5q-88 0 -148 -58.5t-60 -164.5z
M287 772l-75 36q62 155 198 86q81 -45 104 13l73 -34q-21 -69 -73 -95.5t-115 4.5q-27 14 -42.5 20t-36.5 1t-33 -31z" />
    <glyph glyph-name="Odieresis" unicode="&#xd6;" horiz-adv-x="799" 
d="M757 350q0 -160 -100 -261t-259 -101q-149 0 -252.5 96.5t-103.5 265.5q0 113 51.5 197t132 124t175.5 40q70 0 133 -24t113.5 -68t80 -114t29.5 -155zM193 350q0 -109 59 -167t148 -58q88 0 148 58t60 167q0 106 -60 164.5t-147 58.5q-88 0 -148 -58.5t-60 -164.5z
M541 766q-34 0 -56.5 20t-22.5 52t22.5 52t56.5 20t56.5 -20t22.5 -52t-22.5 -52t-56.5 -20zM275 766q-33 0 -56 20t-23 52t23 52t56 20q34 0 57 -20t23 -52t-23 -52t-57 -20z" />
    <glyph glyph-name="multiply" unicode="&#xd7;" horiz-adv-x="477" 
d="M56 445l84 85l99 -98l98 96l83 -83l-97 -98l98 -98l-85 -84l-97 97l-97 -96l-85 84l97 97z" />
    <glyph glyph-name="Oslash" unicode="&#xd8;" horiz-adv-x="796" 
d="M712 742l-72 -120q114 -101 114 -272q0 -113 -51.5 -197.5t-131.5 -124.5t-174 -40q-65 0 -122 22l-42 -70h-70q-70 -1 -70 0v15l70 117q-121 101 -121 278q0 113 51.5 197t131.5 124t174 40q71 0 132 -24l40 69h141v-14zM554 492l-209 -352q24 -10 55 -10q85 0 145 60
t60 160q0 88 -51 142zM248 200l213 358q-31 11 -62 11q-86 0 -146.5 -59t-60.5 -160q0 -94 56 -150z" />
    <glyph glyph-name="Ugrave" unicode="&#xd9;" horiz-adv-x="707" 
d="M355 -9q-117 0 -198.5 64.5t-81.5 177.5v467h150v-464q0 -54 37.5 -83.5t92.5 -29.5t92 29.5t37 83.5v464h148v-467q0 -113 -80 -177.5t-197 -64.5zM422 778v-13h-114l-89 110v12l128 47z" />
    <glyph glyph-name="Uacute" unicode="&#xda;" horiz-adv-x="707" 
d="M355 -9q-117 0 -198.5 64.5t-81.5 177.5v467h150v-464q0 -54 37.5 -83.5t92.5 -29.5t92 29.5t37 83.5v464h148v-467q0 -113 -80 -177.5t-197 -64.5zM399 764h-114v13l75 156l128 -47v-12z" />
    <glyph glyph-name="Ucircumflex" unicode="&#xdb;" horiz-adv-x="707" 
d="M355 -9q-117 0 -198.5 64.5t-81.5 177.5v467h150v-464q0 -54 37.5 -83.5t92.5 -29.5t92 29.5t37 83.5v464h148v-467q0 -113 -80 -177.5t-197 -64.5zM568 773h-133l-79 78l-78 -78h-135v14l143 148h140l142 -149v-13z" />
    <glyph glyph-name="Udieresis" unicode="&#xdc;" horiz-adv-x="707" 
d="M355 -9q-117 0 -198.5 64.5t-81.5 177.5v467h150v-464q0 -54 37.5 -83.5t92.5 -29.5t92 29.5t37 83.5v464h148v-467q0 -113 -80 -177.5t-197 -64.5zM483 759q-34 0 -56.5 20t-22.5 52t22.5 52t56.5 20t56.5 -20t22.5 -52t-22.5 -52t-56.5 -20zM217 759q-33 0 -56 20
t-23 52t23 52t56 20q34 0 57 -20t23 -52t-23 -52t-57 -20z" />
    <glyph glyph-name="Yacute" unicode="&#xdd;" horiz-adv-x="635" 
d="M316 417h5l69 139l84 144h159v-22l-240 -398v-280h-150v280l-241 398v22h161l87 -149zM365 772h-114v13l75 156l128 -47v-12z" />
    <glyph glyph-name="Thorn" unicode="&#xde;" horiz-adv-x="662" 
d="M229 231h152q46 0 75.5 37.5t29.5 88.5t-28.5 87.5t-76.5 36.5h-152v-250zM81 0v700h150v-91h150q116 0 182.5 -75t66.5 -181q-2 -104 -68 -177t-181 -73h-150v-103h-150z" />
    <glyph glyph-name="germandbls" unicode="&#xdf;" horiz-adv-x="613" 
d="M65 0v494q0 300 488 170v-25l-117 -227q72 -11 105.5 -64t33.5 -124q0 -135 -83.5 -195.5t-210.5 -19.5v110q67 -19 110 14.5t43 90.5q0 62 -45 86.5t-111 15.5v26l106 224q-69 28 -124 3.5t-55 -94.5v-11.5t-0.5 -36.5t-0.5 -74v-141.5v-221.5h-139z" />
    <glyph glyph-name="agrave" unicode="&#xe0;" 
d="M374 74q-20 -42 -67.5 -62.5t-99.5 -20.5q-70 0 -121.5 41.5t-53.5 109.5q-4 85 49 129.5t138 44.5q79 0 128 -31v33q0 69 -120 69q-87 0 -139 -29l-18 100q76 36 181 36q230 0 230 -180v-174q0 -20 0.5 -28t4.5 -18.5t13.5 -13.5t26.5 -2l1 -78q-38 -7 -72 -7
t-57.5 20.5t-23.5 60.5zM344 173v25q-41 28 -100 28q-35 -2 -57 -21.5t-18 -53.5q2 -25 21 -38.5t45 -13.5q39 0 72.5 19.5t36.5 54.5zM335 582v-12h-105l-81 101v11l117 43z" />
    <glyph glyph-name="aacute" unicode="&#xe1;" 
d="M374 74q-20 -42 -67.5 -62.5t-99.5 -20.5q-70 0 -121.5 41.5t-53.5 109.5q-4 85 49 129.5t138 44.5q79 0 128 -31v33q0 69 -120 69q-87 0 -139 -29l-18 100q76 36 181 36q230 0 230 -180v-174q0 -20 0.5 -28t4.5 -18.5t13.5 -13.5t26.5 -2l1 -78q-38 -7 -72 -7
t-57.5 20.5t-23.5 60.5zM344 173v25q-41 28 -100 28q-35 -2 -57 -21.5t-18 -53.5q2 -25 21 -38.5t45 -13.5q39 0 72.5 19.5t36.5 54.5zM311 565h-107v13l71 146l120 -44v-11z" />
    <glyph glyph-name="acircumflex" unicode="&#xe2;" 
d="M374 74q-20 -42 -67.5 -62.5t-99.5 -20.5q-70 0 -121.5 41.5t-53.5 109.5q-4 85 49 129.5t138 44.5q79 0 128 -31v33q0 69 -120 69q-87 0 -139 -29l-18 100q76 36 181 36q230 0 230 -180v-174q0 -20 0.5 -28t4.5 -18.5t13.5 -13.5t26.5 -2l1 -78q-38 -7 -72 -7
t-57.5 20.5t-23.5 60.5zM344 173v25q-41 28 -100 28q-35 -2 -57 -21.5t-18 -53.5q2 -25 21 -38.5t45 -13.5q39 0 72.5 19.5t36.5 54.5zM441 565h-114l-67 72l-67 -72h-116v13l123 137h120l121 -138v-12z" />
    <glyph glyph-name="atilde" unicode="&#xe3;" 
d="M374 74q-20 -42 -67.5 -62.5t-99.5 -20.5q-70 0 -121.5 41.5t-53.5 109.5q-4 85 49 129.5t138 44.5q79 0 128 -31v33q0 69 -120 69q-87 0 -139 -29l-18 100q76 36 181 36q230 0 230 -180v-174q0 -20 0.5 -28t4.5 -18.5t13.5 -13.5t26.5 -2l1 -78q-38 -7 -72 -7
t-57.5 20.5t-23.5 60.5zM344 173v25q-41 28 -100 28q-35 -2 -57 -21.5t-18 -53.5q2 -25 21 -38.5t45 -13.5q39 0 72.5 19.5t36.5 54.5zM160 583q-9 4 -33 16t-37 17q57 144 184 80q20 -9 28 -12t24.5 -5.5t27 5t17.5 25.5l68 -32q-18 -64 -67.5 -89t-107.5 4q-23 13 -39 19
t-35 0.5t-30 -28.5z" />
    <glyph glyph-name="adieresis" unicode="&#xe4;" 
d="M379 568q-34 0 -56.5 20t-22.5 52t22.5 52t56.5 20t56.5 -20t22.5 -52t-22.5 -52t-56.5 -20zM148 568q-33 0 -56 20t-23 52t23 52t56 20q34 0 57 -20t23 -52t-23 -52t-57 -20zM374 74q-20 -42 -67.5 -62.5t-99.5 -20.5q-70 0 -121.5 41.5t-53.5 109.5q-4 85 49 129.5
t138 44.5q79 0 128 -31v33q0 69 -120 69q-87 0 -139 -29l-18 100q76 36 181 36q230 0 230 -180v-174q0 -20 0.5 -28t4.5 -18.5t13.5 -13.5t26.5 -2l1 -78q-38 -7 -72 -7t-57.5 20.5t-23.5 60.5zM344 173v25q-41 28 -100 28q-35 -2 -57 -21.5t-18 -53.5q2 -25 21 -38.5
t45 -13.5q39 0 72.5 19.5t36.5 54.5z" />
    <glyph glyph-name="aring" unicode="&#xe5;" 
d="M374 74q-20 -42 -67.5 -62.5t-99.5 -20.5q-70 0 -121.5 41.5t-53.5 109.5q-4 85 49 129.5t138 44.5q79 0 128 -31v33q0 69 -120 69q-87 0 -139 -29l-18 100q76 36 181 36q230 0 230 -180v-174q0 -20 0.5 -28t4.5 -18.5t13.5 -13.5t26.5 -2l1 -78q-38 -7 -72 -7
t-57.5 20.5t-23.5 60.5zM344 173v25q-41 28 -100 28q-35 -2 -57 -21.5t-18 -53.5q2 -25 21 -38.5t45 -13.5q39 0 72.5 19.5t36.5 54.5zM395 649q0 -50 -38.5 -78t-85 -28t-85 28t-38.5 78q0 40 25.5 67t62 33t72.5 0t61.5 -33t25.5 -67zM223 649q0 -25 24.5 -35.5t49 0
t24.5 35.5q0 26 -24.5 36t-49 0t-24.5 -36z" />
    <glyph glyph-name="ae" unicode="&#xe6;" horiz-adv-x="806" 
d="M343 170l-3 26q-50 33 -99 28q-34 -1 -55.5 -21t-18.5 -53q2 -26 20.5 -39.5t44.5 -13.5q37 0 71 19.5t40 53.5zM203 -10q-69 0 -119.5 41t-52.5 109q-2 73 37 116.5t106 53.5q27 4 55 3q70 -5 112 -31v27q0 41 -38 59.5t-84 18.5q-73 0 -133 -31l-17 98q73 38 176 38
q135 0 163 -88q20 42 63.5 65t94.5 23q121 0 170.5 -81.5t21.5 -199.5h-302q6 -114 119 -116q40 -2 86 7.5t77 23.5l17 -96q-97 -42 -181 -42q-125 0 -180 92q-74 -90 -191 -90zM558 384q-36 2 -63.5 -20t-35.5 -61h182q2 37 -21.5 59t-61.5 22z" />
    <glyph glyph-name="ccedilla" unicode="&#xe7;" horiz-adv-x="566" 
d="M228 -74l19 68q-90 13 -150 78t-60 171q0 75 33.5 132t84 85.5t112 34.5t116 -12t96 -63.5t53.5 -111.5h-133q-12 31 -38.5 48.5t-57.5 17t-60 -13t-48 -44t-19 -73.5q0 -53 29.5 -88.5t68 -43t76 11.5t51.5 62h133q-11 -76 -61.5 -125t-119.5 -63l-10 -41
q47 -4 66.5 -40.5t4.5 -74.5q-15 -40 -59.5 -57.5t-94 -11.5t-86.5 29l8 75q23 -18 66.5 -20t53.5 21q7 24 -19 36.5t-55 12.5z" />
    <glyph glyph-name="egrave" unicode="&#xe8;" 
d="M290 494q129 0 185.5 -78t28.5 -204h-327q7 -100 128 -109q42 -2 64 1q68 8 115 29l16 -102q-91 -43 -187 -43q-123 -2 -199.5 68t-76.5 191q2 119 75.5 183t177.5 64zM290 387q-42 0 -73 -22.5t-39 -62.5h212q2 44 -27 64.5t-73 20.5zM356 579v-13h-107l-83 104v11
l120 44z" />
    <glyph glyph-name="eacute" unicode="&#xe9;" 
d="M290 494q129 0 185.5 -78t28.5 -204h-327q7 -100 128 -109q42 -2 64 1q68 8 115 29l16 -102q-91 -43 -187 -43q-123 -2 -199.5 68t-76.5 191q2 119 75.5 183t177.5 64zM290 387q-42 0 -73 -22.5t-39 -62.5h212q2 44 -27 64.5t-73 20.5zM323 567h-106v12l70 145l119 -44
v-11z" />
    <glyph glyph-name="ecircumflex" unicode="&#xea;" 
d="M290 494q129 0 185.5 -78t28.5 -204h-327q7 -100 128 -109q42 -2 64 1q68 8 115 29l16 -102q-91 -43 -187 -43q-123 -2 -199.5 68t-76.5 191q2 119 75.5 183t177.5 64zM290 387q-42 0 -73 -22.5t-39 -62.5h212q2 44 -27 64.5t-73 20.5zM474 565h-121l-71 71l-71 -71h-122
v13l129 134h127l129 -135v-12z" />
    <glyph glyph-name="edieresis" unicode="&#xeb;" 
d="M290 494q129 0 185.5 -78t28.5 -204h-327q7 -100 128 -109q42 -2 64 1q68 8 115 29l16 -102q-91 -43 -187 -43q-123 -2 -199.5 68t-76.5 191q2 119 75.5 183t177.5 64zM290 387q-42 0 -73 -22.5t-39 -62.5h212q2 44 -27 64.5t-73 20.5zM412 569q-31 0 -52 18.5t-21 47.5
q0 30 21 48.5t52 18.5t52 -18.5t21 -48.5q0 -29 -21 -47.5t-52 -18.5zM166 569q-31 0 -52 18.5t-21 47.5q0 30 21 48.5t52 18.5t52.5 -18.5t21.5 -48.5q0 -29 -21.5 -47.5t-52.5 -18.5z" />
    <glyph glyph-name="igrave" unicode="&#xec;" horiz-adv-x="271" 
d="M205 482v-482h-139v482h139zM195 572v-13h-110l-86 106v12l124 45z" />
    <glyph glyph-name="iacute" unicode="&#xed;" horiz-adv-x="271" 
d="M205 482v-482h-139v482h139zM171 563h-109v12l72 150l122 -45v-12z" />
    <glyph glyph-name="icircumflex" unicode="&#xee;" horiz-adv-x="271" 
d="M205 482v-482h-139v482h139zM316 552h-112l-67 81l-65 -81h-114v14l120 154h119l119 -155v-13z" />
    <glyph glyph-name="idieresis" unicode="&#xef;" horiz-adv-x="271" 
d="M240 568q-34 0 -56.5 20t-22.5 52t22.5 52t56.5 20t56.5 -20t22.5 -52t-22.5 -52t-56.5 -20zM21 568q-33 0 -56 20t-23 52t23 52t56 20q34 0 57 -20t23 -52t-23 -52t-57 -20zM205 482v-482h-139v482h139z" />
    <glyph glyph-name="eth" unicode="&#xf0;" horiz-adv-x="586" 
d="M37 239q0 109 74 171t175 64q53 0 79 -22q-19 41 -72 92l-54 -37l-36 52l52 35q-42 54 -93 97v7h114q32 -22 58 -48l55 37l36 -50l-46 -34q192 -213 165 -409q-11 -69 -53 -118t-98 -70t-119 -17t-115.5 31.5t-87 84.5t-34.5 134zM408 239q0 57 -36 89.5t-80 32.5
t-80 -32.5t-36 -89.5q0 -61 36 -95.5t80 -34.5t80 34.5t36 95.5z" />
    <glyph glyph-name="ntilde" unicode="&#xf1;" horiz-adv-x="614" 
d="M555 0h-141v279q2 47 -24.5 75t-66.5 28q-42 0 -72 -28.5t-30 -77.5v-276h-140v333q0 22 -0.5 31t-5 18t-14 11.5t-26.5 2.5v87q176 30 176 -65q19 39 62.5 57t91.5 18q97 0 143.5 -59t46.5 -155v-279zM190 575q-47 25 -71 34q58 145 188 81q17 -8 27 -12t25.5 -6t27 5.5
t18.5 25.5q41 -20 69 -32q-20 -66 -69.5 -90.5t-108.5 4.5q-26 13 -39.5 18.5t-34 0.5t-32.5 -29z" />
    <glyph glyph-name="ograve" unicode="&#xf2;" horiz-adv-x="583" 
d="M547 243q0 -81 -38 -140t-94.5 -86t-123 -27t-123 27t-94.5 86t-38 140t38 140t94.5 85.5t123 26.5t123 -26.5t94.5 -85.5t38 -140zM175 243q0 -62 36.5 -97t80 -35t80 35t36.5 97q0 61 -36.5 96t-80 35t-80 -35t-36.5 -96zM359 578v-12h-115l-90 103v11l129 44z" />
    <glyph glyph-name="oacute" unicode="&#xf3;" horiz-adv-x="583" 
d="M547 243q0 -81 -38 -140t-94.5 -86t-123 -27t-123 27t-94.5 86t-38 140t38 140t94.5 85.5t123 26.5t123 -26.5t94.5 -85.5t38 -140zM175 243q0 -62 36.5 -97t80 -35t80 35t36.5 97q0 61 -36.5 96t-80 35t-80 -35t-36.5 -96zM329 569h-114v12l75 145l128 -44v-11z" />
    <glyph glyph-name="ocircumflex" unicode="&#xf4;" horiz-adv-x="583" 
d="M547 243q0 -81 -38 -140t-94.5 -86t-123 -27t-123 27t-94.5 86t-38 140t38 140t94.5 85.5t123 26.5t123 -26.5t94.5 -85.5t38 -140zM175 243q0 -62 36.5 -97t80 -35t80 35t36.5 97q0 61 -36.5 96t-80 35t-80 -35t-36.5 -96zM483 564h-122l-72 75l-71 -75h-124v13l131 142
h128l130 -143v-12z" />
    <glyph glyph-name="otilde" unicode="&#xf5;" horiz-adv-x="583" 
d="M547 243q0 -81 -38 -140t-94.5 -86t-123 -27t-123 27t-94.5 86t-38 140t38 140t94.5 85.5t123 26.5t123 -26.5t94.5 -85.5t38 -140zM175 243q0 -62 36.5 -97t80 -35t80 35t36.5 97q0 61 -36.5 96t-80 35t-80 -35t-36.5 -96zM182 583q-47 25 -71 34q58 145 188 81
q17 -8 27 -12t25.5 -6t27 5.5t18.5 25.5q41 -20 69 -32q-20 -66 -69.5 -90.5t-108.5 4.5q-26 13 -39.5 18.5t-34 0.5t-32.5 -29z" />
    <glyph glyph-name="odieresis" unicode="&#xf6;" horiz-adv-x="583" 
d="M547 243q0 -81 -38 -140t-94.5 -86t-123 -27t-123 27t-94.5 86t-38 140t38 140t94.5 85.5t123 26.5t123 -26.5t94.5 -85.5t38 -140zM175 243q0 -62 36.5 -97t80 -35t80 35t36.5 97q0 61 -36.5 96t-80 35t-80 -35t-36.5 -96zM419 572q-31 0 -52 18.5t-21 47.5
q0 30 21 48.5t52 18.5t52 -18.5t21 -48.5q0 -29 -21 -47.5t-52 -18.5zM173 572q-31 0 -52 18.5t-21 47.5q0 30 21 48.5t52 18.5t52.5 -18.5t21.5 -48.5q0 -29 -21.5 -47.5t-52.5 -18.5z" />
    <glyph glyph-name="divide" unicode="&#xf7;" horiz-adv-x="539" 
d="M270 91q-35 0 -58.5 21t-23.5 55t23.5 55.5t58.5 21.5q36 0 59.5 -21t23.5 -56t-23.5 -55.5t-59.5 -20.5zM270 476q-35 0 -58.5 21t-23.5 55t23.5 55.5t58.5 21.5q36 0 59.5 -21t23.5 -56t-23.5 -55.5t-59.5 -20.5zM51 298v120h437v-120h-437z" />
    <glyph glyph-name="oslash" unicode="&#xf8;" horiz-adv-x="584" 
d="M548 243q0 -71 -30 -126.5t-76.5 -83.5t-104 -39.5t-111.5 5.5l-27 -55h-109l48 94q-101 67 -101 205q0 95 52 159t126 83.5t150 0.5l29 58h109l-50 -100q95 -70 95 -201zM171 243q0 -55 33 -86l110 218q-54 11 -98.5 -25t-44.5 -107zM415 243q0 48 -30 82l-110 -215
q53 -9 96.5 27t43.5 106z" />
    <glyph glyph-name="ugrave" unicode="&#xf9;" horiz-adv-x="605" 
d="M383 482h140v-337q0 -37 7.5 -48.5t37.5 -9.5l1 -87q-29 -7 -56.5 -9t-56 2.5t-46 24t-17.5 52.5q-19 -39 -61.5 -58t-92.5 -19q-179 0 -179 213v276h141v-276q-2 -49 21.5 -76t61.5 -27q43 -1 71 28.5t28 77.5v273zM353 580v-12h-109l-84 104v12l121 44z" />
    <glyph glyph-name="uacute" unicode="&#xfa;" horiz-adv-x="605" 
d="M383 482h140v-337q0 -37 7.5 -48.5t37.5 -9.5l1 -87q-29 -7 -56.5 -9t-56 2.5t-46 24t-17.5 52.5q-19 -39 -61.5 -58t-92.5 -19q-179 0 -179 213v276h141v-276q-2 -49 21.5 -76t61.5 -27q43 -1 71 28.5t28 77.5v273zM332 568h-107v13l71 146l120 -44v-11z" />
    <glyph glyph-name="ucircumflex" unicode="&#xfb;" horiz-adv-x="605" 
d="M383 482h140v-337q0 -37 7.5 -48.5t37.5 -9.5l1 -87q-29 -7 -56.5 -9t-56 2.5t-46 24t-17.5 52.5q-19 -39 -61.5 -58t-92.5 -19q-179 0 -179 213v276h141v-276q-2 -49 21.5 -76t61.5 -27q43 -1 71 28.5t28 77.5v273zM494 560h-127l-76 74l-74 -74h-129v13l136 141h134
l136 -142v-12z" />
    <glyph glyph-name="udieresis" unicode="&#xfc;" horiz-adv-x="605" 
d="M383 482h140v-337q0 -37 7.5 -48.5t37.5 -9.5l1 -87q-29 -7 -56.5 -9t-56 2.5t-46 24t-17.5 52.5q-19 -39 -61.5 -58t-92.5 -19q-179 0 -179 213v276h141v-276q-2 -49 21.5 -76t61.5 -27q43 -1 71 28.5t28 77.5v273zM418 564q-33 0 -55 19t-22 51t22 51t55 19t55 -19
t22 -51t-22 -51t-55 -19zM158 564q-32 0 -54.5 19.5t-22.5 50.5t22.5 50.5t54.5 19.5q34 0 56 -19t22 -51t-22 -51t-56 -19z" />
    <glyph glyph-name="yacute" unicode="&#xfd;" horiz-adv-x="559" 
d="M540 466l-204 -513q-20 -51 -38 -85t-43 -62.5t-54.5 -40t-70.5 -9.5t-93 21l15 97q60 -24 93 -5.5t55 80.5l18 50l-211 467v16h147l65 -163l63 -178h3l55 177l58 164h142v-16zM314 558h-114v13l75 156l128 -47v-12z" />
    <glyph glyph-name="thorn" unicode="&#xfe;" horiz-adv-x="585" 
d="M547 245q0 -93 -47.5 -159.5t-123.5 -84t-172 20.5v-269h-139v966h139v-251q138 61 240.5 -8t102.5 -215zM406 245q0 59 -31.5 94t-77 35.5t-96.5 -26.5v-206q51 -27 96.5 -26.5t77 35.5t31.5 94z" />
    <glyph glyph-name="ydieresis" unicode="&#xff;" horiz-adv-x="559" 
d="M540 466l-204 -513q-20 -51 -38 -85t-43 -62.5t-54.5 -40t-70.5 -9.5t-93 21l15 97q60 -24 93 -5.5t55 80.5l18 50l-211 467v16h147l65 -163l63 -178h3l55 177l58 164h142v-16zM408 568q-34 0 -56.5 20t-22.5 52t22.5 52t56.5 20t56.5 -20t22.5 -52t-22.5 -52t-56.5 -20z
M142 568q-33 0 -56 20t-23 52t23 52t56 20q34 0 57 -20t23 -52t-23 -52t-57 -20z" />
    <glyph glyph-name="Amacron" unicode="&#x100;" horiz-adv-x="700" 
d="M495 116h-291l-54 -116h-156v20l322 686h69l320 -686v-20h-155zM350 473l-97 -231h194zM189 753v107h320v-107h-320z" />
    <glyph glyph-name="amacron" unicode="&#x101;" 
d="M374 74q-20 -42 -67.5 -62.5t-99.5 -20.5q-70 0 -121.5 41.5t-53.5 109.5q-4 85 49 129.5t138 44.5q79 0 128 -31v33q0 69 -120 69q-87 0 -139 -29l-18 100q76 36 181 36q230 0 230 -180v-174q0 -20 0.5 -28t4.5 -18.5t13.5 -13.5t26.5 -2l1 -78q-38 -7 -72 -7
t-57.5 20.5t-23.5 60.5zM344 173v25q-41 28 -100 28q-35 -2 -57 -21.5t-18 -53.5q2 -25 21 -38.5t45 -13.5q39 0 72.5 19.5t36.5 54.5zM105 573v107h320v-107h-320z" />
    <glyph glyph-name="Abreve" unicode="&#x102;" horiz-adv-x="700" 
d="M495 116h-291l-54 -116h-156v20l322 686h69l320 -686v-20h-155zM350 473l-97 -231h194zM148 929h120q0 -30 25 -47t55.5 -17t55.5 17t25 47h118q0 -47 -22 -84t-57 -56t-77.5 -28t-85.5 0t-78 28.5t-57 56t-22 83.5z" />
    <glyph glyph-name="abreve" unicode="&#x103;" 
d="M374 74q-20 -42 -67.5 -62.5t-99.5 -20.5q-70 0 -121.5 41.5t-53.5 109.5q-4 85 49 129.5t138 44.5q79 0 128 -31v33q0 69 -120 69q-87 0 -139 -29l-18 100q76 36 181 36q230 0 230 -180v-174q0 -20 0.5 -28t4.5 -18.5t13.5 -13.5t26.5 -2l1 -78q-38 -7 -72 -7
t-57.5 20.5t-23.5 60.5zM344 173v25q-41 28 -100 28q-35 -2 -57 -21.5t-18 -53.5q2 -25 21 -38.5t45 -13.5q39 0 72.5 19.5t36.5 54.5zM80 717h110q0 -37 37 -52.5t73.5 0t36.5 52.5h108q0 -52 -27 -89.5t-67.5 -54.5t-88 -17t-88 17.5t-67.5 55t-27 88.5z" />
    <glyph glyph-name="Aogonek" unicode="&#x104;" horiz-adv-x="701" 
d="M351 461l-97 -219h194zM496 116h-291l-54 -116h-156v20l322 686h69l320 -686v-20q-48 10 -88 -27t-17 -78q12 -22 36 -25t44 5t40 21l19 -88q-37 -24 -86 -33.5t-96.5 6t-64.5 60.5q-34 87 56 162z" />
    <glyph glyph-name="aogonek" unicode="&#x105;" horiz-adv-x="553" 
d="M344 173v25q-41 28 -100 28q-35 -2 -57 -21.5t-18 -53.5q2 -25 21 -38.5t45 -13.5q39 0 72.5 19.5t36.5 54.5zM373 74q-20 -42 -67 -62.5t-99 -20.5q-70 0 -121.5 41.5t-53.5 109.5q-4 85 49 129.5t138 44.5q77 0 126 -31v31q0 27 -20.5 44t-44.5 22t-53 5
q-87 0 -139 -29l-18 100q76 36 181 36q103 0 166.5 -42.5t63.5 -139.5v-172q0 -20 0.5 -28t4.5 -18.5t13.5 -13.5t26.5 -2l1 -78q-38 4 -66.5 -28t-10.5 -63q10 -17 31.5 -18.5t39.5 5.5t35 17l17 -78q-25 -16 -57.5 -24t-65.5 -7t-59.5 19.5t-35.5 53.5q-12 36 5.5 70
t52.5 54q-34 15 -40 73z" />
    <glyph glyph-name="Cacute" unicode="&#x106;" horiz-adv-x="761" 
d="M42 349q0 167 106 263.5t252 94.5q116 0 208 -63.5t115 -185.5h-145q-45 114 -178 114q-93 0 -150 -61.5t-57 -161.5q0 -92 57 -156t149 -64q67 0 116 32t66 94h144q-21 -130 -113 -196t-212 -66q-70 0 -134 23.5t-114 67t-80 112.5t-30 153zM446 773h-124v13l82 159
l140 -48v-12z" />
    <glyph glyph-name="cacute" unicode="&#x107;" horiz-adv-x="564" 
d="M531 308h-133q-12 31 -38.5 48.5t-57.5 17t-60 -13t-48 -44t-19 -73.5q0 -53 29.5 -88.5t68 -43t76 11.5t51.5 62h133q-11 -67 -52.5 -114t-96 -66t-116.5 -13.5t-113 33.5t-85 85t-34 133q0 75 33.5 132t84 85.5t112 34.5t116 -12t96 -63.5t53.5 -111.5zM326 577h-119
v12l79 142l133 -43v-11z" />
    <glyph glyph-name="Ccircumflex" unicode="&#x108;" horiz-adv-x="761" 
d="M42 349q0 167 106 263.5t252 94.5q116 0 208 -63.5t115 -185.5h-145q-45 114 -178 114q-93 0 -150 -61.5t-57 -161.5q0 -92 57 -156t149 -64q67 0 116 32t66 94h144q-21 -130 -113 -196t-212 -66q-70 0 -134 23.5t-114 67t-80 112.5t-30 153zM613 757h-133l-79 78
l-78 -78h-135v14l143 148h140l142 -149v-13z" />
    <glyph glyph-name="ccircumflex" unicode="&#x109;" horiz-adv-x="564" 
d="M531 308h-133q-12 31 -38.5 48.5t-57.5 17t-60 -13t-48 -44t-19 -73.5q0 -53 29.5 -88.5t68 -43t76 11.5t51.5 62h133q-11 -67 -52.5 -114t-96 -66t-116.5 -13.5t-113 33.5t-85 85t-34 133q0 75 33.5 132t84 85.5t112 34.5t116 -12t96 -63.5t53.5 -111.5zM480 558h-122
l-72 74l-71 -74h-124v13l131 141h128l130 -142v-12z" />
    <glyph glyph-name="Cdotaccent" unicode="&#x10a;" horiz-adv-x="761" 
d="M42 349q0 167 106 263.5t252 94.5q116 0 208 -63.5t115 -185.5h-145q-45 114 -178 114q-93 0 -150 -61.5t-57 -161.5q0 -92 57 -156t149 -64q67 0 116 32t66 94h144q-21 -130 -113 -196t-212 -66q-70 0 -134 23.5t-114 67t-80 112.5t-30 153zM385 763q-36 0 -60 21.5
t-24 56.5q0 36 24 58t60 22q37 0 61.5 -22t24.5 -58q0 -35 -24.5 -56.5t-61.5 -21.5z" />
    <glyph glyph-name="cdotaccent" unicode="&#x10b;" horiz-adv-x="564" 
d="M531 308h-133q-12 31 -38.5 48.5t-57.5 17t-60 -13t-48 -44t-19 -73.5q0 -53 29.5 -88.5t68 -43t76 11.5t51.5 62h133q-11 -67 -52.5 -114t-96 -66t-116.5 -13.5t-113 33.5t-85 85t-34 133q0 75 33.5 132t84 85.5t112 34.5t116 -12t96 -63.5t53.5 -111.5zM293 573
q-32 0 -53.5 19t-21.5 49t21.5 49t53.5 19q33 0 55 -19t22 -49t-22 -49t-55 -19z" />
    <glyph glyph-name="Ccaron" unicode="&#x10c;" horiz-adv-x="761" 
d="M42 349q0 167 106 263.5t252 94.5q116 0 208 -63.5t115 -185.5h-145q-45 114 -178 114q-93 0 -150 -61.5t-57 -161.5q0 -92 57 -156t149 -64q67 0 116 32t66 94h144q-21 -130 -113 -196t-212 -66q-70 0 -134 23.5t-114 67t-80 112.5t-30 153zM190 921h134l75 -77l74 77
h136v-13l-141 -145h-138l-140 145v13z" />
    <glyph glyph-name="ccaron" unicode="&#x10d;" horiz-adv-x="564" 
d="M531 308h-133q-12 31 -38.5 48.5t-57.5 17t-60 -13t-48 -44t-19 -73.5q0 -53 29.5 -88.5t68 -43t76 11.5t51.5 62h133q-11 -67 -52.5 -114t-96 -66t-116.5 -13.5t-113 33.5t-85 85t-34 133q0 75 33.5 132t84 85.5t112 34.5t116 -12t96 -63.5t53.5 -111.5zM78 709h132
l74 -76l72 76h133v-13l-138 -143h-136l-137 143v13z" />
    <glyph glyph-name="Dcaron" unicode="&#x10e;" horiz-adv-x="728" 
d="M82 699h260q159 0 251 -102.5t92 -244.5q2 -143 -90 -247.5t-253 -104.5h-260v699zM231 135h109q92 0 144 63t52 153q0 89 -52.5 151t-143.5 62h-109v-429zM94 916h129l74 -74l72 74h131v-12l-136 -141h-135l-135 141v12z" />
    <glyph glyph-name="dcaron" unicode="&#x10f;" horiz-adv-x="604" 
d="M405 68v13q-20 -44 -58.5 -68t-86.5 -25q-105 -2 -164 71.5t-59 181.5q0 70 29.5 127t78 87t109.5 36t124 -27v267h140v-581v-16.5v-15.5t1 -12t2.5 -11t5 -7.5t8 -6.5t12 -2.5t16.5 -0.5l1 -79q-37 -7 -71.5 -8t-60.5 18.5t-27 58.5zM382 222v124q-75 45 -140.5 14.5
t-65.5 -119.5q0 -56 26.5 -92.5t79.5 -36.5q44 0 72 32t28 78zM720 650q-2 -19 -7 -31l-41 -126h-82l24 85q-26 7 -42 26.5t-16 46.5q0 35 23 56t59 21q27 0 48.5 -14t29.5 -38q4 -11 4 -26z" />
    <glyph glyph-name="Dcroat" unicode="&#x110;" horiz-adv-x="737" 
d="M15 286v117h76v296h260q159 0 251 -102.5t92 -244.5q2 -143 -90 -247.5t-253 -104.5h-260v286h-76zM240 135h109q92 0 144 63t52 153q0 89 -52.5 151t-143.5 62h-109v-161h112v-117h-112v-151z" />
    <glyph glyph-name="dcroat" unicode="&#x111;" horiz-adv-x="602" 
d="M382 221v121q-75 45 -140.5 15t-65.5 -117q0 -56 26.5 -92.5t79.5 -36.5q44 0 72 32t28 78zM405 67v13q-20 -44 -58.5 -68t-86.5 -24q-105 -2 -164 71t-59 181q0 70 29.5 127t78 87t109.5 36t124 -27v101h-95v86h95v80h140v-80h75v-86h-75v-416v-14v-13.5t0.5 -11.5
t1.5 -10.5l3 -7.5t5.5 -7l8 -4.5t11.5 -2.5h15l1 -78q-36 -7 -71 -8.5t-61 18t-27 58.5z" />
    <glyph glyph-name="Emacron" unicode="&#x112;" horiz-adv-x="572" 
d="M510 700v-131h-278v-142h260v-131h-260v-160h286v-136h-437v700h429zM146 767v107h320v-107h-320z" />
    <glyph glyph-name="emacron" unicode="&#x113;" 
d="M290 494q129 0 185.5 -78t28.5 -204h-327q7 -100 128 -109q42 -2 64 1q68 8 115 29l16 -102q-91 -43 -187 -43q-123 -2 -199.5 68t-76.5 191q2 119 75.5 183t177.5 64zM290 387q-42 0 -73 -22.5t-39 -62.5h212q2 44 -27 64.5t-73 20.5zM128 564v107h320v-107h-320z" />
    <glyph glyph-name="Ebreve" unicode="&#x114;" horiz-adv-x="572" 
d="M510 700v-131h-278v-142h260v-131h-260v-160h286v-136h-437v700h429zM99 926h114q0 -38 38.5 -53.5t77 0t38.5 53.5h112q0 -46 -21 -81.5t-54.5 -54t-74 -27t-81 0.5t-74 27.5t-54.5 54t-21 80.5z" />
    <glyph glyph-name="ebreve" unicode="&#x115;" 
d="M290 494q129 0 185.5 -78t28.5 -204h-327q7 -100 128 -109q42 -2 64 1q68 8 115 29l16 -102q-91 -43 -187 -43q-123 -2 -199.5 68t-76.5 191q2 119 75.5 183t177.5 64zM290 387q-42 0 -73 -22.5t-39 -62.5h212q2 44 -27 64.5t-73 20.5zM105 707h108q0 -35 36 -49.5t72 0
t36 49.5h106q0 -49 -26.5 -85t-66.5 -52t-86 -16t-86 16.5t-66.5 52t-26.5 84.5z" />
    <glyph glyph-name="Edotaccent" unicode="&#x116;" horiz-adv-x="572" 
d="M510 700v-131h-278v-142h260v-131h-260v-160h286v-136h-437v700h429zM303 762q-35 0 -58.5 21t-23.5 55t23.5 55.5t58.5 21.5q36 0 59.5 -21t23.5 -56t-23.5 -55.5t-59.5 -20.5z" />
    <glyph glyph-name="edotaccent" unicode="&#x117;" 
d="M290 494q129 0 185.5 -78t28.5 -204h-327q7 -100 128 -109q42 -2 64 1q68 8 115 29l16 -102q-91 -43 -187 -43q-123 -2 -199.5 68t-76.5 191q2 119 75.5 183t177.5 64zM290 387q-42 0 -73 -22.5t-39 -62.5h212q2 44 -27 64.5t-73 20.5zM282 563q-35 0 -58 19.5t-23 51.5
t23.5 51.5t57.5 19.5q36 0 59.5 -19.5t23.5 -51.5t-23.5 -51.5t-59.5 -19.5z" />
    <glyph glyph-name="Eogonek" unicode="&#x118;" horiz-adv-x="568" 
d="M506 700v-131h-274v-142h256v-131h-256v-160h282v-136h-95q-30 -18 -43 -50t0 -57q11 -22 37.5 -24t49.5 6.5t44 21.5l19 -88q-28 -19 -66.5 -30t-77 -10.5t-70 21.5t-42.5 63q-12 41 3.5 80.5t50.5 66.5h-243v700h425z" />
    <glyph glyph-name="eogonek" unicode="&#x119;" horiz-adv-x="552" 
d="M178 297h209q6 43 -24 66.5t-73 23.5t-74 -23.5t-38 -66.5zM290 494q129 0 185.5 -78t28.5 -204h-327q4 -58 43.5 -84.5t100.5 -26.5q87 0 163 32l16 -102q-31 -15 -69 -26q-29 -18 -43 -45.5t-1 -51.5q11 -20 35 -22.5t46 6t40 20.5l17 -82q-36 -24 -83.5 -31.5t-92 12
t-59.5 67.5q-19 57 35 111q-39 -2 -68 4q-101 15 -160.5 81.5t-59.5 172.5q2 119 75.5 183t177.5 64z" />
    <glyph glyph-name="Ecaron" unicode="&#x11a;" horiz-adv-x="572" 
d="M510 700v-131h-278v-142h260v-131h-260v-160h286v-136h-437v700h429zM92 915h132l74 -76l72 76h133v-13l-138 -143h-136l-137 143v13z" />
    <glyph glyph-name="ecaron" unicode="&#x11b;" 
d="M290 494q129 0 185.5 -78t28.5 -204h-327q7 -100 128 -109q42 -2 64 1q68 8 115 29l16 -102q-91 -43 -187 -43q-123 -2 -199.5 68t-76.5 191q2 119 75.5 183t177.5 64zM290 387q-42 0 -73 -22.5t-39 -62.5h212q2 44 -27 64.5t-73 20.5zM91 710h127l72 -73l69 73h129v-12
l-133 -139h-131l-133 139v12z" />
    <glyph glyph-name="Gcircumflex" unicode="&#x11c;" horiz-adv-x="770" 
d="M42 350q0 111 51.5 194.5t131.5 124t174 40.5q113 0 201.5 -57.5t116.5 -172.5h-147q-49 95 -171 95q-95 0 -150 -63.5t-55 -160.5q0 -100 56 -161.5t149 -61.5q78 0 126.5 29.5t69.5 104.5h-191v126h328q7 -118 -21 -196q-38 -101 -121.5 -150.5t-190.5 -49.5
q-147 0 -252 96.5t-105 262.5zM598 762h-133l-79 78l-78 -78h-135v14l143 148h140l142 -149v-13z" />
    <glyph glyph-name="gcircumflex" unicode="&#x11d;" horiz-adv-x="580" 
d="M382 -29v40q-139 -66 -241.5 1t-102.5 222q0 130 77 192t197 60q101 0 205 -44v-466q0 -94 -42 -154.5t-107.5 -79.5t-143.5 -8.5t-152 50.5l18 108q36 -19 73.5 -32.5t77.5 -17.5t70.5 5.5t50.5 41t20 82.5zM380 126v235q-39 10 -82 10q-117 0 -121 -136q-1 -62 29 -98
t75.5 -36.5t98.5 25.5zM500 551h-124l-74 78l-73 -78h-127v14l134 148h131l133 -149v-13z" />
    <glyph glyph-name="Gbreve" unicode="&#x11e;" horiz-adv-x="770" 
d="M42 350q0 111 51.5 194.5t131.5 124t174 40.5q113 0 201.5 -57.5t116.5 -172.5h-147q-49 95 -171 95q-95 0 -150 -63.5t-55 -160.5q0 -100 56 -161.5t149 -61.5q78 0 126.5 29.5t69.5 104.5h-191v126h328q7 -118 -21 -196q-38 -101 -121.5 -150.5t-190.5 -49.5
q-147 0 -252 96.5t-105 262.5zM183 937h123q0 -30 26 -47.5t56.5 -17.5t56.5 17.5t26 47.5h121q0 -48 -22.5 -86t-58.5 -57.5t-79.5 -28.5t-87.5 0.5t-80 29t-58.5 57t-22.5 85.5z" />
    <glyph glyph-name="gbreve" unicode="&#x11f;" horiz-adv-x="580" 
d="M382 -29v40q-139 -66 -241.5 1t-102.5 222q0 130 77 192t197 60q101 0 205 -44v-466q0 -94 -42 -154.5t-107.5 -79.5t-143.5 -8.5t-152 50.5l18 108q36 -19 73.5 -32.5t77.5 -17.5t70.5 5.5t50.5 41t20 82.5zM380 126v235q-39 10 -82 10q-117 0 -121 -136q-1 -62 29 -98
t75.5 -36.5t98.5 25.5zM110 708h113q0 -39 38.5 -54.5t76.5 0.5t38 54h112q0 -53 -28 -92t-70 -56t-91 -17t-91 17.5t-70 56.5t-28 91z" />
    <glyph glyph-name="Gdotaccent" unicode="&#x120;" horiz-adv-x="770" 
d="M42 350q0 111 51.5 194.5t131.5 124t174 40.5q113 0 201.5 -57.5t116.5 -172.5h-147q-49 95 -171 95q-95 0 -150 -63.5t-55 -160.5q0 -100 56 -161.5t149 -61.5q78 0 126.5 29.5t69.5 104.5h-191v126h328q7 -118 -21 -196q-38 -101 -121.5 -150.5t-190.5 -49.5
q-147 0 -252 96.5t-105 262.5zM377 771q-36 0 -60 20t-24 53t24 54t60 21q37 0 61.5 -21t24.5 -54t-24.5 -53t-61.5 -20z" />
    <glyph glyph-name="gdotaccent" unicode="&#x121;" horiz-adv-x="580" 
d="M382 -29v40q-139 -66 -241.5 1t-102.5 222q0 130 77 192t197 60q101 0 205 -44v-466q0 -94 -42 -154.5t-107.5 -79.5t-143.5 -8.5t-152 50.5l18 108q36 -19 73.5 -32.5t77.5 -17.5t70.5 5.5t50.5 41t20 82.5zM380 126v235q-39 10 -82 10q-117 0 -121 -136q-1 -62 29 -98
t75.5 -36.5t98.5 25.5zM312 564q-33 0 -55 20t-22 52t22 52.5t55 20.5q34 0 56 -20t22 -53q0 -32 -22 -52t-56 -20z" />
    <glyph glyph-name="Gcommaaccent" unicode="&#x122;" horiz-adv-x="770" 
d="M499 -134q0 -18 -7 -32l-40 -111h-81l24 71q-57 19 -57 73q0 34 22.5 54.5t57.5 20.5q27 0 48 -14t29 -37q4 -9 4 -25zM42 350q0 111 51.5 194.5t131.5 124t174 40.5q113 0 201.5 -57.5t116.5 -172.5h-147q-49 95 -171 95q-95 0 -150 -63.5t-55 -160.5q0 -100 56 -161.5
t149 -61.5q78 0 126.5 29.5t69.5 104.5h-191v126h328q7 -118 -21 -196q-38 -101 -121.5 -150.5t-190.5 -49.5q-147 0 -252 96.5t-105 262.5z" />
    <glyph glyph-name="gcommaaccent" unicode="&#x123;" horiz-adv-x="580" 
d="M382 -29v40q-139 -66 -241.5 1t-102.5 222q0 130 77 192t197 60q101 0 205 -44v-466q0 -94 -42 -154.5t-107.5 -79.5t-143.5 -8.5t-152 50.5l18 108q36 -19 73.5 -32.5t77.5 -17.5t70.5 5.5t50.5 41t20 82.5zM380 126v235q-39 10 -82 10q-117 0 -121 -136q-1 -62 29 -98
t75.5 -36.5t98.5 25.5zM229 623q2 17 7 26l38 105h80l-23 -71q55 -14 55 -62q0 -29 -22 -46.5t-56 -17.5q-57 0 -75 43q-4 9 -4 23z" />
    <glyph glyph-name="Hcircumflex" unicode="&#x124;" horiz-adv-x="729" 
d="M648 0h-150v296h-268v-296h-149v700h149v-267h268v267h150v-700zM572 769h-133l-79 78l-78 -78h-135v14l143 148h140l142 -149v-13z" />
    <glyph glyph-name="hcircumflex" unicode="&#x125;" horiz-adv-x="598" 
d="M539 0h-141v279q2 49 -23 76t-66 27q-43 1 -73 -28t-30 -78v-276h-141v730h141v-300q45 63 143 63q99 0 144.5 -57.5t45.5 -156.5v-279zM513 770h-128l-77 77l-75 -77h-130v14l138 146h135l137 -147v-13z" />
    <glyph glyph-name="Hbar" unicode="&#x126;" horiz-adv-x="740" 
d="M26 518v95h60v87h149v-87h268v87h150v-87h62v-95h-62v-518h-150v280h-268v-280h-149v518h-60zM235 417h268v101h-268v-101z" />
    <glyph glyph-name="hbar" unicode="&#x127;" horiz-adv-x="598" 
d="M539 0h-141v279q1 49 -24 76t-66 27q-43 0 -73 -28.5t-30 -77.5v-276h-140v568h-60v88h60v74h140v-74h82v-88h-82v-144q50 69 144 69q98 0 144 -57.5t46 -156.5v-279z" />
    <glyph glyph-name="Itilde" unicode="&#x128;" horiz-adv-x="438" 
d="M294 119h99v-119h-348v119h99v465h-91v116h332v-116h-91v-465zM107 766l-75 36q62 155 198 86q81 -45 104 13l73 -34q-21 -69 -73 -95.5t-115 4.5q-27 14 -42.5 20t-36.5 1t-33 -31z" />
    <glyph glyph-name="itilde" unicode="&#x129;" horiz-adv-x="271" 
d="M205 482v-482h-139v482h139zM31 579l-66 36q56 152 173 84q15 -9 25 -13t24 -6.5t24.5 5.5t17.5 27q14 -7 35 -18.5t29 -15.5q-18 -67 -64 -93.5t-100 4.5q-18 11 -28 15.5t-25 7.5t-26 -5t-19 -28z" />
    <glyph glyph-name="Imacron" unicode="&#x12a;" horiz-adv-x="438" 
d="M294 119h99v-119h-348v119h99v465h-91v116h332v-116h-91v-465zM59 768v107h320v-107h-320z" />
    <glyph glyph-name="imacron" unicode="&#x12b;" horiz-adv-x="271" 
d="M205 482v-482h-139v482h139zM1 567v110h266v-110h-266z" />
    <glyph glyph-name="Ibreve" unicode="&#x12c;" horiz-adv-x="438" 
d="M294 119h99v-119h-348v119h99v465h-91v116h332v-116h-91v-465zM19 927h116q0 -30 24.5 -46.5t53.5 -16.5t53.5 17t24.5 46h114q0 -55 -28.5 -95.5t-71.5 -59t-93 -18t-93 18.5t-71.5 58.5t-28.5 95.5z" />
    <glyph glyph-name="ibreve" unicode="&#x12d;" horiz-adv-x="271" 
d="M205 482v-482h-139v482h139zM-37 709h101q0 -38 34 -53.5t67.5 0t33.5 53.5h100q0 -52 -25 -90t-62 -55t-81 -17t-81 17.5t-62 55.5t-25 89z" />
    <glyph glyph-name="Iogonek" unicode="&#x12e;" horiz-adv-x="440" 
d="M295 122h99v-122h-118q-28 -19 -41.5 -49t0.5 -58q12 -22 38.5 -24t48.5 6.5t44 21.5l19 -88q-29 -19 -69 -29t-80 -9t-72 22t-42 60q-9 36 9 78t51 69h-136v122h99v457h-91v121h332v-121h-91v-457z" />
    <glyph glyph-name="iogonek" unicode="&#x12f;" horiz-adv-x="272" 
d="M55 621q0 50 40.5 70.5t81.5 0t41 -70.5q0 -38 -25.5 -59.5t-56 -21.5t-56 21.5t-25.5 59.5zM206 476v-476h-50q-26 -20 -37 -47.5t1 -55.5q12 -22 38.5 -24.5t49.5 6.5t43 22l19 -89q-27 -18 -66 -27t-77.5 -6t-70 25t-40.5 60q-9 35 6.5 75t43.5 63v474h140z" />
    <glyph glyph-name="Idotaccent" unicode="&#x130;" horiz-adv-x="438" 
d="M294 119h99v-119h-348v119h99v465h-91v116h332v-116h-91v-465zM211 768q-38 0 -63.5 21.5t-25.5 55.5q0 35 25.5 56.5t63.5 21.5q39 0 64.5 -21.5t25.5 -56.5t-25.5 -56t-64.5 -21z" />
    <glyph glyph-name="dotlessi" unicode="&#x131;" horiz-adv-x="271" 
d="M205 482v-482h-139v482h139z" />
    <glyph glyph-name="IJ" unicode="&#x132;" horiz-adv-x="1068" 
d="M294 119h99v-119h-348v119h99v465h-91v116h332v-116h-91v-465zM993 700v-468q0 -110 -77.5 -176t-190.5 -66q-112 0 -186.5 65.5t-74.5 176.5v85h139v-82q0 -55 33.5 -83.5t88.5 -28.5q54 0 86 29t32 83v336h-125v129h275z" />
    <glyph glyph-name="ij" unicode="&#x133;" horiz-adv-x="541" 
d="M53 621q0 38 25.5 59.5t56.5 21.5t56.5 -21.5t25.5 -59.5t-25.5 -60t-56.5 -22t-56.5 22t-25.5 60zM205 476v-476h-140v476h140zM337 480h138l-1 -537q0 -127 -61 -171.5t-178 -23.5l4 104q58 -8 78 13t20 80v535zM323 621q0 38 25.5 59.5t56.5 21.5t56.5 -21.5
t25.5 -59.5t-25.5 -60t-56.5 -22t-56.5 22t-25.5 60z" />
    <glyph glyph-name="Jcircumflex" unicode="&#x134;" horiz-adv-x="630" 
d="M555 700v-468q0 -110 -77.5 -176t-190.5 -66q-112 0 -186.5 65.5t-74.5 176.5v85h139v-82q0 -55 33.5 -83.5t88.5 -28.5q54 0 86 29t32 83v336h-125v129h275zM611 768h-125l-74 79l-74 -79h-127v14l135 150h132l133 -151v-13z" />
    <glyph glyph-name="jcircumflex" unicode="&#x135;" horiz-adv-x="270" 
d="M66 480h138l-1 -537q0 -127 -61 -171.5t-178 -23.5l4 104q58 -8 78 13t20 80v535zM312 543h-112l-67 83l-67 -83h-114v14l121 158h119l120 -159v-13z" />
    <glyph glyph-name="Kcommaaccent" unicode="&#x136;" horiz-adv-x="703" 
d="M461 -119q0 -18 -7 -32l-40 -111h-81l24 71q-57 19 -57 73q0 34 22.5 54.5t57.5 20.5q27 0 48 -14t29 -37q4 -9 4 -25zM230 700v-289q95 0 121 13q25 14 39 47.5t31 104.5q45 163 239 123v-102q-43 4 -66.5 -11t-34.5 -54q-35 -133 -88 -186l214 -324v-22h-169l-176 288
q-27 -7 -110 -7v-281h-149v700h149z" />
    <glyph glyph-name="kcommaaccent" unicode="&#x137;" horiz-adv-x="560" 
d="M365 -127q0 -13 -6 -30l-38 -105h-77l23 67q-54 19 -54 69q0 32 21.5 51.5t54.5 19.5q54 0 72 -48q4 -9 4 -24zM204 305h34q77 0 108 47.5t31 130.5h132q2 -84 -23 -143.5t-92 -94.5l138 -230v-14h-141l-115 200q-18 -6 -40 -6h-32v-194h-139v730h139v-426z" />
    <glyph glyph-name="kgreenlandic" unicode="&#x138;" horiz-adv-x="556" 
d="M201 297h34q76 0 105 49t29 137h135q3 -86 -21.5 -148.5t-91.5 -97.5l136 -223v-14h-152l-107 193q-18 -6 -67 -6v-187h-139v482h139v-185z" />
    <glyph glyph-name="Lacute" unicode="&#x139;" horiz-adv-x="539" 
d="M231 700v-566h292v-134h-442v700h150zM198 762h-114v13l75 156l128 -47v-12z" />
    <glyph glyph-name="lacute" unicode="&#x13a;" horiz-adv-x="309" 
d="M61 732h138v-549q0 -54 22 -70.5t74 -7.5l5 -105q-119 -21 -179 19t-60 164v549zM175 779h-106v12l70 144l118 -43v-11z" />
    <glyph glyph-name="Lcommaaccent" unicode="&#x13b;" horiz-adv-x="539" 
d="M390 -131q0 -18 -7 -32l-40 -111h-81l24 71q-57 19 -57 73q0 34 22.5 54.5t57.5 20.5q27 0 48 -14t29 -37q4 -9 4 -25zM231 700v-566h292v-134h-442v700h150z" />
    <glyph glyph-name="lcommaaccent" unicode="&#x13c;" horiz-adv-x="309" 
d="M265 -137q0 -18 -7 -31l-38 -107h-78l23 68q-55 19 -55 71q0 32 22 52t55 20q57 0 74 -49q4 -9 4 -24zM61 732h138v-549q0 -54 22 -70.5t74 -7.5l5 -105q-119 -21 -179 19t-60 164v549z" />
    <glyph glyph-name="Lcaron" unicode="&#x13d;" horiz-adv-x="542" 
d="M231 700v-566h292v-134h-442v700h150zM491 626q-1 -15 -6 -29l-39 -121h-79l23 81q-25 7 -40 25.5t-15 44.5q0 33 22 53.5t56 20.5q57 0 75 -50q3 -24 3 -25z" />
    <glyph glyph-name="lcaron" unicode="&#x13e;" horiz-adv-x="309" 
d="M61 732h138v-549q0 -54 22 -70.5t74 -7.5l5 -105q-119 -21 -179 19t-60 164v549zM397 656q-1 -15 -6 -29l-39 -119h-78l23 80q-25 7 -40 25t-15 44q0 33 22 53t55 20q26 0 46.5 -13.5t27.5 -35.5q4 -11 4 -25z" />
    <glyph glyph-name="Ldot" unicode="&#x13f;" horiz-adv-x="540" 
d="M231 700v-566h292v-134h-442v700h150zM397 302q-33 0 -55 21t-22 56t22 56t55 21q34 0 55.5 -21t21.5 -56t-21.5 -56t-55.5 -21z" />
    <glyph glyph-name="ldot" unicode="&#x140;" horiz-adv-x="410" 
d="M61 732h138v-549q0 -54 22 -70.5t74 -7.5l5 -105q-119 -21 -179 19t-60 164v549zM336 301q-33 0 -54 20.5t-21 55.5t21 55.5t54 20.5q32 0 53 -21t21 -55t-21 -55t-53 -21z" />
    <glyph glyph-name="Lslash" unicode="&#x141;" horiz-adv-x="545" 
d="M238 700v-282l100 28v-120l-100 -28v-164h276v-134h-426v257l-68 -19v120l68 19v323h150z" />
    <glyph glyph-name="lslash" unicode="&#x142;" horiz-adv-x="339" 
d="M87 731h138v-316l83 23v-120l-83 -23v-108q0 -56 22.5 -76t73.5 -12l5 -106q-124 -22 -181.5 15.5t-57.5 165.5v83l-70 -20v120l70 20v354z" />
    <glyph glyph-name="Nacute" unicode="&#x143;" horiz-adv-x="752" 
d="M626 -2l-396 402v-400h-149v703h47l393 -400v397h150v-702h-45zM385 746h-121v13l79 158l136 -48v-12z" />
    <glyph glyph-name="nacute" unicode="&#x144;" horiz-adv-x="614" 
d="M555 0h-141v279q2 47 -24.5 75t-66.5 28q-42 0 -72 -28.5t-30 -77.5v-276h-140v333q0 22 -0.5 31t-5 18t-14 11.5t-26.5 2.5v87q176 30 176 -65q19 39 62.5 57t91.5 18q97 0 143.5 -59t46.5 -155v-279zM342 575h-117v12l77 142l131 -43v-11z" />
    <glyph glyph-name="Ncommaaccent" unicode="&#x145;" horiz-adv-x="752" 
d="M491 -124q0 -18 -7 -32l-40 -111h-81l24 71q-57 19 -57 73q0 34 22.5 54.5t57.5 20.5q27 0 48 -14t29 -37q4 -9 4 -25zM626 -2l-396 402v-400h-149v703h47l393 -400v397h150v-702h-45z" />
    <glyph glyph-name="ncommaaccent" unicode="&#x146;" horiz-adv-x="614" 
d="M403 -126q0 -17 -7 -30l-38 -106h-78l23 68q-54 16 -54 69q0 32 21.5 52t54.5 20q57 0 74 -49q4 -9 4 -24zM555 0h-141v279q2 47 -24.5 75t-66.5 28q-42 0 -72 -28.5t-30 -77.5v-276h-140v333q0 22 -0.5 31t-5 18t-14 11.5t-26.5 2.5v87q176 30 176 -65q19 39 62.5 57
t91.5 18q97 0 143.5 -59t46.5 -155v-279z" />
    <glyph glyph-name="Ncaron" unicode="&#x147;" horiz-adv-x="752" 
d="M626 -2l-396 402v-400h-149v703h47l393 -400v397h150v-702h-45zM139 909h136l77 -78l75 78h138v-13l-143 -148h-141l-142 148v13z" />
    <glyph glyph-name="ncaron" unicode="&#x148;" horiz-adv-x="614" 
d="M555 0h-141v279q2 47 -24.5 75t-66.5 28q-42 0 -72 -28.5t-30 -77.5v-276h-140v333q0 22 -0.5 31t-5 18t-14 11.5t-26.5 2.5v87q176 30 176 -65q19 39 62.5 57t91.5 18q97 0 143.5 -59t46.5 -155v-279zM76 722h136l77 -78l75 78h138v-13l-143 -148h-141l-142 148v13z" />
    <glyph glyph-name="napostrophe" unicode="&#x149;" horiz-adv-x="614" 
d="M555 0h-141v279q2 47 -24.5 75t-66.5 28q-42 0 -72 -28.5t-30 -77.5v-276h-140v333q0 22 -0.5 31t-5 18t-14 11.5t-26.5 2.5v87q176 30 176 -65q19 39 62.5 57t91.5 18q97 0 143.5 -59t46.5 -155v-279z" />
    <glyph glyph-name="Eng" unicode="&#x14a;" horiz-adv-x="752" 
d="M446 -190l4 101q57 -8 76.5 12.5t19.5 79.5v74l-316 344v-421h-149v703h47l393 -408v405h150v-698q0 -124 -55.5 -168.5t-169.5 -23.5z" />
    <glyph glyph-name="eng" unicode="&#x14b;" horiz-adv-x="611" 
d="M551 279v-289q0 -235 -238 -191q3 78 4 94q56 -8 76 15.5t20 83.5v287q2 47 -24.5 75t-66.5 28q-42 0 -72 -28.5t-30 -77.5v-276h-140v338q0 47 -5 56q-9 14 -41 12v77q36 6 76 9t72.5 -16t33.5 -58v-10q19 40 60.5 62.5t87.5 22.5q96 0 142.5 -59t44.5 -155z" />
    <glyph glyph-name="Omacron" unicode="&#x14c;" horiz-adv-x="799" 
d="M757 350q0 -160 -100 -261t-259 -101q-149 0 -252.5 96.5t-103.5 265.5q0 113 51.5 197t132 124t175.5 40q70 0 133 -24t113.5 -68t80 -114t29.5 -155zM193 350q0 -109 59 -167t148 -58q88 0 148 58t60 167q0 106 -60 164.5t-147 58.5q-88 0 -148 -58.5t-60 -164.5z
M231 773v107h320v-107h-320z" />
    <glyph glyph-name="omacron" unicode="&#x14d;" horiz-adv-x="583" 
d="M547 243q0 -81 -38 -140t-94.5 -86t-123 -27t-123 27t-94.5 86t-38 140t38 140t94.5 85.5t123 26.5t123 -26.5t94.5 -85.5t38 -140zM175 243q0 -62 36.5 -97t80 -35t80 35t36.5 97q0 61 -36.5 96t-80 35t-80 -35t-36.5 -96zM128 571v107h320v-107h-320z" />
    <glyph glyph-name="Obreve" unicode="&#x14e;" horiz-adv-x="799" 
d="M757 350q0 -160 -100 -261t-259 -101q-149 0 -252.5 96.5t-103.5 265.5q0 113 51.5 197t132 124t175.5 40q70 0 133 -24t113.5 -68t80 -114t29.5 -155zM193 350q0 -109 59 -167t148 -58q88 0 148 58t60 167q0 106 -60 164.5t-147 58.5q-88 0 -148 -58.5t-60 -164.5z
M197 941h123q0 -30 26 -47.5t56.5 -17.5t56.5 17.5t26 47.5h121q0 -48 -22.5 -86t-58.5 -57.5t-79.5 -28.5t-87.5 0.5t-80 29t-58.5 57t-22.5 85.5z" />
    <glyph glyph-name="obreve" unicode="&#x14f;" horiz-adv-x="583" 
d="M547 243q0 -81 -38 -140t-94.5 -86t-123 -27t-123 27t-94.5 86t-38 140t38 140t94.5 85.5t123 26.5t123 -26.5t94.5 -85.5t38 -140zM175 243q0 -62 36.5 -97t80 -35t80 35t36.5 97q0 61 -36.5 96t-80 35t-80 -35t-36.5 -96zM101 717h116q0 -38 38.5 -53.5t77.5 0t39 53.5
h114q0 -53 -28.5 -91.5t-71.5 -56t-92.5 -17t-92.5 18t-71.5 56t-28.5 90.5z" />
    <glyph glyph-name="Ohungarumlaut" unicode="&#x150;" horiz-adv-x="799" 
d="M215 763v12l56 150l125 -28v-11l-71 -123h-110zM431 763v12l55 139l124 -34v-12l-70 -105h-109zM757 350q0 -160 -100 -261t-259 -101q-149 0 -252.5 96.5t-103.5 265.5q0 113 51.5 197t132 124t175.5 40q70 0 133 -24t113.5 -68t80 -114t29.5 -155zM193 350
q0 -109 59 -167t148 -58q88 0 148 58t60 167q0 106 -60 164.5t-147 58.5q-88 0 -148 -58.5t-60 -164.5z" />
    <glyph glyph-name="ohungarumlaut" unicode="&#x151;" horiz-adv-x="583" 
d="M117 562v12l56 150l125 -28v-11l-71 -123h-110zM333 562v12l55 139l124 -34v-12l-70 -105h-109zM547 243q0 -81 -38 -140t-94.5 -86t-123 -27t-123 27t-94.5 86t-38 140t38 140t94.5 85.5t123 26.5t123 -26.5t94.5 -85.5t38 -140zM175 243q0 -62 36.5 -97t80 -35t80 35
t36.5 97q0 61 -36.5 96t-80 35t-80 -35t-36.5 -96z" />
    <glyph glyph-name="OE" unicode="&#x152;" horiz-adv-x="924" 
d="M871 0h-377q-52 -12 -103 -12q-150 0 -249 95.5t-99 264.5q0 171 102.5 267t254.5 94q53 0 98 -11h363v-126h-259v-150h242v-118h-242v-180h269v-124zM187 348q0 -110 60 -175t157 -65q38 0 72 11v454q-32 10 -73 12q-98 0 -157 -61.5t-59 -175.5z" />
    <glyph glyph-name="oe" unicode="&#x153;" horiz-adv-x="860" 
d="M175 241q0 -61 34 -96t75.5 -35t75.5 35t34 96t-34 96t-75.5 35t-75.5 -35t-34 -96zM37 241q0 64 23 115.5t59.5 81.5t83 44.5t92.5 9.5t89 -30t71 -68q24 47 69 72.5t101 25.5q61 0 105 -23.5t64.5 -62.5t26 -90t-9.5 -106h-294q7 -104 117 -109q73 -7 156 32l19 -103
q-91 -40 -177 -39q-136 2 -182 109q-22 -46 -61.5 -74t-85 -34.5t-93.5 6.5t-86 43t-62.5 82.5t-24.5 117.5zM614 386q-35 0 -61 -22.5t-34 -61.5h181q6 41 -20.5 62.5t-65.5 21.5z" />
    <glyph glyph-name="Racute" unicode="&#x154;" horiz-adv-x="691" 
d="M503 255l158 -233v-21h-160l-144 231h-125v-231h-150v700h299q115 0 181 -70.5t66 -169.5q0 -67 -33 -122t-92 -84zM230 355h150q46 0 75 31.5t28 77.5q0 45 -28 75.5t-75 30.5h-150v-215zM370 762h-127v13l84 155l143 -47v-12z" />
    <glyph glyph-name="racute" unicode="&#x155;" horiz-adv-x="463" 
d="M216 415q14 40 51.5 61t83.5 21q60 2 103 -31l-31 -117q-42 28 -90 26q-48 0 -80.5 -30.5t-32.5 -83.5v-261h-137v340q0 35 -9 49.5t-39 9.5v86q38 6 76.5 8t69.5 -18t35 -60zM267 565h-109v12l72 150l122 -45v-12z" />
    <glyph glyph-name="Rcommaaccent" unicode="&#x156;" horiz-adv-x="690" 
d="M444 -126q0 -18 -7 -32l-40 -111h-81l24 71q-57 19 -57 73q0 34 22.5 54.5t57.5 20.5q27 0 48 -14t29 -37q4 -9 4 -25zM502 255l158 -233v-21h-160l-144 231h-125v-231h-150v700h299q115 0 181 -70.5t66 -169.5q0 -67 -33 -122t-92 -84zM229 355h150q46 0 75 31.5
t28 77.5q0 45 -28 75.5t-75 30.5h-150v-215z" />
    <glyph glyph-name="rcommaaccent" unicode="&#x157;" horiz-adv-x="463" 
d="M238 -128q0 -18 -7 -31l-38 -107h-78l23 68q-55 19 -55 71q0 32 22 52t55 20q57 0 74 -49q4 -9 4 -24zM216 415q14 40 51.5 61t83.5 21q60 2 103 -31l-31 -117q-42 28 -90 26q-48 0 -80.5 -30.5t-32.5 -83.5v-261h-137v340q0 35 -9 49.5t-39 9.5v86q38 6 76.5 8t69.5 -18
t35 -60z" />
    <glyph glyph-name="Rcaron" unicode="&#x158;" horiz-adv-x="691" 
d="M503 255l158 -233v-21h-160l-144 231h-125v-231h-150v700h299q115 0 181 -70.5t66 -169.5q0 -67 -33 -122t-92 -84zM230 355h150q46 0 75 31.5t28 77.5q0 45 -28 75.5t-75 30.5h-150v-215zM119 928h136l77 -78l75 78h138v-13l-143 -148h-141l-142 148v13z" />
    <glyph glyph-name="rcaron" unicode="&#x159;" horiz-adv-x="463" 
d="M216 415q14 40 51.5 61t83.5 21q60 2 103 -31l-31 -117q-42 28 -90 26q-48 0 -80.5 -30.5t-32.5 -83.5v-261h-137v340q0 35 -9 49.5t-39 9.5v86q38 6 76.5 8t69.5 -18t35 -60zM38 709h127l72 -74l71 74h129v-12l-134 -140h-132l-133 140v12z" />
    <glyph glyph-name="Sacute" unicode="&#x15a;" horiz-adv-x="648" 
d="M42 207h143q2 -45 43.5 -68t97.5 -23q134 0 134 88q0 23 -10.5 40t-23.5 25.5t-37 14.5t-39.5 8t-42.5 4q-255 22 -255 199q0 109 76 164.5t190 55.5q52 0 97.5 -11.5t84.5 -35.5t62 -66.5t23 -98.5h-140q-6 40 -42 60.5t-85 20.5q-48 0 -83.5 -23.5t-35.5 -62.5
q0 -42 34.5 -59.5t99.5 -24.5q63 -6 106.5 -16t85 -32t62.5 -62.5t21 -99.5t-24 -103t-65.5 -68t-89 -35.5t-102.5 -12.5q-116 0 -200.5 57.5t-84.5 164.5zM370 776h-123v13l81 155l138 -47v-12z" />
    <glyph glyph-name="sacute" unicode="&#x15b;" horiz-adv-x="512" 
d="M35 147h140q1 -28 24 -43t55 -14q82 0 83 55q0 14 -5 23t-17.5 14t-20.5 6.5t-26 4.5q-112 15 -153 35q-70 34 -70 108q0 78 57 118.5t150 40.5q92 0 152.5 -40.5t56.5 -113.5h-132q-1 25 -22 37t-53 12q-31 0 -52.5 -13.5t-21.5 -36.5q0 -17 12 -27t24.5 -12.5
t32.5 -4.5q111 -13 150 -29q80 -34 78 -122q-1 -55 -33.5 -91.5t-79 -51.5t-104.5 -15q-219 0 -225 160zM287 567h-109v12l72 148l121 -44v-12z" />
    <glyph glyph-name="Scircumflex" unicode="&#x15c;" horiz-adv-x="648" 
d="M42 207h143q2 -45 43.5 -68t97.5 -23q134 0 134 88q0 23 -10.5 40t-23.5 25.5t-37 14.5t-39.5 8t-42.5 4q-255 22 -255 199q0 109 76 164.5t190 55.5q52 0 97.5 -11.5t84.5 -35.5t62 -66.5t23 -98.5h-140q-6 40 -42 60.5t-85 20.5q-48 0 -83.5 -23.5t-35.5 -62.5
q0 -42 34.5 -59.5t99.5 -24.5q63 -6 106.5 -16t85 -32t62.5 -62.5t21 -99.5t-24 -103t-65.5 -68t-89 -35.5t-102.5 -12.5q-116 0 -200.5 57.5t-84.5 164.5zM540 765h-133l-79 78l-78 -78h-135v14l143 148h140l142 -149v-13z" />
    <glyph glyph-name="scircumflex" unicode="&#x15d;" horiz-adv-x="512" 
d="M35 147h140q1 -28 24 -43t55 -14q82 0 83 55q0 14 -5 23t-17.5 14t-20.5 6.5t-26 4.5q-112 15 -153 35q-70 34 -70 108q0 78 57 118.5t150 40.5q92 0 152.5 -40.5t56.5 -113.5h-132q-1 25 -22 37t-53 12q-31 0 -52.5 -13.5t-21.5 -36.5q0 -17 12 -27t24.5 -12.5
t32.5 -4.5q111 -13 150 -29q80 -34 78 -122q-1 -55 -33.5 -91.5t-79 -51.5t-104.5 -15q-219 0 -225 160zM448 558h-120l-70 73l-70 -73h-122v14l129 138h125l128 -139v-13z" />
    <glyph glyph-name="Scedilla" unicode="&#x15e;" horiz-adv-x="647" 
d="M42 207h143q2 -45 43.5 -68t97.5 -23q52 0 93 23.5t41 64.5q0 23 -10.5 40t-23.5 25.5t-37 14.5t-39.5 8t-42.5 4q-255 22 -255 198q0 70 38.5 121.5t98 75.5t129.5 24q107 0 187 -57t80 -161h-140q-2 43 -38.5 64t-86.5 21q-48 0 -84.5 -20t-36.5 -65q0 -41 34.5 -58.5
t99.5 -24.5q63 -6 106.5 -16t85 -32t62.5 -62.5t21 -99.5q0 -87 -62 -141.5t-155 -70.5l-14 -59q48 -6 66.5 -38.5t5.5 -75.5q-14 -42 -57.5 -60t-92.5 -11.5t-87 30.5l8 77q23 -18 62.5 -18.5t50.5 23.5q7 25 -16.5 36t-51.5 11l21 81q-102 9 -173 65.5t-71 153.5z" />
    <glyph glyph-name="scedilla" unicode="&#x15f;" horiz-adv-x="514" 
d="M36 147h140q1 -28 24 -43t55 -14q82 0 83 55q0 14 -5 23t-17.5 14t-20.5 6.5t-26 4.5q-112 15 -153 35q-70 34 -70 108q0 78 57 118.5t150 40.5q92 0 152.5 -40.5t56.5 -113.5h-132q-1 25 -22 37t-53 12q-31 0 -52.5 -13.5t-21.5 -36.5q0 -17 12 -27t24.5 -12.5
t32.5 -4.5q111 -13 150 -29q80 -34 78 -122q-2 -68 -46.5 -105.5t-115.5 -48.5l-10 -39q44 -5 61 -34t4 -67q-11 -38 -50.5 -54t-84 -10.5t-77.5 26.5l7 69q20 -16 56 -16.5t45 21.5q7 21 -14 31.5t-46 10.5l15 60q-182 15 -186 158z" />
    <glyph glyph-name="Scaron" unicode="&#x160;" horiz-adv-x="648" 
d="M42 207h143q2 -45 43.5 -68t97.5 -23q134 0 134 88q0 23 -10.5 40t-23.5 25.5t-37 14.5t-39.5 8t-42.5 4q-255 22 -255 199q0 109 76 164.5t190 55.5q52 0 97.5 -11.5t84.5 -35.5t62 -66.5t23 -98.5h-140q-6 40 -42 60.5t-85 20.5q-48 0 -83.5 -23.5t-35.5 -62.5
q0 -42 34.5 -59.5t99.5 -24.5q63 -6 106.5 -16t85 -32t62.5 -62.5t21 -99.5t-24 -103t-65.5 -68t-89 -35.5t-102.5 -12.5q-116 0 -200.5 57.5t-84.5 164.5zM113 936h136l77 -78l75 78h138v-13l-143 -148h-141l-142 148v13z" />
    <glyph glyph-name="scaron" unicode="&#x161;" horiz-adv-x="512" 
d="M35 147h140q1 -28 24 -43t55 -14q82 0 83 55q0 14 -5 23t-17.5 14t-20.5 6.5t-26 4.5q-112 15 -153 35q-70 34 -70 108q0 78 57 118.5t150 40.5q92 0 152.5 -40.5t56.5 -113.5h-132q-1 25 -22 37t-53 12q-31 0 -52.5 -13.5t-21.5 -36.5q0 -17 12 -27t24.5 -12.5
t32.5 -4.5q111 -13 150 -29q80 -34 78 -122q-1 -55 -33.5 -91.5t-79 -51.5t-104.5 -15q-219 0 -225 160zM66 706h124l69 -71l68 71h125v-12l-129 -133h-128l-129 133v12z" />
    <glyph glyph-name="Tcommaaccent" unicode="&#x162;" 
d="M204 568h-184v132h511v-132h-182v-568h-23l-13 -55q48 -6 66 -38t5 -76q-10 -32 -38.5 -50.5t-63 -21t-70.5 5.5t-64 25l8 77q22 -18 62 -18.5t50 23.5q7 25 -16 36t-51 11l21 81h-18v568z" />
    <glyph glyph-name="tcommaaccent" unicode="&#x163;" horiz-adv-x="451" 
d="M249 631v-150h157v-99h-157v-189q0 -48 25.5 -72t62.5 -22.5t79 14.5l13 -106q-56 -15 -106 -18l-11 -44q48 -6 66 -38t5 -76q-10 -32 -38.5 -50.5t-63 -21t-70.5 5.5t-64 25l8 77q22 -18 62 -18.5t50 23.5q7 25 -16 36t-51 11l21 82q-109 37 -109 189v192l-91 9v90h91
l15 150h122z" />
    <glyph glyph-name="Tcaron" unicode="&#x164;" horiz-adv-x="554" 
d="M205 570h-187v130h518v-130h-186v-570h-145v570zM63 921h136l77 -78l75 78h138v-13l-143 -148h-141l-142 148v13z" />
    <glyph glyph-name="tcaron" unicode="&#x165;" horiz-adv-x="484" 
d="M249 631v-150h106v-105h-106v-187q0 -47 24.5 -70.5t60.5 -21t78 15.5l13 -106q-65 -18 -119.5 -19t-99 16.5t-69.5 63.5t-25 118v190l-91 9v96h101l15 150h112zM519 566q-2 -18 -7 -30l-38 -118h-77l22 80q-24 6 -39 24t-15 44q0 33 21.5 53t55.5 20q56 0 73 -49
q4 -11 4 -24z" />
    <glyph glyph-name="Tbar" unicode="&#x166;" horiz-adv-x="554" 
d="M110 259v111h95v198h-184v132h511v-132h-182v-198h90v-111h-90v-259h-145v259h-95z" />
    <glyph glyph-name="tbar" unicode="&#x167;" horiz-adv-x="452" 
d="M251 631v-150h157v-99h-157v-89h89v-95h-89v-13q0 -36 14.5 -57.5t39.5 -27t53 -2.5t60 15l13 -106q-52 -14 -97 -18.5t-86 3.5t-70.5 29.5t-46.5 62t-17 98.5v16h-72v95h72v89q-6 1 -91 9v90h91l15 150h122z" />
    <glyph glyph-name="Utilde" unicode="&#x168;" horiz-adv-x="707" 
d="M355 -9q-117 0 -198.5 64.5t-81.5 177.5v467h150v-464q0 -54 37.5 -83.5t92.5 -29.5t92 29.5t37 83.5v464h148v-467q0 -113 -80 -177.5t-197 -64.5zM240 770l-75 36q62 155 198 86q81 -45 104 13l73 -34q-21 -69 -73 -95.5t-115 4.5q-27 14 -42.5 20t-36.5 1t-33 -31z
" />
    <glyph glyph-name="utilde" unicode="&#x169;" horiz-adv-x="605" 
d="M383 482h140v-337q0 -37 7.5 -48.5t37.5 -9.5l1 -87q-29 -7 -56.5 -9t-56 2.5t-46 24t-17.5 52.5q-19 -39 -61.5 -58t-92.5 -19q-179 0 -179 213v276h141v-276q-2 -49 21.5 -76t61.5 -27q43 -1 71 28.5t28 77.5v273zM186 579l-72 35q58 149 192 83q79 -44 101 13l70 -33
q-18 -67 -70.5 -93t-111.5 5q-49 23 -67 23q-26 -2 -42 -33z" />
    <glyph glyph-name="Umacron" unicode="&#x16a;" horiz-adv-x="707" 
d="M355 -9q-117 0 -198.5 64.5t-81.5 177.5v467h150v-464q0 -54 37.5 -83.5t92.5 -29.5t92 29.5t37 83.5v464h148v-467q0 -113 -80 -177.5t-197 -64.5zM192 769v107h320v-107h-320z" />
    <glyph glyph-name="umacron" unicode="&#x16b;" horiz-adv-x="605" 
d="M383 482h140v-337q0 -37 7.5 -48.5t37.5 -9.5l1 -87q-29 -7 -56.5 -9t-56 2.5t-46 24t-17.5 52.5q-19 -39 -61.5 -58t-92.5 -19q-179 0 -179 213v276h141v-276q-2 -49 21.5 -76t61.5 -27q43 -1 71 28.5t28 77.5v273zM131 572v107h320v-107h-320z" />
    <glyph glyph-name="Ubreve" unicode="&#x16c;" horiz-adv-x="707" 
d="M355 -9q-117 0 -198.5 64.5t-81.5 177.5v467h150v-464q0 -54 37.5 -83.5t92.5 -29.5t92 29.5t37 83.5v464h148v-467q0 -113 -80 -177.5t-197 -64.5zM151 940h123q0 -30 26 -47.5t56.5 -17.5t56.5 17.5t26 47.5h121q0 -48 -22.5 -86t-58.5 -57.5t-80 -28.5t-87.5 0.5
t-79.5 29t-58.5 57t-22.5 85.5z" />
    <glyph glyph-name="ubreve" unicode="&#x16d;" horiz-adv-x="605" 
d="M383 482h140v-337q0 -37 7.5 -48.5t37.5 -9.5l1 -87q-29 -7 -56.5 -9t-56 2.5t-46 24t-17.5 52.5q-19 -39 -61.5 -58t-92.5 -19q-179 0 -179 213v276h141v-276q-2 -49 21.5 -76t61.5 -27q43 -1 71 28.5t28 77.5v273zM97 710h115q0 -28 24 -44.5t52.5 -16.5t52.5 16.5
t24 44.5h113q0 -52 -28 -90.5t-70.5 -55.5t-92 -16.5t-92 17.5t-70.5 55t-28 90z" />
    <glyph glyph-name="Uring" unicode="&#x16e;" horiz-adv-x="707" 
d="M355 -9q-117 0 -198.5 64.5t-81.5 177.5v467h150v-464q0 -54 37.5 -83.5t92.5 -29.5t92 29.5t37 83.5v464h148v-467q0 -113 -80 -177.5t-197 -64.5zM480 854q0 -56 -39.5 -87.5t-87.5 -31.5t-87.5 31.5t-39.5 87.5t39.5 87.5t87.5 31.5t87.5 -31.5t39.5 -87.5zM303 854
q0 -28 25.5 -40t50.5 0t25 40q0 22 -16 34t-34.5 12t-34.5 -12t-16 -34z" />
    <glyph glyph-name="uring" unicode="&#x16f;" horiz-adv-x="605" 
d="M383 482h140v-337q0 -37 7.5 -48.5t37.5 -9.5l1 -87q-29 -7 -56.5 -9t-56 2.5t-46 24t-17.5 52.5q-19 -39 -61.5 -58t-92.5 -19q-179 0 -179 213v276h141v-276q-2 -49 21.5 -76t61.5 -27q43 -1 71 28.5t28 77.5v273zM416 642q0 -30 -13.5 -54t-35.5 -36t-48.5 -18t-53 0
t-48.5 18t-35.5 36t-13.5 54q0 41 25.5 69.5t62 35t73 0t62 -35t25.5 -69.5zM243 642q0 -26 24.5 -37t49.5 0t25 37t-25 37t-49.5 0t-24.5 -37z" />
    <glyph glyph-name="Uhungarumlaut" unicode="&#x170;" horiz-adv-x="707" 
d="M355 -9q-117 0 -198.5 64.5t-81.5 177.5v467h150v-464q0 -54 37.5 -83.5t92.5 -29.5t92 29.5t37 83.5v464h148v-467q0 -113 -80 -177.5t-197 -64.5zM186 777v12l56 150l125 -28v-11l-71 -123h-110zM402 777v12l55 139l124 -34v-12l-70 -105h-109z" />
    <glyph glyph-name="uhungarumlaut" unicode="&#x171;" horiz-adv-x="605" 
d="M383 482h140v-337q0 -37 7.5 -48.5t37.5 -9.5l1 -87q-29 -7 -56.5 -9t-56 2.5t-46 24t-17.5 52.5q-19 -39 -61.5 -58t-92.5 -19q-179 0 -179 213v276h141v-276q-2 -49 21.5 -76t61.5 -27q43 -1 71 28.5t28 77.5v273zM134 573v12l53 141l118 -26v-10l-67 -117h-104z
M338 573v12l52 131l117 -32v-11l-66 -100h-103z" />
    <glyph glyph-name="Uogonek" unicode="&#x172;" horiz-adv-x="708" 
d="M355 -9q-117 0 -198.5 64.5t-81.5 177.5v467h150v-464q0 -54 37 -83.5t93 -29.5q55 0 92 29.5t37 83.5v464h148v-467q0 -148 -137 -214q-25 -20 -35 -46.5t2 -52.5q12 -22 38.5 -25t49 6t42.5 22l20 -88q-29 -19 -67 -29.5t-76.5 -10.5t-70.5 21t-43 62q-17 60 23 115
q-14 -2 -23 -2z" />
    <glyph glyph-name="uogonek" unicode="&#x173;" horiz-adv-x="604" 
d="M383 482h140v-327v-16v-14.5t0.5 -12t1.5 -11.5t3 -8.5t5.5 -7.5l8 -4.5t11.5 -2.5h15l1 -78q-52 -9 -78 -10q-22 -19 -31 -43t2 -49q11 -20 35 -22.5t46 6t40 20.5l18 -83q-27 -18 -62 -27t-70 -7t-64 22.5t-39 59.5q-13 39 3.5 74.5t50.5 61.5q-33 19 -33 66v11
q-20 -41 -60.5 -64t-87.5 -23q-53 0 -89 17t-55 49t-27 69.5t-8 87.5v266h141v-266q-2 -54 19.5 -83.5t63.5 -29.5q43 -1 71 28.5t28 77.5v273z" />
    <glyph glyph-name="Wcircumflex" unicode="&#x174;" horiz-adv-x="970" 
d="M454 688h61l151 -434h3l59 233l70 213h157v-22l-241 -684h-89l-139 378h-3l-135 -378h-92l-242 684v22h157l71 -214l63 -232h3zM697 760h-133l-79 78l-78 -78h-135v14l143 148h140l142 -149v-13z" />
    <glyph glyph-name="wcircumflex" unicode="&#x175;" horiz-adv-x="769" 
d="M272 -7h-62l-198 473v16h149l51 -141l37 -110h2l108 240h53l109 -240h3l36 110l47 141h151v-16l-200 -473h-53l-60 118l-60 127l-58 -131zM584 562h-126l-75 74l-73 -74h-128v13l135 140h133l134 -141v-12z" />
    <glyph glyph-name="Ycircumflex" unicode="&#x176;" horiz-adv-x="635" 
d="M316 417h5l69 139l84 144h159v-22l-240 -398v-280h-150v280l-241 398v22h161l87 -149zM526 766h-133l-79 78l-78 -78h-135v14l143 148h140l142 -149v-13z" />
    <glyph glyph-name="ycircumflex" unicode="&#x177;" horiz-adv-x="559" 
d="M540 466l-204 -513q-20 -51 -38 -85t-43 -62.5t-54.5 -40t-70.5 -9.5t-93 21l15 97q60 -24 93 -5.5t55 80.5l18 50l-211 467v16h147l65 -163l63 -178h3l55 177l58 164h142v-16zM492 560h-133l-79 78l-78 -78h-135v14l143 148h140l142 -149v-13z" />
    <glyph glyph-name="Ydieresis" unicode="&#x178;" horiz-adv-x="635" 
d="M316 417h5l69 139l84 144h159v-22l-240 -398v-280h-150v280l-241 398v22h161l87 -149zM451 763q-34 0 -56.5 20t-22.5 52t22.5 52t56.5 20t56.5 -20t22.5 -52t-22.5 -52t-56.5 -20zM185 763q-33 0 -56 20t-23 52t23 52t56 20q34 0 57 -20t23 -52t-23 -52t-57 -20z" />
    <glyph glyph-name="Zacute" unicode="&#x179;" horiz-adv-x="605" 
d="M566 700v-22l-317 -544h320v-134h-547v21l321 548h-293v131h516zM357 779h-114v13l75 156l128 -47v-12z" />
    <glyph glyph-name="zacute" unicode="&#x17a;" horiz-adv-x="479" 
d="M441 482v-16l-210 -345h210v-121h-412v16l213 350h-198v116h397zM283 563h-107v13l71 146l120 -44v-11z" />
    <glyph glyph-name="Zdotaccent" unicode="&#x17b;" horiz-adv-x="605" 
d="M566 700v-22l-317 -544h320v-134h-547v21l321 548h-293v131h516zM309 762q-35 0 -58.5 21t-23.5 55t23.5 55.5t58.5 21.5q36 0 59.5 -21t23.5 -56t-23.5 -55.5t-59.5 -20.5z" />
    <glyph glyph-name="zdotaccent" unicode="&#x17c;" horiz-adv-x="479" 
d="M441 482v-16l-210 -345h210v-121h-412v16l213 350h-198v116h397zM247 555q-33 0 -55.5 20t-22.5 52q0 33 22.5 53.5t55.5 20.5q34 0 57 -20.5t23 -53.5q0 -32 -23 -52t-57 -20z" />
    <glyph glyph-name="Zcaron" unicode="&#x17d;" horiz-adv-x="605" 
d="M566 700v-22l-317 -544h320v-134h-547v21l321 548h-293v131h516zM104 931h136l77 -78l75 78h138v-13l-143 -148h-141l-142 148v13z" />
    <glyph glyph-name="zcaron" unicode="&#x17e;" horiz-adv-x="479" 
d="M441 482v-16l-210 -345h210v-121h-412v16l213 350h-198v116h397zM63 708h116l65 -67l64 67h117v-11l-121 -126h-120l-121 126v11z" />
    <glyph glyph-name="longs" unicode="&#x17f;" horiz-adv-x="342" 
d="M110 0v383h-89v99h92v57q0 71 25 117t69 63t97 16t115 -20l-14 -104q-29 11 -55 14t-49.5 -2.5t-37 -27.5t-13.5 -59v-536h-140z" />
    <glyph glyph-name="florin" unicode="&#x192;" horiz-adv-x="558" 
d="M347 -32q0 -71 -26 -116.5t-71 -62.5t-99 -15.5t-115 20.5l13 104q40 -15 74 -16.5t60 20t26 69.5v320h-145v100h145q0 12 -0.5 47.5t-0.5 53.5t2 44.5t6 44.5q10 54 39 87.5t72 44.5t92 8t105 -19l-14 -104q-29 11 -56 14t-52 -2.5t-39.5 -28t-14.5 -59.5v-131h150v-100
h-150q0 -54 -0.5 -161.5t-0.5 -161.5z" />
    <glyph glyph-name="Aringacute" unicode="&#x1fa;" horiz-adv-x="703" 
d="M302 734q0 -18 16 -28.5t34.5 -10.5t34.5 10.5t16 28.5q0 19 -16 29.5t-34.5 10.5t-34.5 -10.5t-16 -29.5zM354 458h-5l-94 -216h194zM497 116h-291l-54 -116h-156v20l293 624q-65 28 -65 91q0 49 40 76.5t87.5 27.5t87.5 -27.5t40 -76.5q0 -63 -64 -90l292 -625v-20
h-155zM402 859h-111v10l82 120l125 -26v-9z" />
    <glyph glyph-name="aringacute" unicode="&#x1fb;" 
d="M374 74q-20 -42 -67.5 -62.5t-99.5 -20.5q-70 0 -121.5 41.5t-53.5 109.5q-4 85 49 129.5t138 44.5q79 0 128 -31v33q0 69 -120 69q-87 0 -139 -29l-18 100q76 36 181 36q230 0 230 -180v-174q0 -20 0.5 -28t4.5 -18.5t13.5 -13.5t26.5 -2l1 -78q-38 -7 -72 -7
t-57.5 20.5t-23.5 60.5zM344 173v25q-41 28 -100 28q-35 -2 -57 -21.5t-18 -53.5q2 -25 21 -38.5t45 -13.5q39 0 72.5 19.5t36.5 54.5zM399 639q0 -40 -26.5 -68t-64.5 -34.5t-76 0t-64.5 34.5t-26.5 68t26.5 68t64.5 34.5t76 0t64.5 -34.5t26.5 -68zM219 639
q0 -25 25.5 -36t51.5 0t26 36q0 26 -26 37t-51.5 0t-25.5 -37zM331 773h-124v10l81 120l139 -36v-9z" />
    <glyph glyph-name="AEacute" unicode="&#x1fc;" horiz-adv-x="824" 
d="M215 169l-76 -169h-144v22l326 676h440v-128h-243v-145h227v-124h-227v-173h254v-128h-382v169h-175zM394 570l-133 -279h129l6 279h-2zM538 765h-114v13l75 156l128 -47v-12z" />
    <glyph glyph-name="aeacute" unicode="&#x1fd;" horiz-adv-x="806" 
d="M343 170l-3 26q-50 33 -99 28q-34 -1 -55.5 -21t-18.5 -53q2 -26 20.5 -39.5t44.5 -13.5q37 0 71 19.5t40 53.5zM203 -10q-69 0 -119.5 41t-52.5 109q-2 73 37 116.5t106 53.5q27 4 55 3q70 -5 112 -31v27q0 41 -38 59.5t-84 18.5q-73 0 -133 -31l-17 98q73 38 176 38
q135 0 163 -88q20 42 63.5 65t94.5 23q121 0 170.5 -81.5t21.5 -199.5h-302q6 -114 119 -116q40 -2 86 7.5t77 23.5l17 -96q-97 -42 -181 -42q-125 0 -180 92q-74 -90 -191 -90zM558 384q-36 2 -63.5 -20t-35.5 -61h182q2 37 -21.5 59t-61.5 22zM460 563h-109v12l72 148
l121 -44v-12z" />
    <glyph glyph-name="Oslashacute" unicode="&#x1fe;" horiz-adv-x="796" 
d="M640 622q114 -101 114 -272q0 -113 -51.5 -197.5t-131.5 -124.5t-174 -40q-65 0 -122 22l-42 -70h-70q-70 -1 -70 0v15l70 117q-121 101 -121 278q0 113 51.5 197t131.5 124t174 40q71 0 132 -24l40 69h141v-14zM345 140q24 -10 55 -10q85 0 145 60t60 160q0 88 -51 142z
M461 558q-31 11 -62 11q-86 0 -146.5 -59t-60.5 -160q0 -94 56 -150zM447 789h-114v13l75 156l128 -47v-12z" />
    <glyph glyph-name="oslashacute" unicode="&#x1ff;" horiz-adv-x="584" 
d="M548 243q0 -71 -30 -126.5t-76.5 -83.5t-104 -39.5t-111.5 5.5l-27 -55h-109l48 94q-101 67 -101 205q0 95 52 159t126 83.5t150 0.5l29 58h109l-50 -100q95 -70 95 -201zM171 243q0 -55 33 -86l110 218q-54 11 -98.5 -25t-44.5 -107zM415 243q0 48 -30 82l-110 -215
q53 -9 96.5 27t43.5 106zM335 576h-107v12l71 148l120 -45v-11z" />
    <glyph glyph-name="Scommaaccent" unicode="&#x218;" horiz-adv-x="648" 
d="M427 -134q0 -18 -7 -32l-40 -111h-81l24 71q-57 19 -57 73q0 34 22.5 54.5t57.5 20.5q27 0 48 -14t29 -37q4 -9 4 -25zM42 207h143q2 -45 43.5 -68t97.5 -23q134 0 134 88q0 23 -10.5 40t-23.5 25.5t-37 14.5t-39.5 8t-42.5 4q-255 22 -255 199q0 109 76 164.5t190 55.5
q52 0 97.5 -11.5t84.5 -35.5t62 -66.5t23 -98.5h-140q-6 40 -42 60.5t-85 20.5q-48 0 -83.5 -23.5t-35.5 -62.5q0 -42 34.5 -59.5t99.5 -24.5q63 -6 106.5 -16t85 -32t62.5 -62.5t21 -99.5t-24 -103t-65.5 -68t-89 -35.5t-102.5 -12.5q-116 0 -200.5 57.5t-84.5 164.5z" />
    <glyph glyph-name="scommaaccent" unicode="&#x219;" horiz-adv-x="512" 
d="M348 -141q0 -16 -7 -31l-38 -105h-77l23 67q-54 19 -54 70q0 32 21.5 51.5t54.5 19.5q55 0 73 -48q4 -9 4 -24zM35 147h140q1 -28 24 -43t55 -14q82 0 83 55q0 14 -5 23t-17.5 14t-20.5 6.5t-26 4.5q-112 15 -153 35q-70 34 -70 108q0 78 57 118.5t150 40.5
q92 0 152.5 -40.5t56.5 -113.5h-132q-1 25 -22 37t-53 12q-31 0 -52.5 -13.5t-21.5 -36.5q0 -17 12 -27t24.5 -12.5t32.5 -4.5q111 -13 150 -29q80 -34 78 -122q-1 -55 -33.5 -91.5t-79 -51.5t-104.5 -15q-219 0 -225 160z" />
    <glyph glyph-name="uni021A" unicode="&#x21a;" horiz-adv-x="554" 
d="M366 -124q0 -18 -7 -32l-40 -111h-81l24 71q-57 19 -57 73q0 34 22.5 54.5t57.5 20.5q27 0 48 -14t29 -37q4 -9 4 -25zM205 570h-187v130h518v-130h-186v-570h-145v570z" />
    <glyph glyph-name="uni021B" unicode="&#x21b;" horiz-adv-x="450" 
d="M347 -140q0 -15 -7 -30l-36 -103h-75l22 65q-53 19 -53 69q0 31 21 50t53 19q56 0 71 -47q4 -11 4 -23zM249 631v-150h157v-105h-157v-187q0 -47 24.5 -70.5t60.5 -21t78 15.5l13 -106q-65 -18 -119.5 -19t-99 16.5t-69.5 63.5t-25 118v190l-91 9v96h101l15 150h112z" />
    <glyph glyph-name="circumflex" unicode="&#x2c6;" horiz-adv-x="494" 
d="M471 540h-133l-79 78l-78 -78h-135v14l143 148h140l142 -149v-13z" />
    <glyph glyph-name="caron" unicode="&#x2c7;" horiz-adv-x="531" 
d="M51 701h136l77 -78l75 78h138v-13l-143 -148h-141l-142 148v13z" />
    <glyph glyph-name="breve" unicode="&#x2d8;" horiz-adv-x="529" 
d="M57 701h123q0 -30 26 -47.5t56.5 -17.5t56.5 17.5t26 47.5h121q0 -48 -22.5 -86t-58.5 -57.5t-80 -28.5t-87.5 0.5t-79.5 29t-58.5 57t-22.5 85.5z" />
    <glyph glyph-name="dotaccent" unicode="&#x2d9;" horiz-adv-x="321" 
d="M146 558q-35 0 -58.5 21t-23.5 55t23.5 55.5t58.5 21.5q36 0 59.5 -21t23.5 -56t-23.5 -55.5t-59.5 -20.5z" />
    <glyph glyph-name="ring" unicode="&#x2da;" horiz-adv-x="379" 
d="M314 611q0 -56 -39.5 -87.5t-87.5 -31.5t-87.5 31.5t-39.5 87.5t39.5 87.5t87.5 31.5t87.5 -31.5t39.5 -87.5zM137 611q0 -28 25.5 -40t50.5 0t25 40q0 22 -16 34t-34.5 12t-34.5 -12t-16 -34z" />
    <glyph glyph-name="ogonek" unicode="&#x2db;" horiz-adv-x="364" 
d="M126 9h100q-35 -18 -54 -52t-3 -63q12 -22 38.5 -24.5t49.5 6.5t43 22l19 -89q-40 -26 -91.5 -35t-99.5 11.5t-63 75.5q-25 82 61 148z" />
    <glyph glyph-name="tilde" unicode="&#x2dc;" horiz-adv-x="469" 
d="M121 573l-75 36q62 155 198 86q81 -45 104 13l73 -34q-21 -69 -73 -95.5t-115 4.5q-27 14 -42.5 20t-36.5 1t-33 -31z" />
    <glyph glyph-name="hungarumlaut" unicode="&#x2dd;" horiz-adv-x="518" 
d="M68 551v12l56 150l125 -28v-11l-71 -123h-110zM284 551v12l55 139l124 -34v-12l-70 -105h-109z" />
    <glyph glyph-name="afii10023" unicode="&#x401;" horiz-adv-x="572" 
d="M510 700v-131h-278v-142h260v-131h-260v-160h286v-136h-437v700h429zM429 761q-34 0 -56.5 20t-22.5 52t22.5 52t56.5 20t56.5 -20t22.5 -52t-22.5 -52t-56.5 -20zM163 761q-33 0 -56 20t-23 52t23 52t56 20q34 0 57 -20t23 -52t-23 -52t-57 -20z" />
    <glyph glyph-name="afii10051" unicode="&#x402;" horiz-adv-x="757" 
d="M719 88q0 -126 -61.5 -171t-178.5 -23l5 103q58 -7 76.5 12.5t18.5 79.5v159q0 48 -31 75t-77 28q-47 1 -85.5 -33.5t-40.5 -79.5v-238h-145v570h-181v130h550v-130h-224v-180q29 41 75.5 59.5t96.5 16.5q83 -2 142.5 -62.5t59.5 -155.5v-160z" />
    <glyph glyph-name="afii10052" unicode="&#x403;" horiz-adv-x="522" 
d="M507 569h-277v-569h-149v700h426v-131zM340 764h-112v13l91 160l126 -46v-13z" />
    <glyph glyph-name="afii10053" unicode="&#x404;" horiz-adv-x="760" 
d="M394 574q-78 1 -131.5 -41.5t-63.5 -117.5h256v-128h-254q13 -74 68 -117.5t131 -43.5q66 0 115 33t67 94h145q-14 -88 -65.5 -148.5t-118 -86.5t-143.5 -26q-70 0 -134 23.5t-114 67.5t-80 113t-30 154q0 84 29 153.5t78 114t112 68t133 23.5q117 0 209.5 -64.5
t115.5 -186.5h-145q-45 116 -180 116z" />
    <glyph glyph-name="afii10054" unicode="&#x405;" horiz-adv-x="648" 
d="M42 207h143q2 -45 43.5 -68t97.5 -23q134 0 134 88q0 23 -10.5 40t-23.5 25.5t-37 14.5t-39.5 8t-42.5 4q-255 22 -255 199q0 109 76 164.5t190 55.5q52 0 97.5 -11.5t84.5 -35.5t62 -66.5t23 -98.5h-140q-6 40 -42 60.5t-85 20.5q-48 0 -83.5 -23.5t-35.5 -62.5
q0 -42 34.5 -59.5t99.5 -24.5q63 -6 106.5 -16t85 -32t62.5 -62.5t21 -99.5t-24 -103t-65.5 -68t-89 -35.5t-102.5 -12.5q-116 0 -200.5 57.5t-84.5 164.5z" />
    <glyph glyph-name="afii10055" unicode="&#x406;" horiz-adv-x="438" 
d="M294 119h99v-119h-348v119h99v465h-91v116h332v-116h-91v-465z" />
    <glyph glyph-name="afii10056" unicode="&#x407;" horiz-adv-x="438" 
d="M294 119h99v-119h-348v119h99v465h-91v116h332v-116h-91v-465zM357 764q-34 0 -56.5 20t-22.5 52t22.5 52t56.5 20t56.5 -20t22.5 -52t-22.5 -52t-56.5 -20zM91 764q-33 0 -56 20t-23 52t23 52t56 20q34 0 57 -20t23 -52t-23 -52t-57 -20z" />
    <glyph glyph-name="afii10057" unicode="&#x408;" horiz-adv-x="630" 
d="M555 700v-468q0 -110 -77.5 -176t-190.5 -66q-112 0 -186.5 65.5t-74.5 176.5v85h139v-82q0 -55 33.5 -83.5t88.5 -28.5q54 0 86 29t32 83v336h-125v129h275z" />
    <glyph glyph-name="afii10058" unicode="&#x409;" horiz-adv-x="997" 
d="M604 349v-217q15 0 49.5 -0.5t45.5 -0.5q54 0 93 25t39 72q0 71 -37.5 96t-111.5 25h-78zM604 481h122q118 0 182 -74t64 -178q0 -102 -68.5 -165.5t-179.5 -63.5h-262v566h-151q-7 -66 -18 -188.5t-14 -158.5q-14 -146 -68 -191t-196 -25l3 108q64 -8 84 17t28 97
l50 475h424v-219z" />
    <glyph glyph-name="afii10059" unicode="&#x40a;" horiz-adv-x="997" 
d="M603 700v-243h121q117 0 183 -63.5t66 -163.5q-1 -102 -67 -166t-184 -64h-265v315h-227v-315h-149v700h149v-248h227v248h146zM722 324h-119v-192q59 -1 119 0q53 1 81.5 32.5t23.5 77.5q-5 37 -33 59.5t-72 22.5z" />
    <glyph glyph-name="afii10060" unicode="&#x40b;" horiz-adv-x="759" 
d="M719 0h-140v248q0 48 -31 75t-77 28q-47 1 -85.5 -33.5t-40.5 -80.5v-237h-145v570h-181v130h550v-130h-224v-185q19 42 68 64t102 22q99 0 151.5 -62.5t52.5 -160.5v-248z" />
    <glyph glyph-name="afii10061" unicode="&#x40c;" horiz-adv-x="703" 
d="M516 0l-176 288q-25 -7 -109 -7v-281h-150v700h150v-289q94 0 121 14q25 14 39 48t31 103q43 161 238 123v-102q-42 4 -66 -11t-34 -54q-39 -136 -89 -186l215 -324v-22h-170zM401 764h-112v13l91 160l125 -46v-13z" />
    <glyph glyph-name="afii10062" unicode="&#x40e;" horiz-adv-x="638" 
d="M150 914l101 9q8 -63 75 -63q68 0 79 63q37 -2 100 -9q-5 -78 -50.5 -123t-127.5 -45q-80 0 -126.5 45t-50.5 123zM224 176l30 63l-247 442v19h165l159 -309h5l142 309h159v-15l-264 -534q-26 -57 -52 -92.5t-63 -57t-86 -20t-113 25.5l20 116q51 -23 86 -11t59 64z" />
    <glyph glyph-name="afii10145" unicode="&#x40f;" horiz-adv-x="729" 
d="M295 -135v135h-214v700h150v-564h268v564h149v-700h-209v-135h-144z" />
    <glyph glyph-name="afii10017" unicode="&#x410;" horiz-adv-x="700" 
d="M495 116h-291l-54 -116h-156v20l322 686h69l320 -686v-20h-155zM350 473l-97 -231h194z" />
    <glyph glyph-name="afii10018" unicode="&#x411;" horiz-adv-x="662" 
d="M379 315h-151v-184h151q49 0 76 27t27 66t-27 65t-76 26zM228 569v-129h152q120 0 184 -60t64 -155q0 -97 -64.5 -161t-183.5 -64h-299v700h490v-131h-343z" />
    <glyph glyph-name="afii10019" unicode="&#x412;" horiz-adv-x="672" 
d="M599 492q0 -39 -18.5 -74t-51.5 -55q100 -42 100 -156q0 -94 -59 -150.5t-163 -56.5h-325v699h297q98 0 159 -55.5t61 -151.5zM368 571h-137v-159h137q38 0 60.5 20t23.5 55q1 38 -22 61t-62 23zM390 290h-159v-160h166q38 0 60 20.5t24 56.5q2 46 -31 69q-20 14 -60 14z
" />
    <glyph glyph-name="afii10020" unicode="&#x413;" horiz-adv-x="523" 
d="M507 565h-277v-565h-149v700h426v-135z" />
    <glyph glyph-name="afii10021" unicode="&#x414;" horiz-adv-x="748" 
d="M309 571l-37 -352q-7 -68 -47 -95h263v447h-179zM20 127h24q43 1 58.5 22.5t21.5 75.5l55 475h456v-573h75v-226h-134v99h-415v-99h-141v226z" />
    <glyph glyph-name="afii10022" unicode="&#x415;" horiz-adv-x="572" 
d="M510 700v-131h-278v-142h260v-131h-260v-160h286v-136h-437v700h429z" />
    <glyph glyph-name="afii10024" unicode="&#x416;" horiz-adv-x="1028" 
d="M1009 0h-169l-176 287q-39 -9 -76 -9v-278h-148v278q-37 0 -76 9l-176 -287h-169v22l215 324q-49 47 -84 189q-21 75 -106 62v101q203 43 239 -123q25 -120 74 -147q26 -16 83 -16v288h148v-288q58 0 84 16q21 12 37.5 41t22.5 50.5t14 55.5q35 166 238 123v-101
q-84 13 -106 -62q-19 -72 -36.5 -116t-46.5 -73l214 -324v-22z" />
    <glyph glyph-name="afii10025" unicode="&#x417;" horiz-adv-x="594" 
d="M190 528h-132q-4 91 61.5 138.5t163.5 47.5q106 0 169 -56t63 -142q0 -42 -21.5 -78t-58.5 -58q118 -54 118 -177q0 -98 -71.5 -157.5t-198.5 -59.5q-116 0 -184 59.5t-68 175.5h135q0 -51 33.5 -81t83.5 -30q54 0 86.5 28.5t32.5 73.5q0 43 -33.5 71.5t-85.5 28.5h-52
v120h51q40 0 66.5 23.5t26.5 57.5q0 38 -27 60t-65 22t-65.5 -17.5t-27.5 -49.5z" />
    <glyph glyph-name="afii10026" unicode="&#x418;" horiz-adv-x="752" 
d="M522 400l-396 -402h-45v702h150v-397l393 400h47v-703h-149v400z" />
    <glyph glyph-name="afii10027" unicode="&#x419;" horiz-adv-x="752" 
d="M229 914l101 9q8 -63 75 -63q68 0 79 63q37 -2 100 -9q-5 -78 -50.5 -123t-127.5 -45q-80 0 -126.5 45t-50.5 123zM126 -2l396 402v-400h149v703h-47l-393 -400v397h-150v-702h45z" />
    <glyph glyph-name="afii10028" unicode="&#x41a;" horiz-adv-x="703" 
d="M230 700v-289q95 0 121 13q25 14 39 47.5t31 104.5q45 163 239 123v-102q-43 4 -66.5 -11t-34.5 -54q-35 -133 -88 -186l214 -324v-22h-169l-176 288q-27 -7 -110 -7v-281h-149v700h149z" />
    <glyph glyph-name="afii10029" unicode="&#x41b;" horiz-adv-x="732" 
d="M311 566l-34 -365q-13 -136 -68 -177t-194 -21l3 108q61 -6 82 14t28 81l52 494h471v-700h-149v566h-191z" />
    <glyph glyph-name="afii10030" unicode="&#x41c;" horiz-adv-x="833" 
d="M417 369l281 333h54v-702h-150v379l-176 -220h-19l-176 220v-379h-150v702h55z" />
    <glyph glyph-name="afii10031" unicode="&#x41d;" horiz-adv-x="729" 
d="M648 0h-150v296h-268v-296h-149v700h149v-267h268v267h150v-700z" />
    <glyph glyph-name="afii10032" unicode="&#x41e;" horiz-adv-x="799" 
d="M757 350q0 -160 -100 -261t-259 -101q-149 0 -252.5 96.5t-103.5 265.5q0 113 51.5 197t132 124t175.5 40q70 0 133 -24t113.5 -68t80 -114t29.5 -155zM193 350q0 -109 59 -167t148 -58q88 0 148 58t60 167q0 106 -60 164.5t-147 58.5q-88 0 -148 -58.5t-60 -164.5z" />
    <glyph glyph-name="afii10033" unicode="&#x41f;" horiz-adv-x="729" 
d="M81 700h567v-700h-150v564h-267v-564h-150v700z" />
    <glyph glyph-name="afii10034" unicode="&#x420;" horiz-adv-x="655" 
d="M232 1h-150v700h299q116 0 182.5 -75t66.5 -180q0 -103 -67 -175t-182 -72h-149v-198zM229 327h152q47 0 76.5 35.5t29.5 87.5q0 51 -29 85.5t-77 34.5h-152v-243z" />
    <glyph glyph-name="afii10035" unicode="&#x421;" horiz-adv-x="761" 
d="M42 349q0 167 106 263.5t252 94.5q116 0 208 -63.5t115 -185.5h-145q-45 114 -178 114q-93 0 -150 -61.5t-57 -161.5q0 -92 57 -156t149 -64q67 0 116 32t66 94h144q-21 -130 -113 -196t-212 -66q-70 0 -134 23.5t-114 67t-80 112.5t-30 153z" />
    <glyph glyph-name="afii10036" unicode="&#x422;" horiz-adv-x="554" 
d="M205 570h-187v130h518v-130h-186v-570h-145v570z" />
    <glyph glyph-name="afii10037" unicode="&#x423;" horiz-adv-x="636" 
d="M223 176l30 63l-247 442v19h165l159 -309h5l142 309h159v-15l-264 -534q-26 -57 -52 -93t-62.5 -59.5t-86 -22.5t-113.5 25l20 122q51 -23 86 -11t59 64z" />
    <glyph glyph-name="afii10038" unicode="&#x424;" horiz-adv-x="909" 
d="M708 351q0 149 -186 153v-307q186 8 186 154zM200 351q0 -146 186 -154v307q-186 -4 -186 -153zM385 -2v72q-94 3 -167.5 32t-120.5 93t-47 156t47 156.5t120 94t167 32.5v68h140v-68q72 -2 130.5 -19t105 -49.5t72.5 -87.5t26 -127t-26.5 -126.5t-74 -87t-106 -49
t-128.5 -18.5v-72h-138z" />
    <glyph glyph-name="afii10039" unicode="&#x425;" horiz-adv-x="671" 
d="M334 459h4l68 132l69 109h162v-22l-211 -308l235 -349v-21h-157l-91 135l-75 131h-5l-77 -135l-87 -131h-159v21l236 349l-212 308v22h163l73 -115z" />
    <glyph glyph-name="afii10040" unicode="&#x426;" horiz-adv-x="753" 
d="M585 0h-504v700h150v-564h252v564h151v-573h84v-217h-133v90z" />
    <glyph glyph-name="afii10041" unicode="&#x427;" horiz-adv-x="647" 
d="M565 0h-148v250q-200 -25 -291.5 54t-91.5 289v106h151v-106q0 -137 48 -180t184 -24v310h148v-699z" />
    <glyph glyph-name="afii10042" unicode="&#x428;" horiz-adv-x="1034" 
d="M81 0v700h149v-564h211v564h150v-564h212v564h150v-700h-872z" />
    <glyph glyph-name="afii10043" unicode="&#x429;" horiz-adv-x="1068" 
d="M81 0v700h151v-564h208v564h149v-564h210v564h149v-573h85v-217h-132v90h-820z" />
    <glyph glyph-name="afii10044" unicode="&#x42a;" horiz-adv-x="705" 
d="M430 349h-149v-217h149q49 0 77.5 32t28.5 78q-1 45 -30 76t-76 31zM20 574v126h261v-219h150q115 0 182 -70t67 -169q0 -100 -67 -171t-182 -71h-297v574h-114z" />
    <glyph glyph-name="afii10045" unicode="&#x42b;" horiz-adv-x="957" 
d="M227 700v-17v-202h150q126 0 193 -82t54 -189q-11 -90 -76.5 -150t-170.5 -60h-296v700h146zM377 349h-15h-135v-217q20 0 62 -0.5t63 -0.5q119 0 129 96q5 49 -24 85.5t-80 36.5zM876 700v-700h-149v700h149z" />
    <glyph glyph-name="afii10046" unicode="&#x42c;" horiz-adv-x="650" 
d="M227 700v-219h150q115 0 182 -70t67 -169q0 -100 -67 -171t-182 -71h-296v700h146zM377 349h-150v-217q16 0 46.5 -0.5t56 -0.5t47.5 1q48 0 77 32t28 78q-1 45 -29.5 76t-75.5 31z" />
    <glyph glyph-name="afii10047" unicode="&#x42d;" horiz-adv-x="760" 
d="M365 574q-135 0 -180 -116h-145q23 122 116 186.5t209 64.5q70 0 133 -23.5t112.5 -68t78.5 -114t29 -153.5q0 -85 -30 -154t-80 -113t-114 -67.5t-134 -23.5q-77 0 -143.5 26t-118 86.5t-66.5 148.5h145q18 -61 67 -94t116 -33q76 0 130.5 43.5t67.5 117.5h-253v124h256
q-10 75 -64.5 119.5t-131.5 43.5z" />
    <glyph glyph-name="afii10048" unicode="&#x42e;" horiz-adv-x="1086" 
d="M1044 350q0 -114 -51.5 -198.5t-131.5 -125.5t-175 -40q-134 2 -234 83.5t-117 223.5h-104v-293h-150v700h150v-271h107q25 134 123.5 209t227.5 74q94 -1 173.5 -41.5t130.5 -124.5t51 -196zM480 350q0 -103 60.5 -162.5t147.5 -59.5q86 0 146 59.5t60 162.5
q0 101 -60.5 160t-147.5 59t-146.5 -59t-59.5 -160z" />
    <glyph glyph-name="afii10049" unicode="&#x42f;" horiz-adv-x="690" 
d="M31 22l157 233q-59 30 -91.5 84.5t-33.5 121.5q0 99 66.5 169t181.5 70h298v-700h-150v232h-125l-144 -232h-159v22zM311 355h150v215h-150q-47 0 -75 -30.5t-28 -75.5q0 -46 28 -77.5t75 -31.5z" />
    <glyph glyph-name="afii10065" unicode="&#x430;" horiz-adv-x="554" 
d="M374 74q-20 -42 -67.5 -62.5t-99.5 -20.5q-70 0 -121.5 41.5t-53.5 109.5q-4 85 49 129.5t138 44.5q79 0 128 -31v33q0 69 -120 69q-87 0 -139 -29l-18 100q76 36 181 36q230 0 230 -180v-174q0 -20 0.5 -28t4.5 -18.5t13.5 -13.5t26.5 -2l1 -78q-38 -7 -72 -7
t-57.5 20.5t-23.5 60.5zM344 173v25q-41 28 -100 28q-35 -2 -57 -21.5t-18 -53.5q2 -25 21 -38.5t45 -13.5q39 0 72.5 19.5t36.5 54.5z" />
    <glyph glyph-name="afii10066" unicode="&#x431;" horiz-adv-x="599" 
d="M328 475q110 5 173.5 -68t60.5 -175q-4 -100 -70.5 -171t-182.5 -71q-115 0 -178 59t-77 158q-15 103 -0.5 188.5t71 156.5t153.5 104q96 31 77 79h126q41 -112 -98 -173l-51 -21t-45.5 -19t-34.5 -18.5t-30.5 -24.5t-19.5 -31.5t-16 -44.5q21 30 61.5 50.5t80.5 21.5z
M185 234q0 -58 35 -90.5t87 -32.5t86 33.5t33 89.5q-1 54 -35.5 88t-86.5 34q-51 0 -85.5 -35t-33.5 -87z" />
    <glyph glyph-name="afii10067" unicode="&#x432;" horiz-adv-x="537" 
d="M474 354q0 -76 -66 -94q41 -13 65.5 -45.5t24.5 -75.5q0 -44 -18 -73.5t-51 -43t-65.5 -18.5t-74.5 -5h-224v485h192q43 0 74 -3.5t67.5 -15.5t56 -40t19.5 -71zM200 104h74q20 0 30.5 1t27 5t24 15t7.5 29q0 15 -6.5 25.5t-13.5 15.5t-23 7.5t-23 2.5h-25h-72v-101z
M200 297h65q17 0 26 1t21.5 4.5t18.5 12.5t6 24q0 20 -12 31t-25.5 13t-34.5 2h-65v-88z" />
    <glyph glyph-name="afii10068" unicode="&#x433;" horiz-adv-x="441" 
d="M201 0h-136v482h353v-122h-217v-360z" />
    <glyph glyph-name="afii10069" unicode="&#x434;" horiz-adv-x="613" 
d="M147 -104h-121l-4 212h2h7q19 0 33 6t21.5 12t13 22t7.5 24.5t5 33t5 34.5l38 242h361v-374h64l-5 -212h-121v104h-306v-104zM384 108v259h-118l-19 -156l-6 -37q-8 -48 -31 -66h174z" />
    <glyph glyph-name="afii10070" unicode="&#x435;" horiz-adv-x="550" 
d="M289 494q129 0 185.5 -78t28.5 -204h-327q7 -100 128 -109q42 -2 64 1q68 8 115 29l16 -102q-91 -43 -187 -43q-123 -2 -199.5 68t-76.5 191q2 119 75.5 183t177.5 64zM289 387q-42 0 -73 -22.5t-39 -62.5h212q2 44 -27 64.5t-73 20.5z" />
    <glyph glyph-name="afii10072" unicode="&#x436;" horiz-adv-x="794" 
d="M463 303h14q136 0 123 179h133q7 -83 -15 -143t-88 -94l137 -230v-15h-142l-109 201q-23 -7 -39 -7h-14v-194h-133v194h-13q-18 0 -39 7l-111 -201h-140v15l136 230q-65 34 -86.5 93.5t-15.5 143.5h131q-12 -179 125 -179h13v180h133v-180z" />
    <glyph glyph-name="afii10073" unicode="&#x437;" horiz-adv-x="496" 
d="M55 355l-6 100q72 39 182 37q86 0 144 -31.5t58 -101.5q0 -37 -19.5 -63t-55.5 -36q46 -13 74 -45t28 -78q0 -78 -62.5 -114t-156.5 -36q-121 0 -207 44l7 111q23 -14 78.5 -28.5t100.5 -15.5q92 0 92 54q0 18 -8 29t-25 15t-29 5t-33 1h-77v96h70q23 0 36.5 2t26 12
t12.5 30q0 45 -79 45q-34 0 -79 -9t-72 -23z" />
    <glyph glyph-name="afii10074" unicode="&#x438;" horiz-adv-x="591" 
d="M391 249l-290 -250h-36v483h135v-243l284 245h42v-484h-135v249z" />
    <glyph glyph-name="afii10075" unicode="&#x439;" horiz-adv-x="591" 
d="M153 697l86 9q6 -56 74 -58q68 0 78 58q45 -3 84 -9q-5 -71 -47 -111t-114 -40q-70 0 -113.5 40t-47.5 111zM101 -1l290 250v-249h135v484h-42l-284 -245v243h-135v-483h36z" />
    <glyph glyph-name="afii10076" unicode="&#x43a;" horiz-adv-x="562" 
d="M204 303h35q77 0 108 48t31 132h132q4 -178 -113 -241l136 -227v-14h-142l-113 197q-15 -5 -41 -5h-33v-192h-139v481h139v-179z" />
    <glyph glyph-name="afii10077" unicode="&#x43b;" horiz-adv-x="607" 
d="M405 359h-135l-17 -176q-10 -126 -58 -163t-175 -20l4 101q54 -6 70 12.5t22 74.5l33 294h393v-482h-137v359z" />
    <glyph glyph-name="afii10078" unicode="&#x43c;" horiz-adv-x="654" 
d="M332 100h-12l-121 121v-219h-134v480h42l220 -221l221 221h41v-480h-133v219z" />
    <glyph glyph-name="afii10079" unicode="&#x43d;" horiz-adv-x="592" 
d="M392 482h135v-482h-135v190h-192v-190h-135v482h135v-172h192v172z" />
    <glyph glyph-name="afii10080" unicode="&#x43e;" horiz-adv-x="583" 
d="M547 243q0 -120 -75.5 -186.5t-178.5 -66.5q-104 0 -180.5 66.5t-76.5 186.5q0 118 75 185t178 68q105 1 181.5 -66t76.5 -187zM175 243q0 -62 34 -96.5t81 -34.5q48 -1 83 34t35 97q0 61 -34 95.5t-81 34.5q-48 0 -83 -34t-35 -96z" />
    <glyph glyph-name="afii10081" unicode="&#x43f;" horiz-adv-x="591" 
d="M65 482h461v-482h-139v359h-181v-359h-141v482z" />
    <glyph glyph-name="afii10082" unicode="&#x440;" horiz-adv-x="605" 
d="M199 408q19 43 61 65.5t91 22.5q101 0 159 -73.5t58 -177.5q0 -70 -30 -127.5t-78 -88t-109.5 -36.5t-124.5 28v-268h-140v566v14.5v14t-0.5 11.5t-1.5 10.5t-3 8t-5.5 7.5l-8 4.5t-11.5 2.5h-15l-1 93q28 6 53 6.5t50.5 -5t40.5 -25.5t15 -53zM222 263v-126
q52 -27 97.5 -25.5t76.5 38t31 95.5q0 52 -27.5 90t-77.5 38q-45 -1 -72 -33t-28 -77z" />
    <glyph glyph-name="afii10083" unicode="&#x441;" horiz-adv-x="564" 
d="M531 308h-133q-12 33 -39.5 50t-61.5 16q-49 -1 -85.5 -35.5t-36.5 -95.5q0 -62 36.5 -97.5t85.5 -35.5q35 0 63 19t40 56h133q-14 -92 -82.5 -143t-157.5 -52q-104 -1 -180.5 66t-76.5 187q0 119 77 186.5t181 67.5q87 0 154 -49.5t83 -139.5z" />
    <glyph glyph-name="afii10084" unicode="&#x442;" horiz-adv-x="466" 
d="M301 2h-136v358h-142v122h420v-122h-142v-358z" />
    <glyph glyph-name="afii10085" unicode="&#x443;" horiz-adv-x="559" 
d="M540 466l-204 -513q-21 -51 -40.5 -86.5t-45.5 -64.5t-56 -41t-69.5 -9.5t-86.5 24.5l14 98q59 -24 92.5 -5.5t55.5 80.5l18 50l-211 467v16h150l127 -320h3l114 320h139v-16z" />
    <glyph glyph-name="afii10086" unicode="&#x444;" horiz-adv-x="839" 
d="M489 -245h-138v267q-129 -61 -220.5 4.5t-91.5 214.5q0 150 91 216t221 6v265h138v-265q129 60 220 -6t91 -216q0 -149 -91 -214.5t-220 -4.5v-267zM660 241q0 89 -51 119t-123 -13v-210q72 -44 123 -14t51 118zM179 241q0 -88 51.5 -118t124.5 14v210q-73 43 -124.5 13
t-51.5 -119z" />
    <glyph glyph-name="afii10087" unicode="&#x445;" horiz-adv-x="526" 
d="M266 170h-3l-57 -96l-52 -74h-140v16l167 240l-143 211v15h134l43 -63l46 -81h3l45 82l42 62h143v-16l-148 -215l163 -235v-16h-135l-54 78z" />
    <glyph glyph-name="afii10088" unicode="&#x446;" horiz-adv-x="598" 
d="M441 0h-376v482h134v-359h168v359h134v-374h63l-8 -210h-115v102z" />
    <glyph glyph-name="afii10089" unicode="&#x447;" horiz-adv-x="553" 
d="M173 370q-2 -56 27.5 -85.5t71.5 -28.5t80 27v199h136v-482h-139v157q-63 -25 -120 -20.5t-101 29t-69.5 77.5t-25.5 127v112h140v-112z" />
    <glyph glyph-name="afii10090" unicode="&#x448;" horiz-adv-x="824" 
d="M198 123h146v359h135v-359h146v359h134v-482h-694v482h133v-359z" />
    <glyph glyph-name="afii10091" unicode="&#x449;" horiz-adv-x="858" 
d="M200 123h146v359h134v-359h145v359h135v-374h63l-7 -211h-117v103h-634v482h135v-359z" />
    <glyph glyph-name="afii10092" unicode="&#x44a;" horiz-adv-x="576" 
d="M338 0h-213v368h-103v114h237v-141h80q93 0 153 -42t60 -129q0 -86 -61 -128t-153 -42zM336 236h-77v-132h77q37 0 59 18t22 48q0 31 -21.5 48.5t-59.5 17.5z" />
    <glyph glyph-name="afii10093" unicode="&#x44b;" horiz-adv-x="771" 
d="M279 0h-214v482h134v-141h80q94 0 154 -42t60 -129q0 -86 -61 -128t-153 -42zM277 236h-78v-132h78q37 0 59 18t22 48q0 31 -21.5 48.5t-59.5 17.5zM576 0v481h130v-481h-130z" />
    <glyph glyph-name="afii10094" unicode="&#x44c;" horiz-adv-x="518" 
d="M279 0h-214v482h134v-141h80q94 0 154 -42t60 -129q0 -86 -61 -128t-153 -42zM277 236h-78v-132h78q37 0 59 18t22 48q0 31 -21.5 48.5t-59.5 17.5z" />
    <glyph glyph-name="afii10095" unicode="&#x44d;" horiz-adv-x="570" 
d="M390 289q-9 41 -38.5 62t-71.5 21q-89 -2 -114 -67l-133 1q16 91 85.5 139.5t161.5 48.5q107 -1 180 -67t73 -186q0 -121 -75 -187t-184 -66q-91 0 -160.5 51.5t-83.5 145.5h134q11 -37 42.5 -56.5t68.5 -19.5q43 0 75 21.5t40 61.5h-155v97h155z" />
    <glyph glyph-name="afii10096" unicode="&#x44e;" horiz-adv-x="824" 
d="M787 241q0 -120 -76 -186.5t-180 -66.5q-91 0 -162.5 52.5t-88.5 148.5h-80v-189h-135v482h135v-172h85q21 89 90.5 137t157.5 48q104 0 179 -67.5t75 -186.5zM414 241q0 -61 35 -96t83 -34q46 0 80.5 34.5t34.5 95.5t-34.5 95.5t-80.5 34.5q-48 1 -83 -33.5t-35 -96.5z
" />
    <glyph glyph-name="afii10097" unicode="&#x44f;" horiz-adv-x="555" 
d="M30 15l114 158q-40 19 -66 58t-26 84q0 68 47.5 117t126.5 50h264v-482h-141v146h-67l-103 -146h-149v15zM267 254h82v122h-82q-34 0 -54 -18t-20 -45q0 -26 20 -42.5t54 -16.5z" />
    <glyph glyph-name="afii10071" unicode="&#x451;" 
d="M290 494q129 0 185.5 -78t28.5 -204h-327q7 -100 128 -109q42 -2 64 1q68 8 115 29l16 -102q-91 -43 -187 -43q-123 -2 -199.5 68t-76.5 191q2 119 75.5 183t177.5 64zM290 387q-42 0 -73 -22.5t-39 -62.5h212q2 44 -27 64.5t-73 20.5zM412 569q-31 0 -52 18.5t-21 47.5
q0 30 21 48.5t52 18.5t52 -18.5t21 -48.5q0 -29 -21 -47.5t-52 -18.5zM166 569q-31 0 -52 18.5t-21 47.5q0 30 21 48.5t52 18.5t52.5 -18.5t21.5 -48.5q0 -29 -21.5 -47.5t-52.5 -18.5z" />
    <glyph glyph-name="afii10099" unicode="&#x452;" horiz-adv-x="597" 
d="M310 -6q56 -6 73 13.5t17 79.5v192q-2 49 -26.5 76t-64.5 27q-42 0 -72.5 -36t-30.5 -86v-260h-141v571h-73v94h73v65h141v-65h136v-94h-136v-145q15 34 54.5 52.5t88.5 18.5q52 0 90.5 -18t59.5 -49.5t30.5 -69t9.5 -81.5v-193q0 -237 -229 -197v105z" />
    <glyph glyph-name="afii10100" unicode="&#x453;" horiz-adv-x="448" 
d="M201 0h-136v482h360v-122h-224v-360zM285 556h-106v13l80 159l120 -43v-11z" />
    <glyph glyph-name="afii10101" unicode="&#x454;" horiz-adv-x="570" 
d="M178 288h157v-94h-157q8 -40 38 -62.5t72 -22.5q38 0 72.5 19.5t45.5 56.5h134q-14 -94 -84 -145.5t-160 -51.5q-104 0 -181.5 67t-77.5 186t75 185.5t178 67.5q89 0 160 -49t87 -139l-133 -1q-12 32 -45 49t-69 18q-42 0 -72.5 -21.5t-39.5 -62.5z" />
    <glyph glyph-name="afii10102" unicode="&#x455;" horiz-adv-x="511" 
d="M35 147h140q1 -28 24 -43t55 -14q82 0 83 55q0 14 -5 23t-17.5 14t-20.5 6.5t-26 4.5q-112 15 -153 35q-70 34 -70 108q0 78 57 118.5t150 40.5q92 0 152.5 -40.5t56.5 -113.5h-132q-1 25 -22 37t-53 12q-31 0 -52.5 -13.5t-21.5 -36.5q0 -17 12 -27t24.5 -12.5
t32.5 -4.5q111 -13 150 -29q80 -34 78 -122q-1 -55 -33.5 -91.5t-79 -51.5t-104.5 -15q-219 0 -225 160z" />
    <glyph glyph-name="afii10103" unicode="&#x456;" horiz-adv-x="272" 
d="M54 621q0 39 25 60t59 20q32 -1 56 -22t24 -58q0 -38 -23.5 -59t-55.5 -22q-34 -1 -59.5 20.5t-25.5 60.5zM206 476v-476h-140v476h140z" />
    <glyph glyph-name="afii10104" unicode="&#x457;" horiz-adv-x="271" 
d="M240 568q-34 0 -56.5 20t-22.5 52t22.5 52t56.5 20t56.5 -20t22.5 -52t-22.5 -52t-56.5 -20zM21 568q-33 0 -56 20t-23 52t23 52t56 20q34 0 57 -20t23 -52t-23 -52t-57 -20zM205 482v-482h-139v482h139z" />
    <glyph glyph-name="afii10105" unicode="&#x458;" horiz-adv-x="270" 
d="M66 480h138l-1 -537q0 -127 -61 -171.5t-178 -23.5l4 104q58 -8 78 13t20 80v535zM52 621q0 38 25 59.5t58 20.5t57 -22t24 -58t-22.5 -58t-54.5 -23q-35 -2 -61 19.5t-26 61.5z" />
    <glyph glyph-name="afii10106" unicode="&#x459;" horiz-adv-x="797" 
d="M373 0v359h-103l-17 -176q-10 -126 -57.5 -163t-174.5 -20l3 101q55 -6 70.5 12t21.5 75l34 294h357v-141h55q93 0 151.5 -41.5t58.5 -129.5q0 -86 -59.5 -128t-151.5 -42h-188zM560 236h-53v-132h53q37 0 57.5 18t20.5 48q0 31 -20.5 48.5t-57.5 17.5z" />
    <glyph glyph-name="afii10107" unicode="&#x45a;" horiz-adv-x="779" 
d="M544 0h-188v207h-157v-207h-134v482h134v-155h157v155h134v-150h54q94 0 152 -39t58 -126q0 -86 -59 -126.5t-151 -40.5zM542 227h-52v-123h52q38 0 58.5 16.5t20.5 46.5q0 60 -79 60z" />
    <glyph glyph-name="afii10108" unicode="&#x45b;" horiz-adv-x="599" 
d="M400 0v279q-2 49 -26.5 76t-64.5 27q-43 0 -73 -33.5t-30 -83.5v-265h-141v571h-71v94h71v65h141v-65h136v-94h-136v-151q36 73 151 73q67 0 109.5 -32t57.5 -77.5t15 -104.5v-279h-139z" />
    <glyph glyph-name="afii10109" unicode="&#x45c;" horiz-adv-x="562" 
d="M204 303h35q77 0 108 48t31 132h132q4 -178 -113 -241l136 -227v-14h-142l-113 197q-15 -5 -41 -5h-33v-192h-139v481h139v-179zM317 556h-106v13l79 159l120 -43v-11z" />
    <glyph glyph-name="afii10110" unicode="&#x45e;" horiz-adv-x="559" 
d="M540 466l-204 -513q-21 -50 -40.5 -85t-45.5 -63t-56 -39t-69.5 -7.5t-86.5 25.5l14 90q59 -24 92.5 -5.5t55.5 80.5l18 50l-211 467v16h150l127 -320h3l114 320h139v-16zM111 705l89 9q6 -60 78 -60q73 0 84 60q33 -1 90 -9q-4 -76 -50 -117t-122 -41q-75 0 -120 41.5
t-49 116.5z" />
    <glyph glyph-name="afii10193" unicode="&#x45f;" horiz-adv-x="592" 
d="M231 0h-166v482h139v-359h182v359h141v-482h-167v-96h-129v96z" />
    <glyph glyph-name="afii10050" unicode="&#x490;" horiz-adv-x="522" 
d="M507 569h-277v-569h-149v700h309v100h117v-231z" />
    <glyph glyph-name="afii10098" unicode="&#x491;" horiz-adv-x="448" 
d="M202 0h-137v482h254v92h106v-214h-223v-360z" />
    <glyph glyph-name="Wgrave" unicode="&#x1e80;" horiz-adv-x="970" 
d="M454 688h61l151 -434h3l59 233l70 213h157v-22l-241 -684h-89l-139 378h-3l-135 -378h-92l-242 684v22h157l71 -214l63 -232h3zM544 774v-13h-114l-89 110v12l128 47z" />
    <glyph glyph-name="wgrave" unicode="&#x1e81;" horiz-adv-x="769" 
d="M272 -7h-62l-198 473v16h149l51 -141l37 -110h2l108 240h53l109 -240h3l36 110l47 141h151v-16l-200 -473h-53l-60 118l-60 127l-58 -131zM445 575v-12h-109l-86 105v12l123 45z" />
    <glyph glyph-name="Wacute" unicode="&#x1e82;" horiz-adv-x="970" 
d="M454 688h61l151 -434h3l59 233l70 213h157v-22l-241 -684h-89l-139 378h-3l-135 -378h-92l-242 684v22h157l71 -214l63 -232h3zM536 758h-114v13l75 156l128 -47v-12z" />
    <glyph glyph-name="wacute" unicode="&#x1e83;" horiz-adv-x="769" 
d="M272 -7h-62l-198 473v16h149l51 -141l37 -110h2l108 240h53l109 -240h3l36 110l47 141h151v-16l-200 -473h-53l-60 118l-60 127l-58 -131zM426 559h-110v13l72 151l125 -46v-11z" />
    <glyph glyph-name="Wdieresis" unicode="&#x1e84;" horiz-adv-x="970" 
d="M454 688h61l151 -434h3l59 233l70 213h157v-22l-241 -684h-89l-139 378h-3l-135 -378h-92l-242 684v22h157l71 -214l63 -232h3zM616 747q-34 0 -56.5 20t-22.5 52t22.5 52t56.5 20t56.5 -20t22.5 -52t-22.5 -52t-56.5 -20zM350 747q-33 0 -56 20t-23 52t23 52t56 20
q34 0 57 -20t23 -52t-23 -52t-57 -20z" />
    <glyph glyph-name="wdieresis" unicode="&#x1e85;" horiz-adv-x="769" 
d="M272 -7h-62l-198 473v16h149l51 -141l37 -110h2l108 240h53l109 -240h3l36 110l47 141h151v-16l-200 -473h-53l-60 118l-60 127l-58 -131zM518 568q-34 0 -56.5 20t-22.5 52t22.5 52t56.5 20t56.5 -20t22.5 -52t-22.5 -52t-56.5 -20zM252 568q-33 0 -56 20t-23 52t23 52
t56 20q34 0 57 -20t23 -52t-23 -52t-57 -20z" />
    <glyph glyph-name="Ygrave" unicode="&#x1ef2;" horiz-adv-x="635" 
d="M316 417h5l69 139l84 144h159v-22l-240 -398v-280h-150v280l-241 398v22h161l87 -149zM379 771v-13h-114l-89 110v12l128 47z" />
    <glyph glyph-name="ygrave" unicode="&#x1ef3;" horiz-adv-x="559" 
d="M540 466l-204 -513q-20 -51 -38 -85t-43 -62.5t-54.5 -40t-70.5 -9.5t-93 21l15 97q60 -24 93 -5.5t55 80.5l18 50l-211 467v16h147l65 -163l63 -178h3l55 177l58 164h142v-16zM343 574v-12h-109l-86 105v12l123 45z" />
    <glyph glyph-name="endash" unicode="&#x2013;" horiz-adv-x="545" 
d="M61 273v120h423v-120h-423z" />
    <glyph glyph-name="emdash" unicode="&#x2014;" horiz-adv-x="633" 
d="M61 273v120h511v-120h-511z" />
    <glyph glyph-name="quoteleft" unicode="&#x2018;" horiz-adv-x="261" 
d="M49 547q2 19 7 31l40 125h83l-24 -84q26 -7 42 -26.5t16 -47.5q0 -35 -23 -55.5t-59 -20.5q-60 0 -78 51q-4 11 -4 27z" />
    <glyph glyph-name="quoteright" unicode="&#x2019;" horiz-adv-x="262" 
d="M214 629q-2 -19 -7 -31l-41 -126h-82l24 85q-26 7 -42 26.5t-16 46.5q0 35 23 56t59 21q27 0 48.5 -14t29.5 -38q4 -11 4 -26z" />
    <glyph glyph-name="quotesinglbase" unicode="&#x201a;" horiz-adv-x="276" 
d="M220 59q0 -13 -7 -32q-8 -21 -21 -62.5l-20 -63.5h-82l24 85q-58 19 -58 74q0 35 23 56t59 21q28 0 49 -14t29 -38q4 -9 4 -26z" />
    <glyph glyph-name="quotedblleft" unicode="&#x201c;" horiz-adv-x="479" 
d="M49 546q0 16 6 32l41 125h83l-25 -85q59 -15 59 -73q0 -35 -23.5 -56t-59.5 -21q-59 0 -77 52q-4 9 -4 26zM268 546q0 18 7 32l40 125h83l-24 -85q58 -16 58 -73q0 -35 -23 -56t-59 -21q-28 0 -49 14t-29 38q-4 9 -4 26z" />
    <glyph glyph-name="quotedblright" unicode="&#x201d;" horiz-adv-x="484" 
d="M214 629q-2 -19 -7 -31l-41 -126h-82l24 85q-26 7 -42 26.5t-16 46.5q0 35 23 56t59 21q27 0 48.5 -14t29.5 -38q4 -11 4 -26zM436 629q0 -18 -7 -31l-40 -126h-83l24 85q-26 7 -42 26.5t-16 46.5q0 35 23 56t59 21q28 0 49 -14t29 -38q4 -9 4 -26z" />
    <glyph glyph-name="quotedblbase" unicode="&#x201e;" horiz-adv-x="497" 
d="M220 59q0 -10 -6 -32q-15 -43 -41 -125h-83l25 84q-59 19 -59 74q0 35 23.5 56t59.5 21q27 0 48 -14t29 -38q4 -9 4 -26zM441 59q-1 -16 -7 -32q-7 -19 -20 -61t-21 -64h-82l24 84q-58 19 -58 74q0 35 23 56t59 21q27 0 48.5 -14t29.5 -38q4 -11 4 -26z" />
    <glyph glyph-name="dagger" unicode="&#x2020;" horiz-adv-x="475" 
d="M35 361v118h139v230h127v-230h139v-118h-139v-448h-127v448h-139z" />
    <glyph glyph-name="daggerdbl" unicode="&#x2021;" horiz-adv-x="524" 
d="M52 125v116h145v152h-145v115h145v201h127v-201h148v-115h-148v-152h148v-116h-148v-212h-127v212h-145z" />
    <glyph glyph-name="bullet" unicode="&#x2022;" horiz-adv-x="450" 
d="M225 220q-63 0 -106.5 38.5t-43.5 99.5q0 62 43.5 101.5t106.5 39.5q64 0 107 -39t43 -102q0 -61 -43 -99.5t-107 -38.5z" />
    <glyph glyph-name="ellipsis" unicode="&#x2026;" horiz-adv-x="795" 
d="M139 -15q-36 0 -59.5 21.5t-23.5 54.5q0 35 23.5 56.5t59.5 21.5t59.5 -21.5t23.5 -56.5q0 -33 -23.5 -54.5t-59.5 -21.5zM396 -15q-36 0 -59.5 21.5t-23.5 54.5q0 35 23.5 56.5t59.5 21.5t59.5 -21.5t23.5 -56.5q0 -33 -23.5 -54.5t-59.5 -21.5zM656 -15
q-34 0 -58.5 21.5t-24.5 54.5q0 35 24 56.5t59 21.5q36 0 59.5 -21.5t23.5 -56.5q0 -33 -23.5 -54.5t-59.5 -21.5z" />
    <glyph glyph-name="perthousand" unicode="&#x2030;" horiz-adv-x="1336" 
d="M220 0l344 699h136l-344 -699h-136zM885 161q0 -57 -26.5 -99t-66.5 -61t-86 -19t-86 19t-66.5 61t-26.5 99t26.5 98.5t66.5 60.5t86 19t86 -19t66.5 -60.5t26.5 -98.5zM638 161q0 -39 21 -61t47 -22t47 22t21 61q0 38 -21 59.5t-47 21.5t-47 -21.5t-21 -59.5zM394 536
q0 -49 -20 -87.5t-51.5 -58.5t-70 -29.5t-76.5 0t-69.5 29.5t-51.5 58.5t-20 87.5t20 87.5t51.5 58.5t69.5 29.5t76.5 0t70 -29.5t51.5 -58.5t20 -87.5zM147 536q0 -38 21 -59.5t46.5 -21.5t46.5 21.5t21 59.5q0 39 -21 61t-46.5 22t-46.5 -22t-21 -61zM1302 161
q0 -49 -19.5 -87.5t-51.5 -58.5t-70 -29.5t-76 0t-70 29.5t-51.5 58.5t-19.5 87.5t19.5 87.5t51.5 58.5t70 29t76 0t70 -29t51.5 -58.5t19.5 -87.5zM1055 161q0 -39 21.5 -61t46.5 -22t46.5 22t21.5 61q0 38 -21.5 59.5t-46.5 21.5t-46.5 -21.5t-21.5 -59.5z" />
    <glyph glyph-name="guilsinglleft" unicode="&#x2039;" horiz-adv-x="329" 
d="M274 558l-98 -212l98 -209l-79 -33l-151 242l151 244z" />
    <glyph glyph-name="guilsinglright" unicode="&#x203a;" horiz-adv-x="329" 
d="M153 346l-98 212l79 32l151 -244l-151 -242l-79 33z" />
    <glyph glyph-name="fraction" unicode="&#x2044;" horiz-adv-x="512" 
d="M-6 -60l382 789h144l-382 -789h-144z" />
    <glyph glyph-name="Euro" unicode="&#x20ac;" horiz-adv-x="655" 
d="M43 382v77h80q31 119 124.5 183.5t212.5 64.5q79 0 137 -25l-44 -117q-40 17 -88 17q-64 0 -113 -33t-73 -90h210l-25 -77h-208q-5 -32 -1 -55h190l-27 -79h-146q22 -59 71 -93t121 -34q57 0 106 27l49 -121q-74 -35 -159 -35q-133 0 -223 66.5t-116 189.5h-78v79h67
q-2 35 1 55h-68z" />
    <glyph glyph-name="afii61352" unicode="&#x2116;" horiz-adv-x="1342" 
d="M633 -2l-396 402v-400h-149v703h47l393 -400v397h150v-702h-45zM1306 243q0 -120 -75.5 -186.5t-178.5 -66.5q-104 0 -180.5 66.5t-76.5 186.5q0 118 75 185t178 68q105 1 181.5 -66t76.5 -187zM934 243q0 -62 34 -96.5t81 -34.5q48 -1 83 34t35 97q0 61 -34 95.5
t-81 34.5q-48 0 -83 -34t-35 -96z" />
    <glyph glyph-name="trademark" unicode="&#x2122;" horiz-adv-x="773" 
d="M151 618h-82v83h257v-83h-82v-196h-93v196zM425 701l112 -118l113 118h46v-279h-93v119l-64 -68h-4l-64 68v-119h-93v279h47z" />
    <glyph glyph-name="arrowleft" unicode="&#x2190;" horiz-adv-x="764" 
d="M357 56l-301 279v20l302 277l88 -84l-161 -135l404 6v-148l-402 6l159 -136z" />
    <glyph glyph-name="arrowup" unicode="&#x2191;" horiz-adv-x="723" 
d="M368 657l279 -301l-85 -89l-136 159l6 -402h-148l6 404l-135 -161l-84 88l277 302h20z" />
    <glyph glyph-name="arrowright" unicode="&#x2192;" horiz-adv-x="771" 
d="M702 335l-301 -279l-89 85l159 136l-402 -6v148l404 -6l-161 135l88 84l302 -277v-20z" />
    <glyph glyph-name="arrowdown" unicode="&#x2193;" horiz-adv-x="706" 
d="M343 31l-279 301l85 89l136 -159l-6 402h148l-6 -404l135 161l84 -88l-277 -302h-20z" />
    <glyph glyph-name="arrowboth" unicode="&#x2194;" horiz-adv-x="989" 
d="M933 335l-290 -269l-86 82l154 131h-437l154 -131l-86 -82l-290 269v20l291 268l86 -82l-156 -130h439l-156 130l86 82l291 -268v-20z" />
    <glyph glyph-name="arrowupdn" unicode="&#x2195;" horiz-adv-x="694" 
d="M342 -43l-267 279l81 83l131 -147v385l-131 -147l-81 83l267 279h20l266 -280l-81 -83l-130 150v-389l130 150l81 -83l-266 -280h-20z" />
    <glyph glyph-name="uni2196" unicode="&#x2196;" horiz-adv-x="735" 
d="M128 162l-16 409l14 14l410 -17l3 -122l-210 18l290 -282l-104 -104l-281 288l16 -208z" />
    <glyph glyph-name="uni2197" unicode="&#x2197;" horiz-adv-x="708" 
d="M586 571l-16 -409l-122 -4l16 208l-281 -288l-104 104l290 282l-210 -18l3 122l410 17z" />
    <glyph glyph-name="uni2198" unicode="&#x2198;" horiz-adv-x="735" 
d="M580 539l16 -409l-14 -14l-410 17l-3 122l210 -18l-290 282l104 104l281 -288l-16 208z" />
    <glyph glyph-name="uni2199" unicode="&#x2199;" horiz-adv-x="735" 
d="M139 130l16 409l122 4l-16 -208l281 288l104 -104l-290 -282l210 18l-3 -122l-410 -17z" />
    <glyph glyph-name="minus" unicode="&#x2212;" 
d="M68 293v120h415v-120h-415z" />
    <glyph glyph-name="CR" horiz-adv-x="219" 
 />
    </font>
</defs>
</svg>
